M48
; DRILL file {KiCad (5.1.10)-1} date 11/05/21 11:53:24
; FORMAT={-:-/ absolute / metric / decimal}
; #@! TF.CreationDate,2021-11-05T11:53:24-03:00
; #@! TF.GenerationSoftware,Kicad,Pcbnew,(5.1.10)-1
FMAT,2
METRIC
T1C0.750
T2C0.800
T3C1.000
%
G90
G05
T1
X100.0Y-128.4
X100.0Y-130.5
X100.0Y-132.6
T2
X64.5Y-47.2
X64.5Y-51.0
X64.5Y-57.0
X64.5Y-60.8
X93.2Y-72.5
X97.0Y-72.5
X103.0Y-72.5
X106.8Y-72.5
T3
X51.0Y-104.92
X51.0Y-107.46
X51.0Y-110.0
X51.0Y-120.0
X51.0Y-122.54
X51.0Y-125.08
X51.5Y-53.92
X51.5Y-56.46
X51.5Y-59.0
X70.45Y-84.74
X70.45Y-87.28
X70.45Y-89.82
X70.45Y-92.36
X70.45Y-94.9
X70.45Y-97.44
X70.45Y-99.98
X70.45Y-102.52
X70.45Y-105.06
X70.45Y-107.6
X70.45Y-110.14
X70.45Y-112.68
X70.45Y-115.22
X70.45Y-117.76
X70.45Y-120.3
X70.45Y-122.84
X70.45Y-125.38
X70.45Y-127.92
X70.45Y-130.46
X70.45Y-133.0
X76.5Y-46.0
X76.5Y-64.0
X85.7Y-84.74
X85.7Y-87.28
X85.7Y-89.82
X85.7Y-92.36
X85.7Y-94.9
X85.7Y-97.44
X85.7Y-99.98
X85.7Y-102.52
X85.7Y-105.06
X85.7Y-107.6
X85.7Y-110.14
X85.7Y-112.68
X85.7Y-115.22
X85.7Y-117.76
X85.7Y-120.3
X85.7Y-122.84
X85.7Y-125.38
X85.7Y-127.92
X85.7Y-130.46
X85.7Y-133.0
X98.5Y-108.8
X98.5Y-111.34
X98.5Y-113.88
X98.5Y-116.42
X98.5Y-118.96
X98.5Y-121.5
X112.5Y-97.5
X112.5Y-100.04
X112.5Y-102.58
X112.5Y-105.12
X112.5Y-107.66
X112.5Y-110.2
X112.5Y-112.74
X112.5Y-115.28
X112.5Y-117.82
X112.5Y-120.36
X112.5Y-122.9
X112.5Y-125.44
X116.5Y-46.0
X116.5Y-64.0
X138.5Y-97.5
X138.5Y-100.04
X138.5Y-102.58
X138.5Y-105.12
X138.5Y-107.66
X138.5Y-110.2
X138.5Y-112.74
X138.5Y-115.28
X138.5Y-117.82
X138.5Y-120.36
X138.5Y-122.9
X138.5Y-125.44
T0
M30
