G04 #@! TF.GenerationSoftware,KiCad,Pcbnew,(5.1.10)-1*
G04 #@! TF.CreationDate,2021-11-05T11:59:52-03:00*
G04 #@! TF.ProjectId,Est. Met. V1.0,4573742e-204d-4657-942e-2056312e302e,1.0*
G04 #@! TF.SameCoordinates,Original*
G04 #@! TF.FileFunction,Copper,L2,Bot*
G04 #@! TF.FilePolarity,Positive*
%FSLAX46Y46*%
G04 Gerber Fmt 4.6, Leading zero omitted, Abs format (unit mm)*
G04 Created by KiCad (PCBNEW (5.1.10)-1) date 2021-11-05 11:59:52*
%MOMM*%
%LPD*%
G01*
G04 APERTURE LIST*
G04 #@! TA.AperFunction,SMDPad,CuDef*
%ADD10R,1.778000X1.270000*%
G04 #@! TD*
G04 #@! TA.AperFunction,ComponentPad*
%ADD11R,1.600000X3.000000*%
G04 #@! TD*
G04 #@! TA.AperFunction,ComponentPad*
%ADD12O,1.600000X3.000000*%
G04 #@! TD*
G04 #@! TA.AperFunction,ComponentPad*
%ADD13R,3.000000X1.600000*%
G04 #@! TD*
G04 #@! TA.AperFunction,ComponentPad*
%ADD14O,3.000000X1.600000*%
G04 #@! TD*
G04 #@! TA.AperFunction,ComponentPad*
%ADD15O,3.000000X1.700000*%
G04 #@! TD*
G04 #@! TA.AperFunction,ComponentPad*
%ADD16R,3.000000X1.700000*%
G04 #@! TD*
G04 #@! TA.AperFunction,ComponentPad*
%ADD17R,3.000000X3.000000*%
G04 #@! TD*
G04 #@! TA.AperFunction,ComponentPad*
%ADD18R,2.500000X1.050000*%
G04 #@! TD*
G04 #@! TA.AperFunction,ComponentPad*
%ADD19O,2.500000X1.050000*%
G04 #@! TD*
G04 #@! TA.AperFunction,Conductor*
%ADD20C,1.000000*%
G04 #@! TD*
G04 #@! TA.AperFunction,Conductor*
%ADD21C,0.150000*%
G04 #@! TD*
G04 #@! TA.AperFunction,Conductor*
%ADD22C,0.100000*%
G04 #@! TD*
G04 APERTURE END LIST*
D10*
X57000000Y-104730000D03*
X57000000Y-107270000D03*
X62000000Y-107270000D03*
X62000000Y-104730000D03*
D11*
X97000000Y-72500000D03*
D12*
X93200000Y-72500000D03*
X106800000Y-72500000D03*
D11*
X103000000Y-72500000D03*
D13*
X64500000Y-57000000D03*
D14*
X64500000Y-60800000D03*
X64500000Y-47200000D03*
D13*
X64500000Y-51000000D03*
D10*
X57000000Y-117770000D03*
X57000000Y-115230000D03*
D15*
X51000000Y-125080000D03*
X51000000Y-122540000D03*
D16*
X51000000Y-120000000D03*
X51500000Y-59000000D03*
D15*
X51500000Y-56460000D03*
X51500000Y-53920000D03*
D16*
X51000000Y-110000000D03*
D15*
X51000000Y-107460000D03*
X51000000Y-104920000D03*
D10*
X57000000Y-125230000D03*
X57000000Y-127770000D03*
X62000000Y-115230000D03*
X62000000Y-117770000D03*
D17*
X76500000Y-46000000D03*
X76500000Y-64000000D03*
X116500000Y-64000000D03*
X116500000Y-46000000D03*
D15*
X138500000Y-117820000D03*
X112500000Y-117820000D03*
X112500000Y-122900000D03*
X112500000Y-112740000D03*
X138500000Y-100040000D03*
X138500000Y-110200000D03*
X138500000Y-125440000D03*
X138500000Y-122900000D03*
X112500000Y-102580000D03*
X138500000Y-107660000D03*
X112500000Y-110200000D03*
X112500000Y-115280000D03*
X112500000Y-105120000D03*
X138500000Y-102580000D03*
X138500000Y-112740000D03*
X138500000Y-115280000D03*
X138500000Y-120360000D03*
X112500000Y-120360000D03*
X112500000Y-107660000D03*
X112500000Y-125440000D03*
X138500000Y-105120000D03*
X112500000Y-100040000D03*
X138500000Y-97500000D03*
D16*
X112500000Y-97500000D03*
D15*
X85700000Y-84740000D03*
X85700000Y-102520000D03*
X85700000Y-110140000D03*
X85700000Y-115220000D03*
X85700000Y-122840000D03*
X70450000Y-117760000D03*
X70450000Y-87280000D03*
D16*
X70450000Y-84740000D03*
D15*
X70450000Y-115220000D03*
X85700000Y-89820000D03*
X85700000Y-97440000D03*
X85700000Y-87280000D03*
X70450000Y-89820000D03*
X70450000Y-107600000D03*
X85700000Y-112680000D03*
X85700000Y-92360000D03*
X70450000Y-94900000D03*
X70450000Y-99980000D03*
X70450000Y-112680000D03*
X85700000Y-117760000D03*
X85700000Y-125380000D03*
X85700000Y-107600000D03*
X85700000Y-120300000D03*
X85700000Y-94900000D03*
X70450000Y-125380000D03*
X85700000Y-105060000D03*
X70450000Y-127920000D03*
X70450000Y-105060000D03*
X70450000Y-92360000D03*
X70450000Y-110140000D03*
X70450000Y-120300000D03*
X70450000Y-122840000D03*
X85700000Y-99980000D03*
X70450000Y-97440000D03*
X70450000Y-102520000D03*
X85700000Y-127920000D03*
X70450000Y-130460000D03*
X70450000Y-133000000D03*
X85700000Y-130460000D03*
X85700000Y-133000000D03*
D18*
X100000000Y-128400000D03*
D19*
X100000000Y-132600000D03*
X100000000Y-130500000D03*
D16*
X98500000Y-121500000D03*
D15*
X98500000Y-118960000D03*
X98500000Y-116420000D03*
X98500000Y-113880000D03*
X98500000Y-111340000D03*
X98500000Y-108800000D03*
D20*
X50000000Y-104920000D02*
X61580000Y-104920000D01*
X61580000Y-104920000D02*
X62500000Y-104000000D01*
X62500000Y-104000000D02*
X62500000Y-82500000D01*
X62500000Y-82500000D02*
X64000000Y-81000000D01*
X64000000Y-81000000D02*
X84000000Y-81000000D01*
X84000000Y-81000000D02*
X85500000Y-82500000D01*
X85500000Y-82500000D02*
X85500000Y-84500000D01*
X70450000Y-127920000D02*
X58580000Y-127920000D01*
X58580000Y-127920000D02*
X57330000Y-127920000D01*
X116500000Y-46000000D02*
X104000000Y-46000000D01*
X100000000Y-50000000D02*
X100000000Y-74000000D01*
X104000000Y-46000000D02*
X100000000Y-50000000D01*
X103000000Y-72500000D02*
X100000000Y-72500000D01*
X100000000Y-72500000D02*
X97000000Y-72500000D01*
X85700000Y-89820000D02*
X100000000Y-89820000D01*
X112500000Y-97500000D02*
X102000000Y-97500000D01*
X100000000Y-95500000D02*
X100000000Y-89820000D01*
X102000000Y-97500000D02*
X100000000Y-95500000D01*
X100000000Y-72500000D02*
X100000000Y-89500000D01*
X70000000Y-54000000D02*
X75000000Y-54000000D01*
X75000000Y-54000000D02*
X76500000Y-52500000D01*
X76500000Y-52500000D02*
X76500000Y-47000000D01*
X60500000Y-54000000D02*
X52000000Y-54000000D01*
X64500000Y-51000000D02*
X64500000Y-54000000D01*
X60500000Y-54000000D02*
X64500000Y-54000000D01*
X64500000Y-54000000D02*
X70000000Y-54000000D01*
X64500000Y-57000000D02*
X64500000Y-54000000D01*
X57000000Y-117770000D02*
X62270000Y-117770000D01*
X50000000Y-125080000D02*
X56920000Y-125080000D01*
X57000000Y-125230000D02*
X57000000Y-118000000D01*
X112500000Y-115000000D02*
X106000000Y-115000000D01*
X105000000Y-114000000D02*
X99500000Y-114000000D01*
X106000000Y-115000000D02*
X105000000Y-114000000D01*
X106000000Y-118000000D02*
X105000000Y-119000000D01*
X112500000Y-118000000D02*
X106000000Y-118000000D01*
X105000000Y-119000000D02*
X99500000Y-119000000D01*
X85700000Y-117760000D02*
X90240000Y-117760000D01*
X90240000Y-117760000D02*
X91500000Y-116500000D01*
X91500000Y-116500000D02*
X98000000Y-116500000D01*
X85700000Y-120300000D02*
X89800000Y-120300000D01*
X89800000Y-120300000D02*
X90300000Y-120300000D01*
X90300000Y-120300000D02*
X91500000Y-121500000D01*
X91500000Y-121500000D02*
X97500000Y-121500000D01*
X50000000Y-110000000D02*
X70500000Y-110000000D01*
X85700000Y-130460000D02*
X99960000Y-130460000D01*
X99960000Y-130460000D02*
X100000000Y-130500000D01*
X100000000Y-132600000D02*
X127400000Y-132600000D01*
X127400000Y-132600000D02*
X131000000Y-129000000D01*
X131000000Y-129000000D02*
X131000000Y-112000000D01*
X131000000Y-112000000D02*
X132500000Y-110500000D01*
X132500000Y-110500000D02*
X137500000Y-110500000D01*
X70450000Y-115220000D02*
X62280000Y-115220000D01*
X62280000Y-115220000D02*
X62000000Y-115500000D01*
X85700000Y-134850000D02*
X87850000Y-137000000D01*
X85700000Y-133000000D02*
X85700000Y-134850000D01*
X87850000Y-137000000D02*
X136500000Y-137000000D01*
X136500000Y-137000000D02*
X138500000Y-135000000D01*
X138500000Y-135000000D02*
X138500000Y-126000000D01*
X70450000Y-133000000D02*
X67950000Y-133000000D01*
X67950000Y-133000000D02*
X66750000Y-133000000D01*
X70450000Y-130460000D02*
X61040000Y-130460000D01*
X70450000Y-130460000D02*
X77210000Y-130460000D01*
X70450000Y-133000000D02*
X73750000Y-133000000D01*
X70450000Y-130460000D02*
X70450000Y-135700000D01*
X85700000Y-87280000D02*
X90220000Y-87280000D01*
X85700000Y-87280000D02*
X81530000Y-87280000D01*
X112500000Y-100040000D02*
X106460000Y-100040000D01*
X112500000Y-100040000D02*
X116960000Y-100040000D01*
X138500000Y-122900000D02*
X141850000Y-122900000D01*
X138500000Y-122900000D02*
X134650000Y-122900000D01*
X51500000Y-59000000D02*
X55000000Y-59000000D01*
X51500000Y-59000000D02*
X48250000Y-59000000D01*
X51500000Y-59000000D02*
X51500000Y-61500000D01*
X98500000Y-108800000D02*
X95300000Y-108800000D01*
X98500000Y-108800000D02*
X101800000Y-108800000D01*
X51000000Y-107460000D02*
X48040000Y-107460000D01*
X88200000Y-107600000D02*
X92100000Y-111500000D01*
X85700000Y-107600000D02*
X88200000Y-107600000D01*
X92100000Y-111500000D02*
X98500000Y-111500000D01*
D21*
X145500001Y-140750000D02*
X46000000Y-140750000D01*
X46000000Y-133362512D01*
X68629867Y-133362512D01*
X68684224Y-133535067D01*
X68810050Y-133742463D01*
X68973919Y-133921326D01*
X69169534Y-134064783D01*
X69389377Y-134167321D01*
X69625000Y-134225000D01*
X70275000Y-134225000D01*
X70275000Y-133175000D01*
X70625000Y-133175000D01*
X70625000Y-134225000D01*
X71275000Y-134225000D01*
X71510623Y-134167321D01*
X71730466Y-134064783D01*
X71926081Y-133921326D01*
X72089950Y-133742463D01*
X72215776Y-133535067D01*
X72270133Y-133362512D01*
X72217632Y-133175000D01*
X70625000Y-133175000D01*
X70275000Y-133175000D01*
X68682368Y-133175000D01*
X68629867Y-133362512D01*
X46000000Y-133362512D01*
X46000000Y-132637488D01*
X68629867Y-132637488D01*
X68682368Y-132825000D01*
X70275000Y-132825000D01*
X70275000Y-131775000D01*
X70625000Y-131775000D01*
X70625000Y-132825000D01*
X72217632Y-132825000D01*
X72270133Y-132637488D01*
X72215776Y-132464933D01*
X72089950Y-132257537D01*
X71926081Y-132078674D01*
X71730466Y-131935217D01*
X71510623Y-131832679D01*
X71275000Y-131775000D01*
X70625000Y-131775000D01*
X70275000Y-131775000D01*
X69625000Y-131775000D01*
X69389377Y-131832679D01*
X69169534Y-131935217D01*
X68973919Y-132078674D01*
X68810050Y-132257537D01*
X68684224Y-132464933D01*
X68629867Y-132637488D01*
X46000000Y-132637488D01*
X46000000Y-130822512D01*
X68629867Y-130822512D01*
X68684224Y-130995067D01*
X68810050Y-131202463D01*
X68973919Y-131381326D01*
X69169534Y-131524783D01*
X69389377Y-131627321D01*
X69625000Y-131685000D01*
X70275000Y-131685000D01*
X70275000Y-130635000D01*
X70625000Y-130635000D01*
X70625000Y-131685000D01*
X71275000Y-131685000D01*
X71510623Y-131627321D01*
X71730466Y-131524783D01*
X71926081Y-131381326D01*
X72089950Y-131202463D01*
X72215776Y-130995067D01*
X72270133Y-130822512D01*
X72217632Y-130635000D01*
X70625000Y-130635000D01*
X70275000Y-130635000D01*
X68682368Y-130635000D01*
X68629867Y-130822512D01*
X46000000Y-130822512D01*
X46000000Y-122540000D01*
X48918106Y-122540000D01*
X48945619Y-122819349D01*
X49027102Y-123087962D01*
X49159424Y-123335518D01*
X49337498Y-123552502D01*
X49554482Y-123730576D01*
X49703073Y-123810000D01*
X49554482Y-123889424D01*
X49337498Y-124067498D01*
X49159424Y-124284482D01*
X49027102Y-124532038D01*
X48945619Y-124800651D01*
X48918106Y-125080000D01*
X48945619Y-125359349D01*
X49027102Y-125627962D01*
X49159424Y-125875518D01*
X49337498Y-126092502D01*
X49554482Y-126270576D01*
X49802038Y-126402898D01*
X50070651Y-126484381D01*
X50280003Y-126505000D01*
X51719997Y-126505000D01*
X51929349Y-126484381D01*
X52197962Y-126402898D01*
X52445518Y-126270576D01*
X52586348Y-126155000D01*
X55614023Y-126155000D01*
X55630592Y-126185998D01*
X55702446Y-126273554D01*
X55790002Y-126345408D01*
X55889892Y-126398801D01*
X55998280Y-126431680D01*
X56111000Y-126442782D01*
X57889000Y-126442782D01*
X58001720Y-126431680D01*
X58110108Y-126398801D01*
X58209998Y-126345408D01*
X58297554Y-126273554D01*
X58369408Y-126185998D01*
X58422801Y-126086108D01*
X58455680Y-125977720D01*
X58466782Y-125865000D01*
X58466782Y-124595000D01*
X58455680Y-124482280D01*
X58422801Y-124373892D01*
X58369408Y-124274002D01*
X58297554Y-124186446D01*
X58209998Y-124114592D01*
X58110108Y-124061199D01*
X58075000Y-124050549D01*
X58075000Y-118949451D01*
X58110108Y-118938801D01*
X58209998Y-118885408D01*
X58259236Y-118845000D01*
X60740764Y-118845000D01*
X60790002Y-118885408D01*
X60889892Y-118938801D01*
X60998280Y-118971680D01*
X61111000Y-118982782D01*
X62889000Y-118982782D01*
X63001720Y-118971680D01*
X63110108Y-118938801D01*
X63209998Y-118885408D01*
X63297554Y-118813554D01*
X63369408Y-118725998D01*
X63422801Y-118626108D01*
X63455680Y-118517720D01*
X63466782Y-118405000D01*
X63466782Y-117135000D01*
X63455680Y-117022280D01*
X63422801Y-116913892D01*
X63369408Y-116814002D01*
X63297554Y-116726446D01*
X63209998Y-116654592D01*
X63110108Y-116601199D01*
X63001720Y-116568320D01*
X62889000Y-116557218D01*
X62218077Y-116557218D01*
X62413375Y-116497975D01*
X62516634Y-116442782D01*
X62889000Y-116442782D01*
X63001720Y-116431680D01*
X63110108Y-116398801D01*
X63209998Y-116345408D01*
X63271421Y-116295000D01*
X68863652Y-116295000D01*
X69004482Y-116410576D01*
X69153073Y-116490000D01*
X69004482Y-116569424D01*
X68787498Y-116747498D01*
X68609424Y-116964482D01*
X68477102Y-117212038D01*
X68395619Y-117480651D01*
X68368106Y-117760000D01*
X68395619Y-118039349D01*
X68477102Y-118307962D01*
X68609424Y-118555518D01*
X68787498Y-118772502D01*
X69004482Y-118950576D01*
X69153073Y-119030000D01*
X69004482Y-119109424D01*
X68787498Y-119287498D01*
X68609424Y-119504482D01*
X68477102Y-119752038D01*
X68395619Y-120020651D01*
X68368106Y-120300000D01*
X68395619Y-120579349D01*
X68477102Y-120847962D01*
X68609424Y-121095518D01*
X68787498Y-121312502D01*
X69004482Y-121490576D01*
X69153073Y-121570000D01*
X69004482Y-121649424D01*
X68787498Y-121827498D01*
X68609424Y-122044482D01*
X68477102Y-122292038D01*
X68395619Y-122560651D01*
X68368106Y-122840000D01*
X68395619Y-123119349D01*
X68477102Y-123387962D01*
X68609424Y-123635518D01*
X68787498Y-123852502D01*
X69004482Y-124030576D01*
X69153073Y-124110000D01*
X69004482Y-124189424D01*
X68787498Y-124367498D01*
X68609424Y-124584482D01*
X68477102Y-124832038D01*
X68395619Y-125100651D01*
X68368106Y-125380000D01*
X68395619Y-125659349D01*
X68477102Y-125927962D01*
X68609424Y-126175518D01*
X68787498Y-126392502D01*
X69004482Y-126570576D01*
X69153073Y-126650000D01*
X69004482Y-126729424D01*
X68863652Y-126845000D01*
X58385977Y-126845000D01*
X58369408Y-126814002D01*
X58297554Y-126726446D01*
X58209998Y-126654592D01*
X58110108Y-126601199D01*
X58001720Y-126568320D01*
X57889000Y-126557218D01*
X56111000Y-126557218D01*
X55998280Y-126568320D01*
X55889892Y-126601199D01*
X55790002Y-126654592D01*
X55702446Y-126726446D01*
X55630592Y-126814002D01*
X55577199Y-126913892D01*
X55544320Y-127022280D01*
X55533218Y-127135000D01*
X55533218Y-128405000D01*
X55544320Y-128517720D01*
X55577199Y-128626108D01*
X55630592Y-128725998D01*
X55702446Y-128813554D01*
X55790002Y-128885408D01*
X55889892Y-128938801D01*
X55998280Y-128971680D01*
X56111000Y-128982782D01*
X57153144Y-128982782D01*
X57277194Y-128995000D01*
X68863652Y-128995000D01*
X69004482Y-129110576D01*
X69252038Y-129242898D01*
X69404190Y-129289053D01*
X69389377Y-129292679D01*
X69169534Y-129395217D01*
X68973919Y-129538674D01*
X68810050Y-129717537D01*
X68684224Y-129924933D01*
X68629867Y-130097488D01*
X68682368Y-130285000D01*
X70275000Y-130285000D01*
X70275000Y-130265000D01*
X70625000Y-130265000D01*
X70625000Y-130285000D01*
X72217632Y-130285000D01*
X72270133Y-130097488D01*
X72215776Y-129924933D01*
X72089950Y-129717537D01*
X71926081Y-129538674D01*
X71730466Y-129395217D01*
X71510623Y-129292679D01*
X71495810Y-129289053D01*
X71647962Y-129242898D01*
X71895518Y-129110576D01*
X72112502Y-128932502D01*
X72290576Y-128715518D01*
X72422898Y-128467962D01*
X72504381Y-128199349D01*
X72531894Y-127920000D01*
X72504381Y-127640651D01*
X72422898Y-127372038D01*
X72290576Y-127124482D01*
X72112502Y-126907498D01*
X71895518Y-126729424D01*
X71746927Y-126650000D01*
X71895518Y-126570576D01*
X72112502Y-126392502D01*
X72290576Y-126175518D01*
X72422898Y-125927962D01*
X72504381Y-125659349D01*
X72531894Y-125380000D01*
X72504381Y-125100651D01*
X72422898Y-124832038D01*
X72290576Y-124584482D01*
X72112502Y-124367498D01*
X71895518Y-124189424D01*
X71746927Y-124110000D01*
X71895518Y-124030576D01*
X72112502Y-123852502D01*
X72290576Y-123635518D01*
X72422898Y-123387962D01*
X72504381Y-123119349D01*
X72531894Y-122840000D01*
X72504381Y-122560651D01*
X72422898Y-122292038D01*
X72290576Y-122044482D01*
X72112502Y-121827498D01*
X71895518Y-121649424D01*
X71746927Y-121570000D01*
X71895518Y-121490576D01*
X72112502Y-121312502D01*
X72290576Y-121095518D01*
X72422898Y-120847962D01*
X72504381Y-120579349D01*
X72531894Y-120300000D01*
X72504381Y-120020651D01*
X72422898Y-119752038D01*
X72290576Y-119504482D01*
X72112502Y-119287498D01*
X71895518Y-119109424D01*
X71746927Y-119030000D01*
X71895518Y-118950576D01*
X72112502Y-118772502D01*
X72290576Y-118555518D01*
X72422898Y-118307962D01*
X72504381Y-118039349D01*
X72531894Y-117760000D01*
X72504381Y-117480651D01*
X72422898Y-117212038D01*
X72290576Y-116964482D01*
X72112502Y-116747498D01*
X71895518Y-116569424D01*
X71746927Y-116490000D01*
X71895518Y-116410576D01*
X72112502Y-116232502D01*
X72290576Y-116015518D01*
X72422898Y-115767962D01*
X72504381Y-115499349D01*
X72531894Y-115220000D01*
X72504381Y-114940651D01*
X72422898Y-114672038D01*
X72290576Y-114424482D01*
X72112502Y-114207498D01*
X71895518Y-114029424D01*
X71746927Y-113950000D01*
X71895518Y-113870576D01*
X72112502Y-113692502D01*
X72290576Y-113475518D01*
X72422898Y-113227962D01*
X72504381Y-112959349D01*
X72531894Y-112680000D01*
X72504381Y-112400651D01*
X72422898Y-112132038D01*
X72290576Y-111884482D01*
X72112502Y-111667498D01*
X71895518Y-111489424D01*
X71746927Y-111410000D01*
X71895518Y-111330576D01*
X72112502Y-111152502D01*
X72290576Y-110935518D01*
X72422898Y-110687962D01*
X72504381Y-110419349D01*
X72531894Y-110140000D01*
X72504381Y-109860651D01*
X72422898Y-109592038D01*
X72290576Y-109344482D01*
X72112502Y-109127498D01*
X71895518Y-108949424D01*
X71746927Y-108870000D01*
X71895518Y-108790576D01*
X72112502Y-108612502D01*
X72290576Y-108395518D01*
X72422898Y-108147962D01*
X72504381Y-107879349D01*
X72531894Y-107600000D01*
X72504381Y-107320651D01*
X72422898Y-107052038D01*
X72290576Y-106804482D01*
X72112502Y-106587498D01*
X71895518Y-106409424D01*
X71746927Y-106330000D01*
X71895518Y-106250576D01*
X72112502Y-106072502D01*
X72290576Y-105855518D01*
X72422898Y-105607962D01*
X72504381Y-105339349D01*
X72531894Y-105060000D01*
X72504381Y-104780651D01*
X72422898Y-104512038D01*
X72290576Y-104264482D01*
X72112502Y-104047498D01*
X71895518Y-103869424D01*
X71746927Y-103790000D01*
X71895518Y-103710576D01*
X72112502Y-103532502D01*
X72290576Y-103315518D01*
X72422898Y-103067962D01*
X72504381Y-102799349D01*
X72531894Y-102520000D01*
X72504381Y-102240651D01*
X72422898Y-101972038D01*
X72290576Y-101724482D01*
X72112502Y-101507498D01*
X71895518Y-101329424D01*
X71746927Y-101250000D01*
X71895518Y-101170576D01*
X72112502Y-100992502D01*
X72290576Y-100775518D01*
X72422898Y-100527962D01*
X72504381Y-100259349D01*
X72531894Y-99980000D01*
X72504381Y-99700651D01*
X72422898Y-99432038D01*
X72290576Y-99184482D01*
X72112502Y-98967498D01*
X71895518Y-98789424D01*
X71746927Y-98710000D01*
X71895518Y-98630576D01*
X72112502Y-98452502D01*
X72290576Y-98235518D01*
X72422898Y-97987962D01*
X72504381Y-97719349D01*
X72531894Y-97440000D01*
X72504381Y-97160651D01*
X72422898Y-96892038D01*
X72290576Y-96644482D01*
X72112502Y-96427498D01*
X71895518Y-96249424D01*
X71746927Y-96170000D01*
X71895518Y-96090576D01*
X72112502Y-95912502D01*
X72290576Y-95695518D01*
X72422898Y-95447962D01*
X72504381Y-95179349D01*
X72531894Y-94900000D01*
X72504381Y-94620651D01*
X72422898Y-94352038D01*
X72290576Y-94104482D01*
X72112502Y-93887498D01*
X71895518Y-93709424D01*
X71746927Y-93630000D01*
X71895518Y-93550576D01*
X72112502Y-93372502D01*
X72290576Y-93155518D01*
X72422898Y-92907962D01*
X72504381Y-92639349D01*
X72531894Y-92360000D01*
X72504381Y-92080651D01*
X72422898Y-91812038D01*
X72290576Y-91564482D01*
X72112502Y-91347498D01*
X71895518Y-91169424D01*
X71746927Y-91090000D01*
X71895518Y-91010576D01*
X72112502Y-90832502D01*
X72290576Y-90615518D01*
X72422898Y-90367962D01*
X72504381Y-90099349D01*
X72531894Y-89820000D01*
X83618106Y-89820000D01*
X83645619Y-90099349D01*
X83727102Y-90367962D01*
X83859424Y-90615518D01*
X84037498Y-90832502D01*
X84254482Y-91010576D01*
X84403073Y-91090000D01*
X84254482Y-91169424D01*
X84037498Y-91347498D01*
X83859424Y-91564482D01*
X83727102Y-91812038D01*
X83645619Y-92080651D01*
X83618106Y-92360000D01*
X83645619Y-92639349D01*
X83727102Y-92907962D01*
X83859424Y-93155518D01*
X84037498Y-93372502D01*
X84254482Y-93550576D01*
X84403073Y-93630000D01*
X84254482Y-93709424D01*
X84037498Y-93887498D01*
X83859424Y-94104482D01*
X83727102Y-94352038D01*
X83645619Y-94620651D01*
X83618106Y-94900000D01*
X83645619Y-95179349D01*
X83727102Y-95447962D01*
X83859424Y-95695518D01*
X84037498Y-95912502D01*
X84254482Y-96090576D01*
X84403073Y-96170000D01*
X84254482Y-96249424D01*
X84037498Y-96427498D01*
X83859424Y-96644482D01*
X83727102Y-96892038D01*
X83645619Y-97160651D01*
X83618106Y-97440000D01*
X83645619Y-97719349D01*
X83727102Y-97987962D01*
X83859424Y-98235518D01*
X84037498Y-98452502D01*
X84254482Y-98630576D01*
X84403073Y-98710000D01*
X84254482Y-98789424D01*
X84037498Y-98967498D01*
X83859424Y-99184482D01*
X83727102Y-99432038D01*
X83645619Y-99700651D01*
X83618106Y-99980000D01*
X83645619Y-100259349D01*
X83727102Y-100527962D01*
X83859424Y-100775518D01*
X84037498Y-100992502D01*
X84254482Y-101170576D01*
X84403073Y-101250000D01*
X84254482Y-101329424D01*
X84037498Y-101507498D01*
X83859424Y-101724482D01*
X83727102Y-101972038D01*
X83645619Y-102240651D01*
X83618106Y-102520000D01*
X83645619Y-102799349D01*
X83727102Y-103067962D01*
X83859424Y-103315518D01*
X84037498Y-103532502D01*
X84254482Y-103710576D01*
X84403073Y-103790000D01*
X84254482Y-103869424D01*
X84037498Y-104047498D01*
X83859424Y-104264482D01*
X83727102Y-104512038D01*
X83645619Y-104780651D01*
X83618106Y-105060000D01*
X83645619Y-105339349D01*
X83727102Y-105607962D01*
X83859424Y-105855518D01*
X84037498Y-106072502D01*
X84254482Y-106250576D01*
X84403073Y-106330000D01*
X84254482Y-106409424D01*
X84037498Y-106587498D01*
X83859424Y-106804482D01*
X83727102Y-107052038D01*
X83645619Y-107320651D01*
X83618106Y-107600000D01*
X83645619Y-107879349D01*
X83727102Y-108147962D01*
X83859424Y-108395518D01*
X84037498Y-108612502D01*
X84254482Y-108790576D01*
X84403073Y-108870000D01*
X84254482Y-108949424D01*
X84037498Y-109127498D01*
X83859424Y-109344482D01*
X83727102Y-109592038D01*
X83645619Y-109860651D01*
X83618106Y-110140000D01*
X83645619Y-110419349D01*
X83727102Y-110687962D01*
X83859424Y-110935518D01*
X84037498Y-111152502D01*
X84254482Y-111330576D01*
X84403073Y-111410000D01*
X84254482Y-111489424D01*
X84037498Y-111667498D01*
X83859424Y-111884482D01*
X83727102Y-112132038D01*
X83645619Y-112400651D01*
X83618106Y-112680000D01*
X83645619Y-112959349D01*
X83727102Y-113227962D01*
X83859424Y-113475518D01*
X84037498Y-113692502D01*
X84254482Y-113870576D01*
X84403073Y-113950000D01*
X84254482Y-114029424D01*
X84037498Y-114207498D01*
X83859424Y-114424482D01*
X83727102Y-114672038D01*
X83645619Y-114940651D01*
X83618106Y-115220000D01*
X83645619Y-115499349D01*
X83727102Y-115767962D01*
X83859424Y-116015518D01*
X84037498Y-116232502D01*
X84254482Y-116410576D01*
X84403073Y-116490000D01*
X84254482Y-116569424D01*
X84037498Y-116747498D01*
X83859424Y-116964482D01*
X83727102Y-117212038D01*
X83645619Y-117480651D01*
X83618106Y-117760000D01*
X83645619Y-118039349D01*
X83727102Y-118307962D01*
X83859424Y-118555518D01*
X84037498Y-118772502D01*
X84254482Y-118950576D01*
X84403073Y-119030000D01*
X84254482Y-119109424D01*
X84037498Y-119287498D01*
X83859424Y-119504482D01*
X83727102Y-119752038D01*
X83645619Y-120020651D01*
X83618106Y-120300000D01*
X83645619Y-120579349D01*
X83727102Y-120847962D01*
X83859424Y-121095518D01*
X84037498Y-121312502D01*
X84254482Y-121490576D01*
X84403073Y-121570000D01*
X84254482Y-121649424D01*
X84037498Y-121827498D01*
X83859424Y-122044482D01*
X83727102Y-122292038D01*
X83645619Y-122560651D01*
X83618106Y-122840000D01*
X83645619Y-123119349D01*
X83727102Y-123387962D01*
X83859424Y-123635518D01*
X84037498Y-123852502D01*
X84254482Y-124030576D01*
X84403073Y-124110000D01*
X84254482Y-124189424D01*
X84037498Y-124367498D01*
X83859424Y-124584482D01*
X83727102Y-124832038D01*
X83645619Y-125100651D01*
X83618106Y-125380000D01*
X83645619Y-125659349D01*
X83727102Y-125927962D01*
X83859424Y-126175518D01*
X84037498Y-126392502D01*
X84254482Y-126570576D01*
X84403073Y-126650000D01*
X84254482Y-126729424D01*
X84037498Y-126907498D01*
X83859424Y-127124482D01*
X83727102Y-127372038D01*
X83645619Y-127640651D01*
X83618106Y-127920000D01*
X83645619Y-128199349D01*
X83727102Y-128467962D01*
X83859424Y-128715518D01*
X84037498Y-128932502D01*
X84254482Y-129110576D01*
X84403073Y-129190000D01*
X84254482Y-129269424D01*
X84037498Y-129447498D01*
X83859424Y-129664482D01*
X83727102Y-129912038D01*
X83645619Y-130180651D01*
X83618106Y-130460000D01*
X83645619Y-130739349D01*
X83727102Y-131007962D01*
X83859424Y-131255518D01*
X84037498Y-131472502D01*
X84254482Y-131650576D01*
X84403073Y-131730000D01*
X84254482Y-131809424D01*
X84037498Y-131987498D01*
X83859424Y-132204482D01*
X83727102Y-132452038D01*
X83645619Y-132720651D01*
X83618106Y-133000000D01*
X83645619Y-133279349D01*
X83727102Y-133547962D01*
X83859424Y-133795518D01*
X84037498Y-134012502D01*
X84254482Y-134190576D01*
X84502038Y-134322898D01*
X84625001Y-134360198D01*
X84625001Y-134797192D01*
X84619800Y-134850000D01*
X84640555Y-135060736D01*
X84702025Y-135263375D01*
X84801846Y-135450127D01*
X84902521Y-135572800D01*
X84902527Y-135572806D01*
X84936184Y-135613817D01*
X84977195Y-135647474D01*
X87052525Y-137722805D01*
X87086183Y-137763817D01*
X87127194Y-137797474D01*
X87127199Y-137797479D01*
X87249872Y-137898154D01*
X87436625Y-137997976D01*
X87639263Y-138059445D01*
X87797194Y-138075000D01*
X87797201Y-138075000D01*
X87849999Y-138080200D01*
X87902797Y-138075000D01*
X136447202Y-138075000D01*
X136500000Y-138080200D01*
X136552798Y-138075000D01*
X136552806Y-138075000D01*
X136710737Y-138059445D01*
X136913375Y-137997976D01*
X137100128Y-137898154D01*
X137263817Y-137763817D01*
X137297479Y-137722800D01*
X139222805Y-135797475D01*
X139263817Y-135763817D01*
X139297474Y-135722806D01*
X139297479Y-135722801D01*
X139398154Y-135600128D01*
X139478331Y-135450128D01*
X139497976Y-135413375D01*
X139559445Y-135210737D01*
X139575000Y-135052806D01*
X139575000Y-135052799D01*
X139580200Y-135000001D01*
X139575000Y-134947203D01*
X139575000Y-126800198D01*
X139697962Y-126762898D01*
X139945518Y-126630576D01*
X140162502Y-126452502D01*
X140340576Y-126235518D01*
X140472898Y-125987962D01*
X140554381Y-125719349D01*
X140581894Y-125440000D01*
X140554381Y-125160651D01*
X140472898Y-124892038D01*
X140340576Y-124644482D01*
X140162502Y-124427498D01*
X139945518Y-124249424D01*
X139697962Y-124117102D01*
X139545810Y-124070947D01*
X139560623Y-124067321D01*
X139780466Y-123964783D01*
X139976081Y-123821326D01*
X140139950Y-123642463D01*
X140265776Y-123435067D01*
X140320133Y-123262512D01*
X140267632Y-123075000D01*
X138675000Y-123075000D01*
X138675000Y-123095000D01*
X138325000Y-123095000D01*
X138325000Y-123075000D01*
X136732368Y-123075000D01*
X136679867Y-123262512D01*
X136734224Y-123435067D01*
X136860050Y-123642463D01*
X137023919Y-123821326D01*
X137219534Y-123964783D01*
X137439377Y-124067321D01*
X137454190Y-124070947D01*
X137302038Y-124117102D01*
X137054482Y-124249424D01*
X136837498Y-124427498D01*
X136659424Y-124644482D01*
X136527102Y-124892038D01*
X136445619Y-125160651D01*
X136418106Y-125440000D01*
X136445619Y-125719349D01*
X136527102Y-125987962D01*
X136659424Y-126235518D01*
X136837498Y-126452502D01*
X137054482Y-126630576D01*
X137302038Y-126762898D01*
X137425001Y-126800198D01*
X137425000Y-134554720D01*
X136054721Y-135925000D01*
X88295280Y-135925000D01*
X86775000Y-134404721D01*
X86775000Y-134360198D01*
X86897962Y-134322898D01*
X87145518Y-134190576D01*
X87362502Y-134012502D01*
X87540576Y-133795518D01*
X87672898Y-133547962D01*
X87754381Y-133279349D01*
X87781894Y-133000000D01*
X87754381Y-132720651D01*
X87672898Y-132452038D01*
X87540576Y-132204482D01*
X87362502Y-131987498D01*
X87145518Y-131809424D01*
X86996927Y-131730000D01*
X87145518Y-131650576D01*
X87286348Y-131535000D01*
X98897556Y-131535000D01*
X98947004Y-131550000D01*
X98852012Y-131578816D01*
X98660916Y-131680958D01*
X98493419Y-131818419D01*
X98355958Y-131985916D01*
X98253816Y-132177012D01*
X98190916Y-132384362D01*
X98169678Y-132600000D01*
X98190916Y-132815638D01*
X98253816Y-133022988D01*
X98355958Y-133214084D01*
X98493419Y-133381581D01*
X98660916Y-133519042D01*
X98852012Y-133621184D01*
X99059362Y-133684084D01*
X99220964Y-133700000D01*
X100779036Y-133700000D01*
X100940638Y-133684084D01*
X100970583Y-133675000D01*
X127347202Y-133675000D01*
X127400000Y-133680200D01*
X127452798Y-133675000D01*
X127452806Y-133675000D01*
X127610737Y-133659445D01*
X127813375Y-133597976D01*
X128000128Y-133498154D01*
X128163817Y-133363817D01*
X128197479Y-133322800D01*
X131722805Y-129797475D01*
X131763817Y-129763817D01*
X131797474Y-129722806D01*
X131797479Y-129722801D01*
X131898154Y-129600128D01*
X131971972Y-129462024D01*
X131997976Y-129413375D01*
X132059445Y-129210737D01*
X132075000Y-129052806D01*
X132075000Y-129052798D01*
X132080200Y-129000000D01*
X132075000Y-128947202D01*
X132075000Y-112445279D01*
X132945280Y-111575000D01*
X137023318Y-111575000D01*
X136837498Y-111727498D01*
X136659424Y-111944482D01*
X136527102Y-112192038D01*
X136445619Y-112460651D01*
X136418106Y-112740000D01*
X136445619Y-113019349D01*
X136527102Y-113287962D01*
X136659424Y-113535518D01*
X136837498Y-113752502D01*
X137054482Y-113930576D01*
X137203073Y-114010000D01*
X137054482Y-114089424D01*
X136837498Y-114267498D01*
X136659424Y-114484482D01*
X136527102Y-114732038D01*
X136445619Y-115000651D01*
X136418106Y-115280000D01*
X136445619Y-115559349D01*
X136527102Y-115827962D01*
X136659424Y-116075518D01*
X136837498Y-116292502D01*
X137054482Y-116470576D01*
X137203073Y-116550000D01*
X137054482Y-116629424D01*
X136837498Y-116807498D01*
X136659424Y-117024482D01*
X136527102Y-117272038D01*
X136445619Y-117540651D01*
X136418106Y-117820000D01*
X136445619Y-118099349D01*
X136527102Y-118367962D01*
X136659424Y-118615518D01*
X136837498Y-118832502D01*
X137054482Y-119010576D01*
X137203073Y-119090000D01*
X137054482Y-119169424D01*
X136837498Y-119347498D01*
X136659424Y-119564482D01*
X136527102Y-119812038D01*
X136445619Y-120080651D01*
X136418106Y-120360000D01*
X136445619Y-120639349D01*
X136527102Y-120907962D01*
X136659424Y-121155518D01*
X136837498Y-121372502D01*
X137054482Y-121550576D01*
X137302038Y-121682898D01*
X137454190Y-121729053D01*
X137439377Y-121732679D01*
X137219534Y-121835217D01*
X137023919Y-121978674D01*
X136860050Y-122157537D01*
X136734224Y-122364933D01*
X136679867Y-122537488D01*
X136732368Y-122725000D01*
X138325000Y-122725000D01*
X138325000Y-122705000D01*
X138675000Y-122705000D01*
X138675000Y-122725000D01*
X140267632Y-122725000D01*
X140320133Y-122537488D01*
X140265776Y-122364933D01*
X140139950Y-122157537D01*
X139976081Y-121978674D01*
X139780466Y-121835217D01*
X139560623Y-121732679D01*
X139545810Y-121729053D01*
X139697962Y-121682898D01*
X139945518Y-121550576D01*
X140162502Y-121372502D01*
X140340576Y-121155518D01*
X140472898Y-120907962D01*
X140554381Y-120639349D01*
X140581894Y-120360000D01*
X140554381Y-120080651D01*
X140472898Y-119812038D01*
X140340576Y-119564482D01*
X140162502Y-119347498D01*
X139945518Y-119169424D01*
X139796927Y-119090000D01*
X139945518Y-119010576D01*
X140162502Y-118832502D01*
X140340576Y-118615518D01*
X140472898Y-118367962D01*
X140554381Y-118099349D01*
X140581894Y-117820000D01*
X140554381Y-117540651D01*
X140472898Y-117272038D01*
X140340576Y-117024482D01*
X140162502Y-116807498D01*
X139945518Y-116629424D01*
X139796927Y-116550000D01*
X139945518Y-116470576D01*
X140162502Y-116292502D01*
X140340576Y-116075518D01*
X140472898Y-115827962D01*
X140554381Y-115559349D01*
X140581894Y-115280000D01*
X140554381Y-115000651D01*
X140472898Y-114732038D01*
X140340576Y-114484482D01*
X140162502Y-114267498D01*
X139945518Y-114089424D01*
X139796927Y-114010000D01*
X139945518Y-113930576D01*
X140162502Y-113752502D01*
X140340576Y-113535518D01*
X140472898Y-113287962D01*
X140554381Y-113019349D01*
X140581894Y-112740000D01*
X140554381Y-112460651D01*
X140472898Y-112192038D01*
X140340576Y-111944482D01*
X140162502Y-111727498D01*
X139945518Y-111549424D01*
X139796927Y-111470000D01*
X139945518Y-111390576D01*
X140162502Y-111212502D01*
X140340576Y-110995518D01*
X140472898Y-110747962D01*
X140554381Y-110479349D01*
X140581894Y-110200000D01*
X140554381Y-109920651D01*
X140472898Y-109652038D01*
X140340576Y-109404482D01*
X140162502Y-109187498D01*
X139945518Y-109009424D01*
X139796927Y-108930000D01*
X139945518Y-108850576D01*
X140162502Y-108672502D01*
X140340576Y-108455518D01*
X140472898Y-108207962D01*
X140554381Y-107939349D01*
X140581894Y-107660000D01*
X140554381Y-107380651D01*
X140472898Y-107112038D01*
X140340576Y-106864482D01*
X140162502Y-106647498D01*
X139945518Y-106469424D01*
X139796927Y-106390000D01*
X139945518Y-106310576D01*
X140162502Y-106132502D01*
X140340576Y-105915518D01*
X140472898Y-105667962D01*
X140554381Y-105399349D01*
X140581894Y-105120000D01*
X140554381Y-104840651D01*
X140472898Y-104572038D01*
X140340576Y-104324482D01*
X140162502Y-104107498D01*
X139945518Y-103929424D01*
X139796927Y-103850000D01*
X139945518Y-103770576D01*
X140162502Y-103592502D01*
X140340576Y-103375518D01*
X140472898Y-103127962D01*
X140554381Y-102859349D01*
X140581894Y-102580000D01*
X140554381Y-102300651D01*
X140472898Y-102032038D01*
X140340576Y-101784482D01*
X140162502Y-101567498D01*
X139945518Y-101389424D01*
X139796927Y-101310000D01*
X139945518Y-101230576D01*
X140162502Y-101052502D01*
X140340576Y-100835518D01*
X140472898Y-100587962D01*
X140554381Y-100319349D01*
X140581894Y-100040000D01*
X140554381Y-99760651D01*
X140472898Y-99492038D01*
X140340576Y-99244482D01*
X140162502Y-99027498D01*
X139945518Y-98849424D01*
X139796927Y-98770000D01*
X139945518Y-98690576D01*
X140162502Y-98512502D01*
X140340576Y-98295518D01*
X140472898Y-98047962D01*
X140554381Y-97779349D01*
X140581894Y-97500000D01*
X140554381Y-97220651D01*
X140472898Y-96952038D01*
X140340576Y-96704482D01*
X140162502Y-96487498D01*
X139945518Y-96309424D01*
X139697962Y-96177102D01*
X139429349Y-96095619D01*
X139219997Y-96075000D01*
X137780003Y-96075000D01*
X137570651Y-96095619D01*
X137302038Y-96177102D01*
X137054482Y-96309424D01*
X136837498Y-96487498D01*
X136659424Y-96704482D01*
X136527102Y-96952038D01*
X136445619Y-97220651D01*
X136418106Y-97500000D01*
X136445619Y-97779349D01*
X136527102Y-98047962D01*
X136659424Y-98295518D01*
X136837498Y-98512502D01*
X137054482Y-98690576D01*
X137203073Y-98770000D01*
X137054482Y-98849424D01*
X136837498Y-99027498D01*
X136659424Y-99244482D01*
X136527102Y-99492038D01*
X136445619Y-99760651D01*
X136418106Y-100040000D01*
X136445619Y-100319349D01*
X136527102Y-100587962D01*
X136659424Y-100835518D01*
X136837498Y-101052502D01*
X137054482Y-101230576D01*
X137203073Y-101310000D01*
X137054482Y-101389424D01*
X136837498Y-101567498D01*
X136659424Y-101784482D01*
X136527102Y-102032038D01*
X136445619Y-102300651D01*
X136418106Y-102580000D01*
X136445619Y-102859349D01*
X136527102Y-103127962D01*
X136659424Y-103375518D01*
X136837498Y-103592502D01*
X137054482Y-103770576D01*
X137203073Y-103850000D01*
X137054482Y-103929424D01*
X136837498Y-104107498D01*
X136659424Y-104324482D01*
X136527102Y-104572038D01*
X136445619Y-104840651D01*
X136418106Y-105120000D01*
X136445619Y-105399349D01*
X136527102Y-105667962D01*
X136659424Y-105915518D01*
X136837498Y-106132502D01*
X137054482Y-106310576D01*
X137203073Y-106390000D01*
X137054482Y-106469424D01*
X136837498Y-106647498D01*
X136659424Y-106864482D01*
X136527102Y-107112038D01*
X136445619Y-107380651D01*
X136418106Y-107660000D01*
X136445619Y-107939349D01*
X136527102Y-108207962D01*
X136659424Y-108455518D01*
X136837498Y-108672502D01*
X137054482Y-108850576D01*
X137203073Y-108930000D01*
X137054482Y-109009424D01*
X136837498Y-109187498D01*
X136659424Y-109404482D01*
X136648457Y-109425000D01*
X132552797Y-109425000D01*
X132499999Y-109419800D01*
X132447201Y-109425000D01*
X132447194Y-109425000D01*
X132289263Y-109440555D01*
X132086625Y-109502024D01*
X131928348Y-109586625D01*
X131899872Y-109601846D01*
X131777199Y-109702521D01*
X131777194Y-109702526D01*
X131736183Y-109736183D01*
X131702525Y-109777195D01*
X130277195Y-111202526D01*
X130236184Y-111236183D01*
X130202527Y-111277194D01*
X130202521Y-111277200D01*
X130101846Y-111399873D01*
X130002025Y-111586625D01*
X129940555Y-111789264D01*
X129919800Y-112000000D01*
X129925001Y-112052808D01*
X129925000Y-128554720D01*
X126954721Y-131525000D01*
X101135409Y-131525000D01*
X101147988Y-131521184D01*
X101339084Y-131419042D01*
X101506581Y-131281581D01*
X101644042Y-131114084D01*
X101746184Y-130922988D01*
X101809084Y-130715638D01*
X101830322Y-130500000D01*
X101809084Y-130284362D01*
X101746184Y-130077012D01*
X101644042Y-129885916D01*
X101506581Y-129718419D01*
X101339084Y-129580958D01*
X101147988Y-129478816D01*
X100940638Y-129415916D01*
X100779036Y-129400000D01*
X100165102Y-129400000D01*
X100012806Y-129385000D01*
X100012798Y-129385000D01*
X99960000Y-129379800D01*
X99907202Y-129385000D01*
X87286348Y-129385000D01*
X87145518Y-129269424D01*
X86996927Y-129190000D01*
X87145518Y-129110576D01*
X87362502Y-128932502D01*
X87368658Y-128925000D01*
X98373186Y-128925000D01*
X98380426Y-128998513D01*
X98401869Y-129069200D01*
X98436691Y-129134347D01*
X98483552Y-129191448D01*
X98540653Y-129238309D01*
X98605800Y-129273131D01*
X98676487Y-129294574D01*
X98750000Y-129301814D01*
X99731250Y-129300000D01*
X99825000Y-129206250D01*
X99825000Y-128575000D01*
X100175000Y-128575000D01*
X100175000Y-129206250D01*
X100268750Y-129300000D01*
X101250000Y-129301814D01*
X101323513Y-129294574D01*
X101394200Y-129273131D01*
X101459347Y-129238309D01*
X101516448Y-129191448D01*
X101563309Y-129134347D01*
X101598131Y-129069200D01*
X101619574Y-128998513D01*
X101626814Y-128925000D01*
X101625000Y-128668750D01*
X101531250Y-128575000D01*
X100175000Y-128575000D01*
X99825000Y-128575000D01*
X98468750Y-128575000D01*
X98375000Y-128668750D01*
X98373186Y-128925000D01*
X87368658Y-128925000D01*
X87540576Y-128715518D01*
X87672898Y-128467962D01*
X87754381Y-128199349D01*
X87781894Y-127920000D01*
X87777462Y-127875000D01*
X98373186Y-127875000D01*
X98375000Y-128131250D01*
X98468750Y-128225000D01*
X99825000Y-128225000D01*
X99825000Y-127593750D01*
X100175000Y-127593750D01*
X100175000Y-128225000D01*
X101531250Y-128225000D01*
X101625000Y-128131250D01*
X101626814Y-127875000D01*
X101619574Y-127801487D01*
X101598131Y-127730800D01*
X101563309Y-127665653D01*
X101516448Y-127608552D01*
X101459347Y-127561691D01*
X101394200Y-127526869D01*
X101323513Y-127505426D01*
X101250000Y-127498186D01*
X100268750Y-127500000D01*
X100175000Y-127593750D01*
X99825000Y-127593750D01*
X99731250Y-127500000D01*
X98750000Y-127498186D01*
X98676487Y-127505426D01*
X98605800Y-127526869D01*
X98540653Y-127561691D01*
X98483552Y-127608552D01*
X98436691Y-127665653D01*
X98401869Y-127730800D01*
X98380426Y-127801487D01*
X98373186Y-127875000D01*
X87777462Y-127875000D01*
X87754381Y-127640651D01*
X87672898Y-127372038D01*
X87540576Y-127124482D01*
X87362502Y-126907498D01*
X87145518Y-126729424D01*
X86996927Y-126650000D01*
X87145518Y-126570576D01*
X87362502Y-126392502D01*
X87540576Y-126175518D01*
X87672898Y-125927962D01*
X87754381Y-125659349D01*
X87781894Y-125380000D01*
X87754381Y-125100651D01*
X87672898Y-124832038D01*
X87540576Y-124584482D01*
X87362502Y-124367498D01*
X87145518Y-124189424D01*
X86996927Y-124110000D01*
X87145518Y-124030576D01*
X87362502Y-123852502D01*
X87540576Y-123635518D01*
X87672898Y-123387962D01*
X87754381Y-123119349D01*
X87781894Y-122840000D01*
X87754381Y-122560651D01*
X87672898Y-122292038D01*
X87540576Y-122044482D01*
X87362502Y-121827498D01*
X87145518Y-121649424D01*
X86996927Y-121570000D01*
X87145518Y-121490576D01*
X87286348Y-121375000D01*
X89854721Y-121375000D01*
X90702525Y-122222805D01*
X90736183Y-122263817D01*
X90777194Y-122297474D01*
X90777199Y-122297479D01*
X90859392Y-122364933D01*
X90899872Y-122398154D01*
X91086625Y-122497976D01*
X91289263Y-122559445D01*
X91447194Y-122575000D01*
X91447201Y-122575000D01*
X91499999Y-122580200D01*
X91552797Y-122575000D01*
X96468279Y-122575000D01*
X96519592Y-122670998D01*
X96591446Y-122758554D01*
X96679002Y-122830408D01*
X96778892Y-122883801D01*
X96887280Y-122916680D01*
X97000000Y-122927782D01*
X100000000Y-122927782D01*
X100112720Y-122916680D01*
X100221108Y-122883801D01*
X100320998Y-122830408D01*
X100408554Y-122758554D01*
X100480408Y-122670998D01*
X100533801Y-122571108D01*
X100566680Y-122462720D01*
X100577782Y-122350000D01*
X100577782Y-120650000D01*
X100566680Y-120537280D01*
X100533801Y-120428892D01*
X100480408Y-120329002D01*
X100408554Y-120241446D01*
X100320998Y-120169592D01*
X100221108Y-120116199D01*
X100112720Y-120083320D01*
X100036605Y-120075823D01*
X100037608Y-120075000D01*
X104947202Y-120075000D01*
X105000000Y-120080200D01*
X105052798Y-120075000D01*
X105052806Y-120075000D01*
X105210737Y-120059445D01*
X105413375Y-119997976D01*
X105600128Y-119898154D01*
X105763817Y-119763817D01*
X105797479Y-119722800D01*
X106445279Y-119075000D01*
X111175010Y-119075000D01*
X111203073Y-119090000D01*
X111054482Y-119169424D01*
X110837498Y-119347498D01*
X110659424Y-119564482D01*
X110527102Y-119812038D01*
X110445619Y-120080651D01*
X110418106Y-120360000D01*
X110445619Y-120639349D01*
X110527102Y-120907962D01*
X110659424Y-121155518D01*
X110837498Y-121372502D01*
X111054482Y-121550576D01*
X111203073Y-121630000D01*
X111054482Y-121709424D01*
X110837498Y-121887498D01*
X110659424Y-122104482D01*
X110527102Y-122352038D01*
X110445619Y-122620651D01*
X110418106Y-122900000D01*
X110445619Y-123179349D01*
X110527102Y-123447962D01*
X110659424Y-123695518D01*
X110837498Y-123912502D01*
X111054482Y-124090576D01*
X111203073Y-124170000D01*
X111054482Y-124249424D01*
X110837498Y-124427498D01*
X110659424Y-124644482D01*
X110527102Y-124892038D01*
X110445619Y-125160651D01*
X110418106Y-125440000D01*
X110445619Y-125719349D01*
X110527102Y-125987962D01*
X110659424Y-126235518D01*
X110837498Y-126452502D01*
X111054482Y-126630576D01*
X111302038Y-126762898D01*
X111570651Y-126844381D01*
X111780003Y-126865000D01*
X113219997Y-126865000D01*
X113429349Y-126844381D01*
X113697962Y-126762898D01*
X113945518Y-126630576D01*
X114162502Y-126452502D01*
X114340576Y-126235518D01*
X114472898Y-125987962D01*
X114554381Y-125719349D01*
X114581894Y-125440000D01*
X114554381Y-125160651D01*
X114472898Y-124892038D01*
X114340576Y-124644482D01*
X114162502Y-124427498D01*
X113945518Y-124249424D01*
X113796927Y-124170000D01*
X113945518Y-124090576D01*
X114162502Y-123912502D01*
X114340576Y-123695518D01*
X114472898Y-123447962D01*
X114554381Y-123179349D01*
X114581894Y-122900000D01*
X114554381Y-122620651D01*
X114472898Y-122352038D01*
X114340576Y-122104482D01*
X114162502Y-121887498D01*
X113945518Y-121709424D01*
X113796927Y-121630000D01*
X113945518Y-121550576D01*
X114162502Y-121372502D01*
X114340576Y-121155518D01*
X114472898Y-120907962D01*
X114554381Y-120639349D01*
X114581894Y-120360000D01*
X114554381Y-120080651D01*
X114472898Y-119812038D01*
X114340576Y-119564482D01*
X114162502Y-119347498D01*
X113945518Y-119169424D01*
X113796927Y-119090000D01*
X113945518Y-119010576D01*
X114162502Y-118832502D01*
X114340576Y-118615518D01*
X114472898Y-118367962D01*
X114554381Y-118099349D01*
X114581894Y-117820000D01*
X114554381Y-117540651D01*
X114472898Y-117272038D01*
X114340576Y-117024482D01*
X114162502Y-116807498D01*
X113945518Y-116629424D01*
X113796927Y-116550000D01*
X113945518Y-116470576D01*
X114162502Y-116292502D01*
X114340576Y-116075518D01*
X114472898Y-115827962D01*
X114554381Y-115559349D01*
X114581894Y-115280000D01*
X114554381Y-115000651D01*
X114472898Y-114732038D01*
X114340576Y-114484482D01*
X114162502Y-114267498D01*
X113945518Y-114089424D01*
X113796927Y-114010000D01*
X113945518Y-113930576D01*
X114162502Y-113752502D01*
X114340576Y-113535518D01*
X114472898Y-113287962D01*
X114554381Y-113019349D01*
X114581894Y-112740000D01*
X114554381Y-112460651D01*
X114472898Y-112192038D01*
X114340576Y-111944482D01*
X114162502Y-111727498D01*
X113945518Y-111549424D01*
X113796927Y-111470000D01*
X113945518Y-111390576D01*
X114162502Y-111212502D01*
X114340576Y-110995518D01*
X114472898Y-110747962D01*
X114554381Y-110479349D01*
X114581894Y-110200000D01*
X114554381Y-109920651D01*
X114472898Y-109652038D01*
X114340576Y-109404482D01*
X114162502Y-109187498D01*
X113945518Y-109009424D01*
X113796927Y-108930000D01*
X113945518Y-108850576D01*
X114162502Y-108672502D01*
X114340576Y-108455518D01*
X114472898Y-108207962D01*
X114554381Y-107939349D01*
X114581894Y-107660000D01*
X114554381Y-107380651D01*
X114472898Y-107112038D01*
X114340576Y-106864482D01*
X114162502Y-106647498D01*
X113945518Y-106469424D01*
X113796927Y-106390000D01*
X113945518Y-106310576D01*
X114162502Y-106132502D01*
X114340576Y-105915518D01*
X114472898Y-105667962D01*
X114554381Y-105399349D01*
X114581894Y-105120000D01*
X114554381Y-104840651D01*
X114472898Y-104572038D01*
X114340576Y-104324482D01*
X114162502Y-104107498D01*
X113945518Y-103929424D01*
X113796927Y-103850000D01*
X113945518Y-103770576D01*
X114162502Y-103592502D01*
X114340576Y-103375518D01*
X114472898Y-103127962D01*
X114554381Y-102859349D01*
X114581894Y-102580000D01*
X114554381Y-102300651D01*
X114472898Y-102032038D01*
X114340576Y-101784482D01*
X114162502Y-101567498D01*
X113945518Y-101389424D01*
X113697962Y-101257102D01*
X113545810Y-101210947D01*
X113560623Y-101207321D01*
X113780466Y-101104783D01*
X113976081Y-100961326D01*
X114139950Y-100782463D01*
X114265776Y-100575067D01*
X114320133Y-100402512D01*
X114267632Y-100215000D01*
X112675000Y-100215000D01*
X112675000Y-100235000D01*
X112325000Y-100235000D01*
X112325000Y-100215000D01*
X110732368Y-100215000D01*
X110679867Y-100402512D01*
X110734224Y-100575067D01*
X110860050Y-100782463D01*
X111023919Y-100961326D01*
X111219534Y-101104783D01*
X111439377Y-101207321D01*
X111454190Y-101210947D01*
X111302038Y-101257102D01*
X111054482Y-101389424D01*
X110837498Y-101567498D01*
X110659424Y-101784482D01*
X110527102Y-102032038D01*
X110445619Y-102300651D01*
X110418106Y-102580000D01*
X110445619Y-102859349D01*
X110527102Y-103127962D01*
X110659424Y-103375518D01*
X110837498Y-103592502D01*
X111054482Y-103770576D01*
X111203073Y-103850000D01*
X111054482Y-103929424D01*
X110837498Y-104107498D01*
X110659424Y-104324482D01*
X110527102Y-104572038D01*
X110445619Y-104840651D01*
X110418106Y-105120000D01*
X110445619Y-105399349D01*
X110527102Y-105667962D01*
X110659424Y-105915518D01*
X110837498Y-106132502D01*
X111054482Y-106310576D01*
X111203073Y-106390000D01*
X111054482Y-106469424D01*
X110837498Y-106647498D01*
X110659424Y-106864482D01*
X110527102Y-107112038D01*
X110445619Y-107380651D01*
X110418106Y-107660000D01*
X110445619Y-107939349D01*
X110527102Y-108207962D01*
X110659424Y-108455518D01*
X110837498Y-108672502D01*
X111054482Y-108850576D01*
X111203073Y-108930000D01*
X111054482Y-109009424D01*
X110837498Y-109187498D01*
X110659424Y-109404482D01*
X110527102Y-109652038D01*
X110445619Y-109920651D01*
X110418106Y-110200000D01*
X110445619Y-110479349D01*
X110527102Y-110747962D01*
X110659424Y-110995518D01*
X110837498Y-111212502D01*
X111054482Y-111390576D01*
X111203073Y-111470000D01*
X111054482Y-111549424D01*
X110837498Y-111727498D01*
X110659424Y-111944482D01*
X110527102Y-112192038D01*
X110445619Y-112460651D01*
X110418106Y-112740000D01*
X110445619Y-113019349D01*
X110527102Y-113287962D01*
X110659424Y-113535518D01*
X110837498Y-113752502D01*
X111047688Y-113925000D01*
X106445279Y-113925000D01*
X105797479Y-113277200D01*
X105763817Y-113236183D01*
X105600128Y-113101846D01*
X105413375Y-113002024D01*
X105210737Y-112940555D01*
X105052806Y-112925000D01*
X105052798Y-112925000D01*
X105000000Y-112919800D01*
X104947202Y-112925000D01*
X100209693Y-112925000D01*
X100162502Y-112867498D01*
X99945518Y-112689424D01*
X99796927Y-112610000D01*
X99945518Y-112530576D01*
X100162502Y-112352502D01*
X100340576Y-112135518D01*
X100472898Y-111887962D01*
X100554381Y-111619349D01*
X100581894Y-111340000D01*
X100554381Y-111060651D01*
X100472898Y-110792038D01*
X100340576Y-110544482D01*
X100162502Y-110327498D01*
X99945518Y-110149424D01*
X99697962Y-110017102D01*
X99545810Y-109970947D01*
X99560623Y-109967321D01*
X99780466Y-109864783D01*
X99976081Y-109721326D01*
X100139950Y-109542463D01*
X100265776Y-109335067D01*
X100320133Y-109162512D01*
X100267632Y-108975000D01*
X98675000Y-108975000D01*
X98675000Y-108995000D01*
X98325000Y-108995000D01*
X98325000Y-108975000D01*
X96732368Y-108975000D01*
X96679867Y-109162512D01*
X96734224Y-109335067D01*
X96860050Y-109542463D01*
X97023919Y-109721326D01*
X97219534Y-109864783D01*
X97439377Y-109967321D01*
X97454190Y-109970947D01*
X97302038Y-110017102D01*
X97054482Y-110149424D01*
X96837498Y-110327498D01*
X96757480Y-110425000D01*
X92545280Y-110425000D01*
X90557768Y-108437488D01*
X96679867Y-108437488D01*
X96732368Y-108625000D01*
X98325000Y-108625000D01*
X98325000Y-107575000D01*
X98675000Y-107575000D01*
X98675000Y-108625000D01*
X100267632Y-108625000D01*
X100320133Y-108437488D01*
X100265776Y-108264933D01*
X100139950Y-108057537D01*
X99976081Y-107878674D01*
X99780466Y-107735217D01*
X99560623Y-107632679D01*
X99325000Y-107575000D01*
X98675000Y-107575000D01*
X98325000Y-107575000D01*
X97675000Y-107575000D01*
X97439377Y-107632679D01*
X97219534Y-107735217D01*
X97023919Y-107878674D01*
X96860050Y-108057537D01*
X96734224Y-108264933D01*
X96679867Y-108437488D01*
X90557768Y-108437488D01*
X88997479Y-106877200D01*
X88963817Y-106836183D01*
X88800128Y-106701846D01*
X88613375Y-106602024D01*
X88410737Y-106540555D01*
X88252806Y-106525000D01*
X88252798Y-106525000D01*
X88200000Y-106519800D01*
X88147202Y-106525000D01*
X87286348Y-106525000D01*
X87145518Y-106409424D01*
X86996927Y-106330000D01*
X87145518Y-106250576D01*
X87362502Y-106072502D01*
X87540576Y-105855518D01*
X87672898Y-105607962D01*
X87754381Y-105339349D01*
X87781894Y-105060000D01*
X87754381Y-104780651D01*
X87672898Y-104512038D01*
X87540576Y-104264482D01*
X87362502Y-104047498D01*
X87145518Y-103869424D01*
X86996927Y-103790000D01*
X87145518Y-103710576D01*
X87362502Y-103532502D01*
X87540576Y-103315518D01*
X87672898Y-103067962D01*
X87754381Y-102799349D01*
X87781894Y-102520000D01*
X87754381Y-102240651D01*
X87672898Y-101972038D01*
X87540576Y-101724482D01*
X87362502Y-101507498D01*
X87145518Y-101329424D01*
X86996927Y-101250000D01*
X87145518Y-101170576D01*
X87362502Y-100992502D01*
X87540576Y-100775518D01*
X87672898Y-100527962D01*
X87754381Y-100259349D01*
X87781894Y-99980000D01*
X87754381Y-99700651D01*
X87672898Y-99432038D01*
X87540576Y-99184482D01*
X87362502Y-98967498D01*
X87145518Y-98789424D01*
X86996927Y-98710000D01*
X87145518Y-98630576D01*
X87362502Y-98452502D01*
X87540576Y-98235518D01*
X87672898Y-97987962D01*
X87754381Y-97719349D01*
X87781894Y-97440000D01*
X87754381Y-97160651D01*
X87672898Y-96892038D01*
X87540576Y-96644482D01*
X87362502Y-96427498D01*
X87145518Y-96249424D01*
X86996927Y-96170000D01*
X87145518Y-96090576D01*
X87362502Y-95912502D01*
X87540576Y-95695518D01*
X87672898Y-95447962D01*
X87754381Y-95179349D01*
X87781894Y-94900000D01*
X87754381Y-94620651D01*
X87672898Y-94352038D01*
X87540576Y-94104482D01*
X87362502Y-93887498D01*
X87145518Y-93709424D01*
X86996927Y-93630000D01*
X87145518Y-93550576D01*
X87362502Y-93372502D01*
X87540576Y-93155518D01*
X87672898Y-92907962D01*
X87754381Y-92639349D01*
X87781894Y-92360000D01*
X87754381Y-92080651D01*
X87672898Y-91812038D01*
X87540576Y-91564482D01*
X87362502Y-91347498D01*
X87145518Y-91169424D01*
X86996927Y-91090000D01*
X87145518Y-91010576D01*
X87286348Y-90895000D01*
X98925001Y-90895000D01*
X98925000Y-95447202D01*
X98919800Y-95500000D01*
X98925000Y-95552798D01*
X98925000Y-95552805D01*
X98940555Y-95710736D01*
X99002024Y-95913374D01*
X99101846Y-96100128D01*
X99236183Y-96263817D01*
X99277200Y-96297479D01*
X101202525Y-98222805D01*
X101236183Y-98263817D01*
X101277194Y-98297474D01*
X101277199Y-98297479D01*
X101399872Y-98398154D01*
X101586625Y-98497976D01*
X101789263Y-98559445D01*
X101947194Y-98575000D01*
X101947201Y-98575000D01*
X101999999Y-98580200D01*
X102052797Y-98575000D01*
X110468279Y-98575000D01*
X110519592Y-98670998D01*
X110591446Y-98758554D01*
X110679002Y-98830408D01*
X110778892Y-98883801D01*
X110887280Y-98916680D01*
X111000000Y-98927782D01*
X111321235Y-98927782D01*
X111219534Y-98975217D01*
X111023919Y-99118674D01*
X110860050Y-99297537D01*
X110734224Y-99504933D01*
X110679867Y-99677488D01*
X110732368Y-99865000D01*
X112325000Y-99865000D01*
X112325000Y-99845000D01*
X112675000Y-99845000D01*
X112675000Y-99865000D01*
X114267632Y-99865000D01*
X114320133Y-99677488D01*
X114265776Y-99504933D01*
X114139950Y-99297537D01*
X113976081Y-99118674D01*
X113780466Y-98975217D01*
X113678765Y-98927782D01*
X114000000Y-98927782D01*
X114112720Y-98916680D01*
X114221108Y-98883801D01*
X114320998Y-98830408D01*
X114408554Y-98758554D01*
X114480408Y-98670998D01*
X114533801Y-98571108D01*
X114566680Y-98462720D01*
X114577782Y-98350000D01*
X114577782Y-96650000D01*
X114566680Y-96537280D01*
X114533801Y-96428892D01*
X114480408Y-96329002D01*
X114408554Y-96241446D01*
X114320998Y-96169592D01*
X114221108Y-96116199D01*
X114112720Y-96083320D01*
X114000000Y-96072218D01*
X111000000Y-96072218D01*
X110887280Y-96083320D01*
X110778892Y-96116199D01*
X110679002Y-96169592D01*
X110591446Y-96241446D01*
X110519592Y-96329002D01*
X110468279Y-96425000D01*
X102445280Y-96425000D01*
X101075000Y-95054721D01*
X101075000Y-89872806D01*
X101080201Y-89820000D01*
X101064442Y-89660000D01*
X101075000Y-89552806D01*
X101075000Y-73575000D01*
X101622218Y-73575000D01*
X101622218Y-74000000D01*
X101633320Y-74112720D01*
X101666199Y-74221108D01*
X101719592Y-74320998D01*
X101791446Y-74408554D01*
X101879002Y-74480408D01*
X101978892Y-74533801D01*
X102087280Y-74566680D01*
X102200000Y-74577782D01*
X103800000Y-74577782D01*
X103912720Y-74566680D01*
X104021108Y-74533801D01*
X104120998Y-74480408D01*
X104208554Y-74408554D01*
X104280408Y-74320998D01*
X104333801Y-74221108D01*
X104366680Y-74112720D01*
X104377782Y-74000000D01*
X104377782Y-72675000D01*
X105625000Y-72675000D01*
X105625000Y-73375000D01*
X105681718Y-73600869D01*
X105781411Y-73811332D01*
X105920248Y-73998302D01*
X106092893Y-74154594D01*
X106292712Y-74274201D01*
X106445394Y-74320214D01*
X106625000Y-74266994D01*
X106625000Y-72675000D01*
X106975000Y-72675000D01*
X106975000Y-74266994D01*
X107154606Y-74320214D01*
X107307288Y-74274201D01*
X107507107Y-74154594D01*
X107679752Y-73998302D01*
X107818589Y-73811332D01*
X107918282Y-73600869D01*
X107975000Y-73375000D01*
X107975000Y-72675000D01*
X106975000Y-72675000D01*
X106625000Y-72675000D01*
X105625000Y-72675000D01*
X104377782Y-72675000D01*
X104377782Y-71625000D01*
X105625000Y-71625000D01*
X105625000Y-72325000D01*
X106625000Y-72325000D01*
X106625000Y-70733006D01*
X106975000Y-70733006D01*
X106975000Y-72325000D01*
X107975000Y-72325000D01*
X107975000Y-71625000D01*
X107918282Y-71399131D01*
X107818589Y-71188668D01*
X107679752Y-71001698D01*
X107507107Y-70845406D01*
X107307288Y-70725799D01*
X107154606Y-70679786D01*
X106975000Y-70733006D01*
X106625000Y-70733006D01*
X106445394Y-70679786D01*
X106292712Y-70725799D01*
X106092893Y-70845406D01*
X105920248Y-71001698D01*
X105781411Y-71188668D01*
X105681718Y-71399131D01*
X105625000Y-71625000D01*
X104377782Y-71625000D01*
X104377782Y-71000000D01*
X104366680Y-70887280D01*
X104333801Y-70778892D01*
X104280408Y-70679002D01*
X104208554Y-70591446D01*
X104120998Y-70519592D01*
X104021108Y-70466199D01*
X103912720Y-70433320D01*
X103800000Y-70422218D01*
X102200000Y-70422218D01*
X102087280Y-70433320D01*
X101978892Y-70466199D01*
X101879002Y-70519592D01*
X101791446Y-70591446D01*
X101719592Y-70679002D01*
X101666199Y-70778892D01*
X101633320Y-70887280D01*
X101622218Y-71000000D01*
X101622218Y-71425000D01*
X101075000Y-71425000D01*
X101075000Y-65500000D01*
X114623186Y-65500000D01*
X114630426Y-65573513D01*
X114651869Y-65644200D01*
X114686691Y-65709347D01*
X114733552Y-65766448D01*
X114790653Y-65813309D01*
X114855800Y-65848131D01*
X114926487Y-65869574D01*
X115000000Y-65876814D01*
X116231250Y-65875000D01*
X116325000Y-65781250D01*
X116325000Y-64175000D01*
X116675000Y-64175000D01*
X116675000Y-65781250D01*
X116768750Y-65875000D01*
X118000000Y-65876814D01*
X118073513Y-65869574D01*
X118144200Y-65848131D01*
X118209347Y-65813309D01*
X118266448Y-65766448D01*
X118313309Y-65709347D01*
X118348131Y-65644200D01*
X118369574Y-65573513D01*
X118376814Y-65500000D01*
X118375000Y-64268750D01*
X118281250Y-64175000D01*
X116675000Y-64175000D01*
X116325000Y-64175000D01*
X114718750Y-64175000D01*
X114625000Y-64268750D01*
X114623186Y-65500000D01*
X101075000Y-65500000D01*
X101075000Y-62500000D01*
X114623186Y-62500000D01*
X114625000Y-63731250D01*
X114718750Y-63825000D01*
X116325000Y-63825000D01*
X116325000Y-62218750D01*
X116675000Y-62218750D01*
X116675000Y-63825000D01*
X118281250Y-63825000D01*
X118375000Y-63731250D01*
X118376814Y-62500000D01*
X118369574Y-62426487D01*
X118348131Y-62355800D01*
X118313309Y-62290653D01*
X118266448Y-62233552D01*
X118209347Y-62186691D01*
X118144200Y-62151869D01*
X118073513Y-62130426D01*
X118000000Y-62123186D01*
X116768750Y-62125000D01*
X116675000Y-62218750D01*
X116325000Y-62218750D01*
X116231250Y-62125000D01*
X115000000Y-62123186D01*
X114926487Y-62130426D01*
X114855800Y-62151869D01*
X114790653Y-62186691D01*
X114733552Y-62233552D01*
X114686691Y-62290653D01*
X114651869Y-62355800D01*
X114630426Y-62426487D01*
X114623186Y-62500000D01*
X101075000Y-62500000D01*
X101075000Y-50445279D01*
X104445280Y-47075000D01*
X114422218Y-47075000D01*
X114422218Y-47500000D01*
X114433320Y-47612720D01*
X114466199Y-47721108D01*
X114519592Y-47820998D01*
X114591446Y-47908554D01*
X114679002Y-47980408D01*
X114778892Y-48033801D01*
X114887280Y-48066680D01*
X115000000Y-48077782D01*
X118000000Y-48077782D01*
X118112720Y-48066680D01*
X118221108Y-48033801D01*
X118320998Y-47980408D01*
X118408554Y-47908554D01*
X118480408Y-47820998D01*
X118533801Y-47721108D01*
X118566680Y-47612720D01*
X118577782Y-47500000D01*
X118577782Y-44500000D01*
X118566680Y-44387280D01*
X118533801Y-44278892D01*
X118480408Y-44179002D01*
X118408554Y-44091446D01*
X118320998Y-44019592D01*
X118221108Y-43966199D01*
X118112720Y-43933320D01*
X118000000Y-43922218D01*
X115000000Y-43922218D01*
X114887280Y-43933320D01*
X114778892Y-43966199D01*
X114679002Y-44019592D01*
X114591446Y-44091446D01*
X114519592Y-44179002D01*
X114466199Y-44278892D01*
X114433320Y-44387280D01*
X114422218Y-44500000D01*
X114422218Y-44925000D01*
X104052797Y-44925000D01*
X103999999Y-44919800D01*
X103947201Y-44925000D01*
X103947194Y-44925000D01*
X103789263Y-44940555D01*
X103586625Y-45002024D01*
X103399872Y-45101846D01*
X103277199Y-45202521D01*
X103277194Y-45202526D01*
X103236183Y-45236183D01*
X103202525Y-45277195D01*
X99277200Y-49202521D01*
X99236183Y-49236183D01*
X99101846Y-49399872D01*
X99002024Y-49586626D01*
X98940555Y-49789264D01*
X98925000Y-49947195D01*
X98925000Y-49947202D01*
X98919800Y-50000000D01*
X98925000Y-50052798D01*
X98925001Y-71425000D01*
X98377782Y-71425000D01*
X98377782Y-71000000D01*
X98366680Y-70887280D01*
X98333801Y-70778892D01*
X98280408Y-70679002D01*
X98208554Y-70591446D01*
X98120998Y-70519592D01*
X98021108Y-70466199D01*
X97912720Y-70433320D01*
X97800000Y-70422218D01*
X96200000Y-70422218D01*
X96087280Y-70433320D01*
X95978892Y-70466199D01*
X95879002Y-70519592D01*
X95791446Y-70591446D01*
X95719592Y-70679002D01*
X95666199Y-70778892D01*
X95633320Y-70887280D01*
X95622218Y-71000000D01*
X95622218Y-74000000D01*
X95633320Y-74112720D01*
X95666199Y-74221108D01*
X95719592Y-74320998D01*
X95791446Y-74408554D01*
X95879002Y-74480408D01*
X95978892Y-74533801D01*
X96087280Y-74566680D01*
X96200000Y-74577782D01*
X97800000Y-74577782D01*
X97912720Y-74566680D01*
X98021108Y-74533801D01*
X98120998Y-74480408D01*
X98208554Y-74408554D01*
X98280408Y-74320998D01*
X98333801Y-74221108D01*
X98366680Y-74112720D01*
X98377782Y-74000000D01*
X98377782Y-73575000D01*
X98925000Y-73575000D01*
X98925001Y-88745000D01*
X87286348Y-88745000D01*
X87145518Y-88629424D01*
X86897962Y-88497102D01*
X86745810Y-88450947D01*
X86760623Y-88447321D01*
X86980466Y-88344783D01*
X87176081Y-88201326D01*
X87339950Y-88022463D01*
X87465776Y-87815067D01*
X87520133Y-87642512D01*
X87467632Y-87455000D01*
X85875000Y-87455000D01*
X85875000Y-87475000D01*
X85525000Y-87475000D01*
X85525000Y-87455000D01*
X83932368Y-87455000D01*
X83879867Y-87642512D01*
X83934224Y-87815067D01*
X84060050Y-88022463D01*
X84223919Y-88201326D01*
X84419534Y-88344783D01*
X84639377Y-88447321D01*
X84654190Y-88450947D01*
X84502038Y-88497102D01*
X84254482Y-88629424D01*
X84037498Y-88807498D01*
X83859424Y-89024482D01*
X83727102Y-89272038D01*
X83645619Y-89540651D01*
X83618106Y-89820000D01*
X72531894Y-89820000D01*
X72504381Y-89540651D01*
X72422898Y-89272038D01*
X72290576Y-89024482D01*
X72112502Y-88807498D01*
X71895518Y-88629424D01*
X71746927Y-88550000D01*
X71895518Y-88470576D01*
X72112502Y-88292502D01*
X72290576Y-88075518D01*
X72422898Y-87827962D01*
X72504381Y-87559349D01*
X72531894Y-87280000D01*
X72504381Y-87000651D01*
X72422898Y-86732038D01*
X72290576Y-86484482D01*
X72112502Y-86267498D01*
X71986605Y-86164177D01*
X72062720Y-86156680D01*
X72171108Y-86123801D01*
X72270998Y-86070408D01*
X72358554Y-85998554D01*
X72430408Y-85910998D01*
X72483801Y-85811108D01*
X72516680Y-85702720D01*
X72527782Y-85590000D01*
X72527782Y-83890000D01*
X72516680Y-83777280D01*
X72483801Y-83668892D01*
X72430408Y-83569002D01*
X72358554Y-83481446D01*
X72270998Y-83409592D01*
X72171108Y-83356199D01*
X72062720Y-83323320D01*
X71950000Y-83312218D01*
X68950000Y-83312218D01*
X68837280Y-83323320D01*
X68728892Y-83356199D01*
X68629002Y-83409592D01*
X68541446Y-83481446D01*
X68469592Y-83569002D01*
X68416199Y-83668892D01*
X68383320Y-83777280D01*
X68372218Y-83890000D01*
X68372218Y-85590000D01*
X68383320Y-85702720D01*
X68416199Y-85811108D01*
X68469592Y-85910998D01*
X68541446Y-85998554D01*
X68629002Y-86070408D01*
X68728892Y-86123801D01*
X68837280Y-86156680D01*
X68913395Y-86164177D01*
X68787498Y-86267498D01*
X68609424Y-86484482D01*
X68477102Y-86732038D01*
X68395619Y-87000651D01*
X68368106Y-87280000D01*
X68395619Y-87559349D01*
X68477102Y-87827962D01*
X68609424Y-88075518D01*
X68787498Y-88292502D01*
X69004482Y-88470576D01*
X69153073Y-88550000D01*
X69004482Y-88629424D01*
X68787498Y-88807498D01*
X68609424Y-89024482D01*
X68477102Y-89272038D01*
X68395619Y-89540651D01*
X68368106Y-89820000D01*
X68395619Y-90099349D01*
X68477102Y-90367962D01*
X68609424Y-90615518D01*
X68787498Y-90832502D01*
X69004482Y-91010576D01*
X69153073Y-91090000D01*
X69004482Y-91169424D01*
X68787498Y-91347498D01*
X68609424Y-91564482D01*
X68477102Y-91812038D01*
X68395619Y-92080651D01*
X68368106Y-92360000D01*
X68395619Y-92639349D01*
X68477102Y-92907962D01*
X68609424Y-93155518D01*
X68787498Y-93372502D01*
X69004482Y-93550576D01*
X69153073Y-93630000D01*
X69004482Y-93709424D01*
X68787498Y-93887498D01*
X68609424Y-94104482D01*
X68477102Y-94352038D01*
X68395619Y-94620651D01*
X68368106Y-94900000D01*
X68395619Y-95179349D01*
X68477102Y-95447962D01*
X68609424Y-95695518D01*
X68787498Y-95912502D01*
X69004482Y-96090576D01*
X69153073Y-96170000D01*
X69004482Y-96249424D01*
X68787498Y-96427498D01*
X68609424Y-96644482D01*
X68477102Y-96892038D01*
X68395619Y-97160651D01*
X68368106Y-97440000D01*
X68395619Y-97719349D01*
X68477102Y-97987962D01*
X68609424Y-98235518D01*
X68787498Y-98452502D01*
X69004482Y-98630576D01*
X69153073Y-98710000D01*
X69004482Y-98789424D01*
X68787498Y-98967498D01*
X68609424Y-99184482D01*
X68477102Y-99432038D01*
X68395619Y-99700651D01*
X68368106Y-99980000D01*
X68395619Y-100259349D01*
X68477102Y-100527962D01*
X68609424Y-100775518D01*
X68787498Y-100992502D01*
X69004482Y-101170576D01*
X69153073Y-101250000D01*
X69004482Y-101329424D01*
X68787498Y-101507498D01*
X68609424Y-101724482D01*
X68477102Y-101972038D01*
X68395619Y-102240651D01*
X68368106Y-102520000D01*
X68395619Y-102799349D01*
X68477102Y-103067962D01*
X68609424Y-103315518D01*
X68787498Y-103532502D01*
X69004482Y-103710576D01*
X69153073Y-103790000D01*
X69004482Y-103869424D01*
X68787498Y-104047498D01*
X68609424Y-104264482D01*
X68477102Y-104512038D01*
X68395619Y-104780651D01*
X68368106Y-105060000D01*
X68395619Y-105339349D01*
X68477102Y-105607962D01*
X68609424Y-105855518D01*
X68787498Y-106072502D01*
X69004482Y-106250576D01*
X69153073Y-106330000D01*
X69004482Y-106409424D01*
X68787498Y-106587498D01*
X68609424Y-106804482D01*
X68477102Y-107052038D01*
X68395619Y-107320651D01*
X68368106Y-107600000D01*
X68395619Y-107879349D01*
X68477102Y-108147962D01*
X68609424Y-108395518D01*
X68787498Y-108612502D01*
X69004482Y-108790576D01*
X69153073Y-108870000D01*
X69050176Y-108925000D01*
X53031721Y-108925000D01*
X52980408Y-108829002D01*
X52908554Y-108741446D01*
X52820998Y-108669592D01*
X52721108Y-108616199D01*
X52612720Y-108583320D01*
X52500000Y-108572218D01*
X52178765Y-108572218D01*
X52280466Y-108524783D01*
X52476081Y-108381326D01*
X52639950Y-108202463D01*
X52765776Y-107995067D01*
X52794148Y-107905000D01*
X55734186Y-107905000D01*
X55741426Y-107978513D01*
X55762869Y-108049200D01*
X55797691Y-108114347D01*
X55844552Y-108171448D01*
X55901653Y-108218309D01*
X55966800Y-108253131D01*
X56037487Y-108274574D01*
X56111000Y-108281814D01*
X56731250Y-108280000D01*
X56825000Y-108186250D01*
X56825000Y-107445000D01*
X57175000Y-107445000D01*
X57175000Y-108186250D01*
X57268750Y-108280000D01*
X57889000Y-108281814D01*
X57962513Y-108274574D01*
X58033200Y-108253131D01*
X58098347Y-108218309D01*
X58155448Y-108171448D01*
X58202309Y-108114347D01*
X58237131Y-108049200D01*
X58258574Y-107978513D01*
X58265814Y-107905000D01*
X60734186Y-107905000D01*
X60741426Y-107978513D01*
X60762869Y-108049200D01*
X60797691Y-108114347D01*
X60844552Y-108171448D01*
X60901653Y-108218309D01*
X60966800Y-108253131D01*
X61037487Y-108274574D01*
X61111000Y-108281814D01*
X61731250Y-108280000D01*
X61825000Y-108186250D01*
X61825000Y-107445000D01*
X62175000Y-107445000D01*
X62175000Y-108186250D01*
X62268750Y-108280000D01*
X62889000Y-108281814D01*
X62962513Y-108274574D01*
X63033200Y-108253131D01*
X63098347Y-108218309D01*
X63155448Y-108171448D01*
X63202309Y-108114347D01*
X63237131Y-108049200D01*
X63258574Y-107978513D01*
X63265814Y-107905000D01*
X63264000Y-107538750D01*
X63170250Y-107445000D01*
X62175000Y-107445000D01*
X61825000Y-107445000D01*
X60829750Y-107445000D01*
X60736000Y-107538750D01*
X60734186Y-107905000D01*
X58265814Y-107905000D01*
X58264000Y-107538750D01*
X58170250Y-107445000D01*
X57175000Y-107445000D01*
X56825000Y-107445000D01*
X55829750Y-107445000D01*
X55736000Y-107538750D01*
X55734186Y-107905000D01*
X52794148Y-107905000D01*
X52820133Y-107822512D01*
X52767632Y-107635000D01*
X51175000Y-107635000D01*
X51175000Y-107655000D01*
X50825000Y-107655000D01*
X50825000Y-107635000D01*
X49232368Y-107635000D01*
X49179867Y-107822512D01*
X49234224Y-107995067D01*
X49360050Y-108202463D01*
X49523919Y-108381326D01*
X49719534Y-108524783D01*
X49821235Y-108572218D01*
X49500000Y-108572218D01*
X49387280Y-108583320D01*
X49278892Y-108616199D01*
X49179002Y-108669592D01*
X49091446Y-108741446D01*
X49019592Y-108829002D01*
X48966199Y-108928892D01*
X48933320Y-109037280D01*
X48922218Y-109150000D01*
X48922218Y-109975440D01*
X48919799Y-110000000D01*
X48922218Y-110024560D01*
X48922218Y-110850000D01*
X48933320Y-110962720D01*
X48966199Y-111071108D01*
X49019592Y-111170998D01*
X49091446Y-111258554D01*
X49179002Y-111330408D01*
X49278892Y-111383801D01*
X49387280Y-111416680D01*
X49500000Y-111427782D01*
X52500000Y-111427782D01*
X52612720Y-111416680D01*
X52721108Y-111383801D01*
X52820998Y-111330408D01*
X52908554Y-111258554D01*
X52980408Y-111170998D01*
X53031721Y-111075000D01*
X68723894Y-111075000D01*
X68787498Y-111152502D01*
X69004482Y-111330576D01*
X69153073Y-111410000D01*
X69004482Y-111489424D01*
X68787498Y-111667498D01*
X68609424Y-111884482D01*
X68477102Y-112132038D01*
X68395619Y-112400651D01*
X68368106Y-112680000D01*
X68395619Y-112959349D01*
X68477102Y-113227962D01*
X68609424Y-113475518D01*
X68787498Y-113692502D01*
X69004482Y-113870576D01*
X69153073Y-113950000D01*
X69004482Y-114029424D01*
X68863652Y-114145000D01*
X63247051Y-114145000D01*
X63209998Y-114114592D01*
X63110108Y-114061199D01*
X63001720Y-114028320D01*
X62889000Y-114017218D01*
X61111000Y-114017218D01*
X60998280Y-114028320D01*
X60889892Y-114061199D01*
X60790002Y-114114592D01*
X60702446Y-114186446D01*
X60630592Y-114274002D01*
X60577199Y-114373892D01*
X60544320Y-114482280D01*
X60533218Y-114595000D01*
X60533218Y-115433123D01*
X60528701Y-115430709D01*
X60514632Y-115426441D01*
X60500000Y-115425000D01*
X58190250Y-115425000D01*
X58170250Y-115405000D01*
X57175000Y-115405000D01*
X57175000Y-115425000D01*
X56825000Y-115425000D01*
X56825000Y-115405000D01*
X55829750Y-115405000D01*
X55809750Y-115425000D01*
X55000000Y-115425000D01*
X54985368Y-115426441D01*
X54971299Y-115430709D01*
X54958332Y-115437640D01*
X54946967Y-115446967D01*
X54937640Y-115458332D01*
X54930709Y-115471299D01*
X54926441Y-115485368D01*
X54925000Y-115500000D01*
X54925000Y-116500000D01*
X54926441Y-116514632D01*
X54930709Y-116528701D01*
X54937640Y-116541668D01*
X54946967Y-116553033D01*
X54958332Y-116562360D01*
X54971299Y-116569291D01*
X54985368Y-116573559D01*
X55000000Y-116575000D01*
X55976259Y-116575000D01*
X55889892Y-116601199D01*
X55790002Y-116654592D01*
X55702446Y-116726446D01*
X55630592Y-116814002D01*
X55577199Y-116913892D01*
X55544320Y-117022280D01*
X55533218Y-117135000D01*
X55533218Y-118405000D01*
X55544320Y-118517720D01*
X55577199Y-118626108D01*
X55630592Y-118725998D01*
X55702446Y-118813554D01*
X55790002Y-118885408D01*
X55889892Y-118938801D01*
X55925001Y-118949451D01*
X55925000Y-124005000D01*
X52586348Y-124005000D01*
X52445518Y-123889424D01*
X52296927Y-123810000D01*
X52445518Y-123730576D01*
X52662502Y-123552502D01*
X52840576Y-123335518D01*
X52972898Y-123087962D01*
X53054381Y-122819349D01*
X53081894Y-122540000D01*
X53054381Y-122260651D01*
X52972898Y-121992038D01*
X52840576Y-121744482D01*
X52662502Y-121527498D01*
X52445518Y-121349424D01*
X52215347Y-121226395D01*
X52500000Y-121226814D01*
X52573513Y-121219574D01*
X52644200Y-121198131D01*
X52709347Y-121163309D01*
X52766448Y-121116448D01*
X52813309Y-121059347D01*
X52848131Y-120994200D01*
X52869574Y-120923513D01*
X52876814Y-120850000D01*
X52875000Y-120268750D01*
X52781250Y-120175000D01*
X51175000Y-120175000D01*
X51175000Y-120195000D01*
X50825000Y-120195000D01*
X50825000Y-120175000D01*
X49218750Y-120175000D01*
X49125000Y-120268750D01*
X49123186Y-120850000D01*
X49130426Y-120923513D01*
X49151869Y-120994200D01*
X49186691Y-121059347D01*
X49233552Y-121116448D01*
X49290653Y-121163309D01*
X49355800Y-121198131D01*
X49426487Y-121219574D01*
X49500000Y-121226814D01*
X49784653Y-121226395D01*
X49554482Y-121349424D01*
X49337498Y-121527498D01*
X49159424Y-121744482D01*
X49027102Y-121992038D01*
X48945619Y-122260651D01*
X48918106Y-122540000D01*
X46000000Y-122540000D01*
X46000000Y-119150000D01*
X49123186Y-119150000D01*
X49125000Y-119731250D01*
X49218750Y-119825000D01*
X50825000Y-119825000D01*
X50825000Y-118868750D01*
X51175000Y-118868750D01*
X51175000Y-119825000D01*
X52781250Y-119825000D01*
X52875000Y-119731250D01*
X52876814Y-119150000D01*
X52869574Y-119076487D01*
X52848131Y-119005800D01*
X52813309Y-118940653D01*
X52766448Y-118883552D01*
X52709347Y-118836691D01*
X52644200Y-118801869D01*
X52573513Y-118780426D01*
X52500000Y-118773186D01*
X51268750Y-118775000D01*
X51175000Y-118868750D01*
X50825000Y-118868750D01*
X50731250Y-118775000D01*
X49500000Y-118773186D01*
X49426487Y-118780426D01*
X49355800Y-118801869D01*
X49290653Y-118836691D01*
X49233552Y-118883552D01*
X49186691Y-118940653D01*
X49151869Y-119005800D01*
X49130426Y-119076487D01*
X49123186Y-119150000D01*
X46000000Y-119150000D01*
X46000000Y-114595000D01*
X55734186Y-114595000D01*
X55736000Y-114961250D01*
X55829750Y-115055000D01*
X56825000Y-115055000D01*
X56825000Y-114313750D01*
X57175000Y-114313750D01*
X57175000Y-115055000D01*
X58170250Y-115055000D01*
X58264000Y-114961250D01*
X58265814Y-114595000D01*
X58258574Y-114521487D01*
X58237131Y-114450800D01*
X58202309Y-114385653D01*
X58155448Y-114328552D01*
X58098347Y-114281691D01*
X58033200Y-114246869D01*
X57962513Y-114225426D01*
X57889000Y-114218186D01*
X57268750Y-114220000D01*
X57175000Y-114313750D01*
X56825000Y-114313750D01*
X56731250Y-114220000D01*
X56111000Y-114218186D01*
X56037487Y-114225426D01*
X55966800Y-114246869D01*
X55901653Y-114281691D01*
X55844552Y-114328552D01*
X55797691Y-114385653D01*
X55762869Y-114450800D01*
X55741426Y-114521487D01*
X55734186Y-114595000D01*
X46000000Y-114595000D01*
X46000000Y-104920000D01*
X48918106Y-104920000D01*
X48945619Y-105199349D01*
X49027102Y-105467962D01*
X49159424Y-105715518D01*
X49337498Y-105932502D01*
X49554482Y-106110576D01*
X49802038Y-106242898D01*
X49954190Y-106289053D01*
X49939377Y-106292679D01*
X49719534Y-106395217D01*
X49523919Y-106538674D01*
X49360050Y-106717537D01*
X49234224Y-106924933D01*
X49179867Y-107097488D01*
X49232368Y-107285000D01*
X50825000Y-107285000D01*
X50825000Y-107265000D01*
X51175000Y-107265000D01*
X51175000Y-107285000D01*
X52767632Y-107285000D01*
X52820133Y-107097488D01*
X52765776Y-106924933D01*
X52639950Y-106717537D01*
X52564333Y-106635000D01*
X55734186Y-106635000D01*
X55736000Y-107001250D01*
X55829750Y-107095000D01*
X56825000Y-107095000D01*
X56825000Y-106353750D01*
X57175000Y-106353750D01*
X57175000Y-107095000D01*
X58170250Y-107095000D01*
X58264000Y-107001250D01*
X58265814Y-106635000D01*
X60734186Y-106635000D01*
X60736000Y-107001250D01*
X60829750Y-107095000D01*
X61825000Y-107095000D01*
X61825000Y-106353750D01*
X62175000Y-106353750D01*
X62175000Y-107095000D01*
X63170250Y-107095000D01*
X63264000Y-107001250D01*
X63265814Y-106635000D01*
X63258574Y-106561487D01*
X63237131Y-106490800D01*
X63202309Y-106425653D01*
X63155448Y-106368552D01*
X63098347Y-106321691D01*
X63033200Y-106286869D01*
X62962513Y-106265426D01*
X62889000Y-106258186D01*
X62268750Y-106260000D01*
X62175000Y-106353750D01*
X61825000Y-106353750D01*
X61731250Y-106260000D01*
X61111000Y-106258186D01*
X61037487Y-106265426D01*
X60966800Y-106286869D01*
X60901653Y-106321691D01*
X60844552Y-106368552D01*
X60797691Y-106425653D01*
X60762869Y-106490800D01*
X60741426Y-106561487D01*
X60734186Y-106635000D01*
X58265814Y-106635000D01*
X58258574Y-106561487D01*
X58237131Y-106490800D01*
X58202309Y-106425653D01*
X58155448Y-106368552D01*
X58098347Y-106321691D01*
X58033200Y-106286869D01*
X57962513Y-106265426D01*
X57889000Y-106258186D01*
X57268750Y-106260000D01*
X57175000Y-106353750D01*
X56825000Y-106353750D01*
X56731250Y-106260000D01*
X56111000Y-106258186D01*
X56037487Y-106265426D01*
X55966800Y-106286869D01*
X55901653Y-106321691D01*
X55844552Y-106368552D01*
X55797691Y-106425653D01*
X55762869Y-106490800D01*
X55741426Y-106561487D01*
X55734186Y-106635000D01*
X52564333Y-106635000D01*
X52476081Y-106538674D01*
X52280466Y-106395217D01*
X52060623Y-106292679D01*
X52045810Y-106289053D01*
X52197962Y-106242898D01*
X52445518Y-106110576D01*
X52586348Y-105995000D01*
X61527202Y-105995000D01*
X61580000Y-106000200D01*
X61632798Y-105995000D01*
X61632806Y-105995000D01*
X61790737Y-105979445D01*
X61911600Y-105942782D01*
X62889000Y-105942782D01*
X63001720Y-105931680D01*
X63110108Y-105898801D01*
X63209998Y-105845408D01*
X63297554Y-105773554D01*
X63369408Y-105685998D01*
X63422801Y-105586108D01*
X63455680Y-105477720D01*
X63466782Y-105365000D01*
X63466782Y-104471735D01*
X63497976Y-104413375D01*
X63559445Y-104210737D01*
X63575000Y-104052806D01*
X63575000Y-104052799D01*
X63580200Y-104000001D01*
X63575000Y-103947203D01*
X63575000Y-82945279D01*
X64445280Y-82075000D01*
X83554721Y-82075000D01*
X84425000Y-82945280D01*
X84425000Y-83458280D01*
X84254482Y-83549424D01*
X84037498Y-83727498D01*
X83859424Y-83944482D01*
X83727102Y-84192038D01*
X83645619Y-84460651D01*
X83618106Y-84740000D01*
X83645619Y-85019349D01*
X83727102Y-85287962D01*
X83859424Y-85535518D01*
X84037498Y-85752502D01*
X84254482Y-85930576D01*
X84502038Y-86062898D01*
X84654190Y-86109053D01*
X84639377Y-86112679D01*
X84419534Y-86215217D01*
X84223919Y-86358674D01*
X84060050Y-86537537D01*
X83934224Y-86744933D01*
X83879867Y-86917488D01*
X83932368Y-87105000D01*
X85525000Y-87105000D01*
X85525000Y-87085000D01*
X85875000Y-87085000D01*
X85875000Y-87105000D01*
X87467632Y-87105000D01*
X87520133Y-86917488D01*
X87465776Y-86744933D01*
X87339950Y-86537537D01*
X87176081Y-86358674D01*
X86980466Y-86215217D01*
X86760623Y-86112679D01*
X86745810Y-86109053D01*
X86897962Y-86062898D01*
X87145518Y-85930576D01*
X87362502Y-85752502D01*
X87540576Y-85535518D01*
X87672898Y-85287962D01*
X87754381Y-85019349D01*
X87781894Y-84740000D01*
X87754381Y-84460651D01*
X87672898Y-84192038D01*
X87540576Y-83944482D01*
X87362502Y-83727498D01*
X87145518Y-83549424D01*
X86897962Y-83417102D01*
X86629349Y-83335619D01*
X86575000Y-83330266D01*
X86575000Y-82552797D01*
X86580200Y-82499999D01*
X86575000Y-82447201D01*
X86575000Y-82447194D01*
X86559445Y-82289263D01*
X86497976Y-82086625D01*
X86398154Y-81899872D01*
X86396744Y-81898154D01*
X86297479Y-81777199D01*
X86297474Y-81777194D01*
X86263817Y-81736183D01*
X86222805Y-81702525D01*
X84797479Y-80277200D01*
X84763817Y-80236183D01*
X84600128Y-80101846D01*
X84413375Y-80002024D01*
X84210737Y-79940555D01*
X84052806Y-79925000D01*
X84052798Y-79925000D01*
X84000000Y-79919800D01*
X83947202Y-79925000D01*
X64052797Y-79925000D01*
X63999999Y-79919800D01*
X63947201Y-79925000D01*
X63947194Y-79925000D01*
X63789263Y-79940555D01*
X63586625Y-80002024D01*
X63399872Y-80101846D01*
X63277199Y-80202521D01*
X63277194Y-80202526D01*
X63236183Y-80236183D01*
X63202525Y-80277195D01*
X61777195Y-81702526D01*
X61736184Y-81736183D01*
X61702527Y-81777194D01*
X61702521Y-81777200D01*
X61601846Y-81899873D01*
X61502025Y-82086625D01*
X61440555Y-82289264D01*
X61419800Y-82500000D01*
X61425001Y-82552808D01*
X61425000Y-103517218D01*
X61111000Y-103517218D01*
X60998280Y-103528320D01*
X60889892Y-103561199D01*
X60790002Y-103614592D01*
X60702446Y-103686446D01*
X60630592Y-103774002D01*
X60592642Y-103845000D01*
X58407358Y-103845000D01*
X58369408Y-103774002D01*
X58297554Y-103686446D01*
X58209998Y-103614592D01*
X58110108Y-103561199D01*
X58001720Y-103528320D01*
X57889000Y-103517218D01*
X56111000Y-103517218D01*
X55998280Y-103528320D01*
X55889892Y-103561199D01*
X55790002Y-103614592D01*
X55702446Y-103686446D01*
X55630592Y-103774002D01*
X55592642Y-103845000D01*
X52586348Y-103845000D01*
X52445518Y-103729424D01*
X52197962Y-103597102D01*
X51929349Y-103515619D01*
X51719997Y-103495000D01*
X50280003Y-103495000D01*
X50070651Y-103515619D01*
X49802038Y-103597102D01*
X49554482Y-103729424D01*
X49337498Y-103907498D01*
X49159424Y-104124482D01*
X49027102Y-104372038D01*
X48945619Y-104640651D01*
X48918106Y-104920000D01*
X46000000Y-104920000D01*
X46000000Y-72675000D01*
X92025000Y-72675000D01*
X92025000Y-73375000D01*
X92081718Y-73600869D01*
X92181411Y-73811332D01*
X92320248Y-73998302D01*
X92492893Y-74154594D01*
X92692712Y-74274201D01*
X92845394Y-74320214D01*
X93025000Y-74266994D01*
X93025000Y-72675000D01*
X93375000Y-72675000D01*
X93375000Y-74266994D01*
X93554606Y-74320214D01*
X93707288Y-74274201D01*
X93907107Y-74154594D01*
X94079752Y-73998302D01*
X94218589Y-73811332D01*
X94318282Y-73600869D01*
X94375000Y-73375000D01*
X94375000Y-72675000D01*
X93375000Y-72675000D01*
X93025000Y-72675000D01*
X92025000Y-72675000D01*
X46000000Y-72675000D01*
X46000000Y-71625000D01*
X92025000Y-71625000D01*
X92025000Y-72325000D01*
X93025000Y-72325000D01*
X93025000Y-70733006D01*
X93375000Y-70733006D01*
X93375000Y-72325000D01*
X94375000Y-72325000D01*
X94375000Y-71625000D01*
X94318282Y-71399131D01*
X94218589Y-71188668D01*
X94079752Y-71001698D01*
X93907107Y-70845406D01*
X93707288Y-70725799D01*
X93554606Y-70679786D01*
X93375000Y-70733006D01*
X93025000Y-70733006D01*
X92845394Y-70679786D01*
X92692712Y-70725799D01*
X92492893Y-70845406D01*
X92320248Y-71001698D01*
X92181411Y-71188668D01*
X92081718Y-71399131D01*
X92025000Y-71625000D01*
X46000000Y-71625000D01*
X46000000Y-65500000D01*
X74623186Y-65500000D01*
X74630426Y-65573513D01*
X74651869Y-65644200D01*
X74686691Y-65709347D01*
X74733552Y-65766448D01*
X74790653Y-65813309D01*
X74855800Y-65848131D01*
X74926487Y-65869574D01*
X75000000Y-65876814D01*
X76231250Y-65875000D01*
X76325000Y-65781250D01*
X76325000Y-64175000D01*
X76675000Y-64175000D01*
X76675000Y-65781250D01*
X76768750Y-65875000D01*
X78000000Y-65876814D01*
X78073513Y-65869574D01*
X78144200Y-65848131D01*
X78209347Y-65813309D01*
X78266448Y-65766448D01*
X78313309Y-65709347D01*
X78348131Y-65644200D01*
X78369574Y-65573513D01*
X78376814Y-65500000D01*
X78375000Y-64268750D01*
X78281250Y-64175000D01*
X76675000Y-64175000D01*
X76325000Y-64175000D01*
X74718750Y-64175000D01*
X74625000Y-64268750D01*
X74623186Y-65500000D01*
X46000000Y-65500000D01*
X46000000Y-62500000D01*
X74623186Y-62500000D01*
X74625000Y-63731250D01*
X74718750Y-63825000D01*
X76325000Y-63825000D01*
X76325000Y-62218750D01*
X76675000Y-62218750D01*
X76675000Y-63825000D01*
X78281250Y-63825000D01*
X78375000Y-63731250D01*
X78376814Y-62500000D01*
X78369574Y-62426487D01*
X78348131Y-62355800D01*
X78313309Y-62290653D01*
X78266448Y-62233552D01*
X78209347Y-62186691D01*
X78144200Y-62151869D01*
X78073513Y-62130426D01*
X78000000Y-62123186D01*
X76768750Y-62125000D01*
X76675000Y-62218750D01*
X76325000Y-62218750D01*
X76231250Y-62125000D01*
X75000000Y-62123186D01*
X74926487Y-62130426D01*
X74855800Y-62151869D01*
X74790653Y-62186691D01*
X74733552Y-62233552D01*
X74686691Y-62290653D01*
X74651869Y-62355800D01*
X74630426Y-62426487D01*
X74623186Y-62500000D01*
X46000000Y-62500000D01*
X46000000Y-61154606D01*
X62679786Y-61154606D01*
X62725799Y-61307288D01*
X62845406Y-61507107D01*
X63001698Y-61679752D01*
X63188668Y-61818589D01*
X63399131Y-61918282D01*
X63625000Y-61975000D01*
X64325000Y-61975000D01*
X64325000Y-60975000D01*
X64675000Y-60975000D01*
X64675000Y-61975000D01*
X65375000Y-61975000D01*
X65600869Y-61918282D01*
X65811332Y-61818589D01*
X65998302Y-61679752D01*
X66154594Y-61507107D01*
X66274201Y-61307288D01*
X66320214Y-61154606D01*
X66266994Y-60975000D01*
X64675000Y-60975000D01*
X64325000Y-60975000D01*
X62733006Y-60975000D01*
X62679786Y-61154606D01*
X46000000Y-61154606D01*
X46000000Y-60445394D01*
X62679786Y-60445394D01*
X62733006Y-60625000D01*
X64325000Y-60625000D01*
X64325000Y-59625000D01*
X64675000Y-59625000D01*
X64675000Y-60625000D01*
X66266994Y-60625000D01*
X66320214Y-60445394D01*
X66274201Y-60292712D01*
X66154594Y-60092893D01*
X65998302Y-59920248D01*
X65811332Y-59781411D01*
X65600869Y-59681718D01*
X65375000Y-59625000D01*
X64675000Y-59625000D01*
X64325000Y-59625000D01*
X63625000Y-59625000D01*
X63399131Y-59681718D01*
X63188668Y-59781411D01*
X63001698Y-59920248D01*
X62845406Y-60092893D01*
X62725799Y-60292712D01*
X62679786Y-60445394D01*
X46000000Y-60445394D01*
X46000000Y-59850000D01*
X49623186Y-59850000D01*
X49630426Y-59923513D01*
X49651869Y-59994200D01*
X49686691Y-60059347D01*
X49733552Y-60116448D01*
X49790653Y-60163309D01*
X49855800Y-60198131D01*
X49926487Y-60219574D01*
X50000000Y-60226814D01*
X51231250Y-60225000D01*
X51325000Y-60131250D01*
X51325000Y-59175000D01*
X51675000Y-59175000D01*
X51675000Y-60131250D01*
X51768750Y-60225000D01*
X53000000Y-60226814D01*
X53073513Y-60219574D01*
X53144200Y-60198131D01*
X53209347Y-60163309D01*
X53266448Y-60116448D01*
X53313309Y-60059347D01*
X53348131Y-59994200D01*
X53369574Y-59923513D01*
X53376814Y-59850000D01*
X53375000Y-59268750D01*
X53281250Y-59175000D01*
X51675000Y-59175000D01*
X51325000Y-59175000D01*
X49718750Y-59175000D01*
X49625000Y-59268750D01*
X49623186Y-59850000D01*
X46000000Y-59850000D01*
X46000000Y-53920000D01*
X49418106Y-53920000D01*
X49445619Y-54199349D01*
X49527102Y-54467962D01*
X49659424Y-54715518D01*
X49837498Y-54932502D01*
X50054482Y-55110576D01*
X50203073Y-55190000D01*
X50054482Y-55269424D01*
X49837498Y-55447498D01*
X49659424Y-55664482D01*
X49527102Y-55912038D01*
X49445619Y-56180651D01*
X49418106Y-56460000D01*
X49445619Y-56739349D01*
X49527102Y-57007962D01*
X49659424Y-57255518D01*
X49837498Y-57472502D01*
X50054482Y-57650576D01*
X50284653Y-57773605D01*
X50000000Y-57773186D01*
X49926487Y-57780426D01*
X49855800Y-57801869D01*
X49790653Y-57836691D01*
X49733552Y-57883552D01*
X49686691Y-57940653D01*
X49651869Y-58005800D01*
X49630426Y-58076487D01*
X49623186Y-58150000D01*
X49625000Y-58731250D01*
X49718750Y-58825000D01*
X51325000Y-58825000D01*
X51325000Y-58805000D01*
X51675000Y-58805000D01*
X51675000Y-58825000D01*
X53281250Y-58825000D01*
X53375000Y-58731250D01*
X53376814Y-58150000D01*
X53369574Y-58076487D01*
X53348131Y-58005800D01*
X53313309Y-57940653D01*
X53266448Y-57883552D01*
X53209347Y-57836691D01*
X53144200Y-57801869D01*
X53073513Y-57780426D01*
X53000000Y-57773186D01*
X52715347Y-57773605D01*
X52945518Y-57650576D01*
X53162502Y-57472502D01*
X53340576Y-57255518D01*
X53472898Y-57007962D01*
X53554381Y-56739349D01*
X53581894Y-56460000D01*
X53554381Y-56180651D01*
X53472898Y-55912038D01*
X53340576Y-55664482D01*
X53162502Y-55447498D01*
X52945518Y-55269424D01*
X52796927Y-55190000D01*
X52945518Y-55110576D01*
X52988868Y-55075000D01*
X63425001Y-55075000D01*
X63425000Y-55622218D01*
X63000000Y-55622218D01*
X62887280Y-55633320D01*
X62778892Y-55666199D01*
X62679002Y-55719592D01*
X62591446Y-55791446D01*
X62519592Y-55879002D01*
X62466199Y-55978892D01*
X62433320Y-56087280D01*
X62422218Y-56200000D01*
X62422218Y-57800000D01*
X62433320Y-57912720D01*
X62466199Y-58021108D01*
X62519592Y-58120998D01*
X62591446Y-58208554D01*
X62679002Y-58280408D01*
X62778892Y-58333801D01*
X62887280Y-58366680D01*
X63000000Y-58377782D01*
X66000000Y-58377782D01*
X66112720Y-58366680D01*
X66221108Y-58333801D01*
X66320998Y-58280408D01*
X66408554Y-58208554D01*
X66480408Y-58120998D01*
X66533801Y-58021108D01*
X66566680Y-57912720D01*
X66577782Y-57800000D01*
X66577782Y-56200000D01*
X66566680Y-56087280D01*
X66533801Y-55978892D01*
X66480408Y-55879002D01*
X66408554Y-55791446D01*
X66320998Y-55719592D01*
X66221108Y-55666199D01*
X66112720Y-55633320D01*
X66000000Y-55622218D01*
X65575000Y-55622218D01*
X65575000Y-55075000D01*
X74947202Y-55075000D01*
X75000000Y-55080200D01*
X75052798Y-55075000D01*
X75052806Y-55075000D01*
X75210737Y-55059445D01*
X75413375Y-54997976D01*
X75600128Y-54898154D01*
X75763817Y-54763817D01*
X75797479Y-54722800D01*
X77222805Y-53297475D01*
X77263817Y-53263817D01*
X77297474Y-53222806D01*
X77297479Y-53222801D01*
X77398154Y-53100128D01*
X77497975Y-52913376D01*
X77497976Y-52913375D01*
X77559445Y-52710737D01*
X77575000Y-52552806D01*
X77575000Y-52552799D01*
X77580200Y-52500001D01*
X77575000Y-52447203D01*
X77575000Y-48077782D01*
X78000000Y-48077782D01*
X78112720Y-48066680D01*
X78221108Y-48033801D01*
X78320998Y-47980408D01*
X78408554Y-47908554D01*
X78480408Y-47820998D01*
X78533801Y-47721108D01*
X78566680Y-47612720D01*
X78577782Y-47500000D01*
X78577782Y-44500000D01*
X78566680Y-44387280D01*
X78533801Y-44278892D01*
X78480408Y-44179002D01*
X78408554Y-44091446D01*
X78320998Y-44019592D01*
X78221108Y-43966199D01*
X78112720Y-43933320D01*
X78000000Y-43922218D01*
X75000000Y-43922218D01*
X74887280Y-43933320D01*
X74778892Y-43966199D01*
X74679002Y-44019592D01*
X74591446Y-44091446D01*
X74519592Y-44179002D01*
X74466199Y-44278892D01*
X74433320Y-44387280D01*
X74422218Y-44500000D01*
X74422218Y-47500000D01*
X74433320Y-47612720D01*
X74466199Y-47721108D01*
X74519592Y-47820998D01*
X74591446Y-47908554D01*
X74679002Y-47980408D01*
X74778892Y-48033801D01*
X74887280Y-48066680D01*
X75000000Y-48077782D01*
X75425001Y-48077782D01*
X75425000Y-52054720D01*
X74554721Y-52925000D01*
X65575000Y-52925000D01*
X65575000Y-52377782D01*
X66000000Y-52377782D01*
X66112720Y-52366680D01*
X66221108Y-52333801D01*
X66320998Y-52280408D01*
X66408554Y-52208554D01*
X66480408Y-52120998D01*
X66533801Y-52021108D01*
X66566680Y-51912720D01*
X66577782Y-51800000D01*
X66577782Y-50200000D01*
X66566680Y-50087280D01*
X66533801Y-49978892D01*
X66480408Y-49879002D01*
X66408554Y-49791446D01*
X66320998Y-49719592D01*
X66221108Y-49666199D01*
X66112720Y-49633320D01*
X66000000Y-49622218D01*
X63000000Y-49622218D01*
X62887280Y-49633320D01*
X62778892Y-49666199D01*
X62679002Y-49719592D01*
X62591446Y-49791446D01*
X62519592Y-49879002D01*
X62466199Y-49978892D01*
X62433320Y-50087280D01*
X62422218Y-50200000D01*
X62422218Y-51800000D01*
X62433320Y-51912720D01*
X62466199Y-52021108D01*
X62519592Y-52120998D01*
X62591446Y-52208554D01*
X62679002Y-52280408D01*
X62778892Y-52333801D01*
X62887280Y-52366680D01*
X63000000Y-52377782D01*
X63425000Y-52377782D01*
X63425001Y-52925000D01*
X53176866Y-52925000D01*
X53162502Y-52907498D01*
X52945518Y-52729424D01*
X52697962Y-52597102D01*
X52429349Y-52515619D01*
X52219997Y-52495000D01*
X50780003Y-52495000D01*
X50570651Y-52515619D01*
X50302038Y-52597102D01*
X50054482Y-52729424D01*
X49837498Y-52907498D01*
X49659424Y-53124482D01*
X49527102Y-53372038D01*
X49445619Y-53640651D01*
X49418106Y-53920000D01*
X46000000Y-53920000D01*
X46000000Y-47554606D01*
X62679786Y-47554606D01*
X62725799Y-47707288D01*
X62845406Y-47907107D01*
X63001698Y-48079752D01*
X63188668Y-48218589D01*
X63399131Y-48318282D01*
X63625000Y-48375000D01*
X64325000Y-48375000D01*
X64325000Y-47375000D01*
X64675000Y-47375000D01*
X64675000Y-48375000D01*
X65375000Y-48375000D01*
X65600869Y-48318282D01*
X65811332Y-48218589D01*
X65998302Y-48079752D01*
X66154594Y-47907107D01*
X66274201Y-47707288D01*
X66320214Y-47554606D01*
X66266994Y-47375000D01*
X64675000Y-47375000D01*
X64325000Y-47375000D01*
X62733006Y-47375000D01*
X62679786Y-47554606D01*
X46000000Y-47554606D01*
X46000000Y-46845394D01*
X62679786Y-46845394D01*
X62733006Y-47025000D01*
X64325000Y-47025000D01*
X64325000Y-46025000D01*
X64675000Y-46025000D01*
X64675000Y-47025000D01*
X66266994Y-47025000D01*
X66320214Y-46845394D01*
X66274201Y-46692712D01*
X66154594Y-46492893D01*
X65998302Y-46320248D01*
X65811332Y-46181411D01*
X65600869Y-46081718D01*
X65375000Y-46025000D01*
X64675000Y-46025000D01*
X64325000Y-46025000D01*
X63625000Y-46025000D01*
X63399131Y-46081718D01*
X63188668Y-46181411D01*
X63001698Y-46320248D01*
X62845406Y-46492893D01*
X62725799Y-46692712D01*
X62679786Y-46845394D01*
X46000000Y-46845394D01*
X46000000Y-41250000D01*
X145500000Y-41250000D01*
X145500001Y-140750000D01*
G04 #@! TA.AperFunction,Conductor*
D22*
G36*
X145500001Y-140750000D02*
G01*
X46000000Y-140750000D01*
X46000000Y-133362512D01*
X68629867Y-133362512D01*
X68684224Y-133535067D01*
X68810050Y-133742463D01*
X68973919Y-133921326D01*
X69169534Y-134064783D01*
X69389377Y-134167321D01*
X69625000Y-134225000D01*
X70275000Y-134225000D01*
X70275000Y-133175000D01*
X70625000Y-133175000D01*
X70625000Y-134225000D01*
X71275000Y-134225000D01*
X71510623Y-134167321D01*
X71730466Y-134064783D01*
X71926081Y-133921326D01*
X72089950Y-133742463D01*
X72215776Y-133535067D01*
X72270133Y-133362512D01*
X72217632Y-133175000D01*
X70625000Y-133175000D01*
X70275000Y-133175000D01*
X68682368Y-133175000D01*
X68629867Y-133362512D01*
X46000000Y-133362512D01*
X46000000Y-132637488D01*
X68629867Y-132637488D01*
X68682368Y-132825000D01*
X70275000Y-132825000D01*
X70275000Y-131775000D01*
X70625000Y-131775000D01*
X70625000Y-132825000D01*
X72217632Y-132825000D01*
X72270133Y-132637488D01*
X72215776Y-132464933D01*
X72089950Y-132257537D01*
X71926081Y-132078674D01*
X71730466Y-131935217D01*
X71510623Y-131832679D01*
X71275000Y-131775000D01*
X70625000Y-131775000D01*
X70275000Y-131775000D01*
X69625000Y-131775000D01*
X69389377Y-131832679D01*
X69169534Y-131935217D01*
X68973919Y-132078674D01*
X68810050Y-132257537D01*
X68684224Y-132464933D01*
X68629867Y-132637488D01*
X46000000Y-132637488D01*
X46000000Y-130822512D01*
X68629867Y-130822512D01*
X68684224Y-130995067D01*
X68810050Y-131202463D01*
X68973919Y-131381326D01*
X69169534Y-131524783D01*
X69389377Y-131627321D01*
X69625000Y-131685000D01*
X70275000Y-131685000D01*
X70275000Y-130635000D01*
X70625000Y-130635000D01*
X70625000Y-131685000D01*
X71275000Y-131685000D01*
X71510623Y-131627321D01*
X71730466Y-131524783D01*
X71926081Y-131381326D01*
X72089950Y-131202463D01*
X72215776Y-130995067D01*
X72270133Y-130822512D01*
X72217632Y-130635000D01*
X70625000Y-130635000D01*
X70275000Y-130635000D01*
X68682368Y-130635000D01*
X68629867Y-130822512D01*
X46000000Y-130822512D01*
X46000000Y-122540000D01*
X48918106Y-122540000D01*
X48945619Y-122819349D01*
X49027102Y-123087962D01*
X49159424Y-123335518D01*
X49337498Y-123552502D01*
X49554482Y-123730576D01*
X49703073Y-123810000D01*
X49554482Y-123889424D01*
X49337498Y-124067498D01*
X49159424Y-124284482D01*
X49027102Y-124532038D01*
X48945619Y-124800651D01*
X48918106Y-125080000D01*
X48945619Y-125359349D01*
X49027102Y-125627962D01*
X49159424Y-125875518D01*
X49337498Y-126092502D01*
X49554482Y-126270576D01*
X49802038Y-126402898D01*
X50070651Y-126484381D01*
X50280003Y-126505000D01*
X51719997Y-126505000D01*
X51929349Y-126484381D01*
X52197962Y-126402898D01*
X52445518Y-126270576D01*
X52586348Y-126155000D01*
X55614023Y-126155000D01*
X55630592Y-126185998D01*
X55702446Y-126273554D01*
X55790002Y-126345408D01*
X55889892Y-126398801D01*
X55998280Y-126431680D01*
X56111000Y-126442782D01*
X57889000Y-126442782D01*
X58001720Y-126431680D01*
X58110108Y-126398801D01*
X58209998Y-126345408D01*
X58297554Y-126273554D01*
X58369408Y-126185998D01*
X58422801Y-126086108D01*
X58455680Y-125977720D01*
X58466782Y-125865000D01*
X58466782Y-124595000D01*
X58455680Y-124482280D01*
X58422801Y-124373892D01*
X58369408Y-124274002D01*
X58297554Y-124186446D01*
X58209998Y-124114592D01*
X58110108Y-124061199D01*
X58075000Y-124050549D01*
X58075000Y-118949451D01*
X58110108Y-118938801D01*
X58209998Y-118885408D01*
X58259236Y-118845000D01*
X60740764Y-118845000D01*
X60790002Y-118885408D01*
X60889892Y-118938801D01*
X60998280Y-118971680D01*
X61111000Y-118982782D01*
X62889000Y-118982782D01*
X63001720Y-118971680D01*
X63110108Y-118938801D01*
X63209998Y-118885408D01*
X63297554Y-118813554D01*
X63369408Y-118725998D01*
X63422801Y-118626108D01*
X63455680Y-118517720D01*
X63466782Y-118405000D01*
X63466782Y-117135000D01*
X63455680Y-117022280D01*
X63422801Y-116913892D01*
X63369408Y-116814002D01*
X63297554Y-116726446D01*
X63209998Y-116654592D01*
X63110108Y-116601199D01*
X63001720Y-116568320D01*
X62889000Y-116557218D01*
X62218077Y-116557218D01*
X62413375Y-116497975D01*
X62516634Y-116442782D01*
X62889000Y-116442782D01*
X63001720Y-116431680D01*
X63110108Y-116398801D01*
X63209998Y-116345408D01*
X63271421Y-116295000D01*
X68863652Y-116295000D01*
X69004482Y-116410576D01*
X69153073Y-116490000D01*
X69004482Y-116569424D01*
X68787498Y-116747498D01*
X68609424Y-116964482D01*
X68477102Y-117212038D01*
X68395619Y-117480651D01*
X68368106Y-117760000D01*
X68395619Y-118039349D01*
X68477102Y-118307962D01*
X68609424Y-118555518D01*
X68787498Y-118772502D01*
X69004482Y-118950576D01*
X69153073Y-119030000D01*
X69004482Y-119109424D01*
X68787498Y-119287498D01*
X68609424Y-119504482D01*
X68477102Y-119752038D01*
X68395619Y-120020651D01*
X68368106Y-120300000D01*
X68395619Y-120579349D01*
X68477102Y-120847962D01*
X68609424Y-121095518D01*
X68787498Y-121312502D01*
X69004482Y-121490576D01*
X69153073Y-121570000D01*
X69004482Y-121649424D01*
X68787498Y-121827498D01*
X68609424Y-122044482D01*
X68477102Y-122292038D01*
X68395619Y-122560651D01*
X68368106Y-122840000D01*
X68395619Y-123119349D01*
X68477102Y-123387962D01*
X68609424Y-123635518D01*
X68787498Y-123852502D01*
X69004482Y-124030576D01*
X69153073Y-124110000D01*
X69004482Y-124189424D01*
X68787498Y-124367498D01*
X68609424Y-124584482D01*
X68477102Y-124832038D01*
X68395619Y-125100651D01*
X68368106Y-125380000D01*
X68395619Y-125659349D01*
X68477102Y-125927962D01*
X68609424Y-126175518D01*
X68787498Y-126392502D01*
X69004482Y-126570576D01*
X69153073Y-126650000D01*
X69004482Y-126729424D01*
X68863652Y-126845000D01*
X58385977Y-126845000D01*
X58369408Y-126814002D01*
X58297554Y-126726446D01*
X58209998Y-126654592D01*
X58110108Y-126601199D01*
X58001720Y-126568320D01*
X57889000Y-126557218D01*
X56111000Y-126557218D01*
X55998280Y-126568320D01*
X55889892Y-126601199D01*
X55790002Y-126654592D01*
X55702446Y-126726446D01*
X55630592Y-126814002D01*
X55577199Y-126913892D01*
X55544320Y-127022280D01*
X55533218Y-127135000D01*
X55533218Y-128405000D01*
X55544320Y-128517720D01*
X55577199Y-128626108D01*
X55630592Y-128725998D01*
X55702446Y-128813554D01*
X55790002Y-128885408D01*
X55889892Y-128938801D01*
X55998280Y-128971680D01*
X56111000Y-128982782D01*
X57153144Y-128982782D01*
X57277194Y-128995000D01*
X68863652Y-128995000D01*
X69004482Y-129110576D01*
X69252038Y-129242898D01*
X69404190Y-129289053D01*
X69389377Y-129292679D01*
X69169534Y-129395217D01*
X68973919Y-129538674D01*
X68810050Y-129717537D01*
X68684224Y-129924933D01*
X68629867Y-130097488D01*
X68682368Y-130285000D01*
X70275000Y-130285000D01*
X70275000Y-130265000D01*
X70625000Y-130265000D01*
X70625000Y-130285000D01*
X72217632Y-130285000D01*
X72270133Y-130097488D01*
X72215776Y-129924933D01*
X72089950Y-129717537D01*
X71926081Y-129538674D01*
X71730466Y-129395217D01*
X71510623Y-129292679D01*
X71495810Y-129289053D01*
X71647962Y-129242898D01*
X71895518Y-129110576D01*
X72112502Y-128932502D01*
X72290576Y-128715518D01*
X72422898Y-128467962D01*
X72504381Y-128199349D01*
X72531894Y-127920000D01*
X72504381Y-127640651D01*
X72422898Y-127372038D01*
X72290576Y-127124482D01*
X72112502Y-126907498D01*
X71895518Y-126729424D01*
X71746927Y-126650000D01*
X71895518Y-126570576D01*
X72112502Y-126392502D01*
X72290576Y-126175518D01*
X72422898Y-125927962D01*
X72504381Y-125659349D01*
X72531894Y-125380000D01*
X72504381Y-125100651D01*
X72422898Y-124832038D01*
X72290576Y-124584482D01*
X72112502Y-124367498D01*
X71895518Y-124189424D01*
X71746927Y-124110000D01*
X71895518Y-124030576D01*
X72112502Y-123852502D01*
X72290576Y-123635518D01*
X72422898Y-123387962D01*
X72504381Y-123119349D01*
X72531894Y-122840000D01*
X72504381Y-122560651D01*
X72422898Y-122292038D01*
X72290576Y-122044482D01*
X72112502Y-121827498D01*
X71895518Y-121649424D01*
X71746927Y-121570000D01*
X71895518Y-121490576D01*
X72112502Y-121312502D01*
X72290576Y-121095518D01*
X72422898Y-120847962D01*
X72504381Y-120579349D01*
X72531894Y-120300000D01*
X72504381Y-120020651D01*
X72422898Y-119752038D01*
X72290576Y-119504482D01*
X72112502Y-119287498D01*
X71895518Y-119109424D01*
X71746927Y-119030000D01*
X71895518Y-118950576D01*
X72112502Y-118772502D01*
X72290576Y-118555518D01*
X72422898Y-118307962D01*
X72504381Y-118039349D01*
X72531894Y-117760000D01*
X72504381Y-117480651D01*
X72422898Y-117212038D01*
X72290576Y-116964482D01*
X72112502Y-116747498D01*
X71895518Y-116569424D01*
X71746927Y-116490000D01*
X71895518Y-116410576D01*
X72112502Y-116232502D01*
X72290576Y-116015518D01*
X72422898Y-115767962D01*
X72504381Y-115499349D01*
X72531894Y-115220000D01*
X72504381Y-114940651D01*
X72422898Y-114672038D01*
X72290576Y-114424482D01*
X72112502Y-114207498D01*
X71895518Y-114029424D01*
X71746927Y-113950000D01*
X71895518Y-113870576D01*
X72112502Y-113692502D01*
X72290576Y-113475518D01*
X72422898Y-113227962D01*
X72504381Y-112959349D01*
X72531894Y-112680000D01*
X72504381Y-112400651D01*
X72422898Y-112132038D01*
X72290576Y-111884482D01*
X72112502Y-111667498D01*
X71895518Y-111489424D01*
X71746927Y-111410000D01*
X71895518Y-111330576D01*
X72112502Y-111152502D01*
X72290576Y-110935518D01*
X72422898Y-110687962D01*
X72504381Y-110419349D01*
X72531894Y-110140000D01*
X72504381Y-109860651D01*
X72422898Y-109592038D01*
X72290576Y-109344482D01*
X72112502Y-109127498D01*
X71895518Y-108949424D01*
X71746927Y-108870000D01*
X71895518Y-108790576D01*
X72112502Y-108612502D01*
X72290576Y-108395518D01*
X72422898Y-108147962D01*
X72504381Y-107879349D01*
X72531894Y-107600000D01*
X72504381Y-107320651D01*
X72422898Y-107052038D01*
X72290576Y-106804482D01*
X72112502Y-106587498D01*
X71895518Y-106409424D01*
X71746927Y-106330000D01*
X71895518Y-106250576D01*
X72112502Y-106072502D01*
X72290576Y-105855518D01*
X72422898Y-105607962D01*
X72504381Y-105339349D01*
X72531894Y-105060000D01*
X72504381Y-104780651D01*
X72422898Y-104512038D01*
X72290576Y-104264482D01*
X72112502Y-104047498D01*
X71895518Y-103869424D01*
X71746927Y-103790000D01*
X71895518Y-103710576D01*
X72112502Y-103532502D01*
X72290576Y-103315518D01*
X72422898Y-103067962D01*
X72504381Y-102799349D01*
X72531894Y-102520000D01*
X72504381Y-102240651D01*
X72422898Y-101972038D01*
X72290576Y-101724482D01*
X72112502Y-101507498D01*
X71895518Y-101329424D01*
X71746927Y-101250000D01*
X71895518Y-101170576D01*
X72112502Y-100992502D01*
X72290576Y-100775518D01*
X72422898Y-100527962D01*
X72504381Y-100259349D01*
X72531894Y-99980000D01*
X72504381Y-99700651D01*
X72422898Y-99432038D01*
X72290576Y-99184482D01*
X72112502Y-98967498D01*
X71895518Y-98789424D01*
X71746927Y-98710000D01*
X71895518Y-98630576D01*
X72112502Y-98452502D01*
X72290576Y-98235518D01*
X72422898Y-97987962D01*
X72504381Y-97719349D01*
X72531894Y-97440000D01*
X72504381Y-97160651D01*
X72422898Y-96892038D01*
X72290576Y-96644482D01*
X72112502Y-96427498D01*
X71895518Y-96249424D01*
X71746927Y-96170000D01*
X71895518Y-96090576D01*
X72112502Y-95912502D01*
X72290576Y-95695518D01*
X72422898Y-95447962D01*
X72504381Y-95179349D01*
X72531894Y-94900000D01*
X72504381Y-94620651D01*
X72422898Y-94352038D01*
X72290576Y-94104482D01*
X72112502Y-93887498D01*
X71895518Y-93709424D01*
X71746927Y-93630000D01*
X71895518Y-93550576D01*
X72112502Y-93372502D01*
X72290576Y-93155518D01*
X72422898Y-92907962D01*
X72504381Y-92639349D01*
X72531894Y-92360000D01*
X72504381Y-92080651D01*
X72422898Y-91812038D01*
X72290576Y-91564482D01*
X72112502Y-91347498D01*
X71895518Y-91169424D01*
X71746927Y-91090000D01*
X71895518Y-91010576D01*
X72112502Y-90832502D01*
X72290576Y-90615518D01*
X72422898Y-90367962D01*
X72504381Y-90099349D01*
X72531894Y-89820000D01*
X83618106Y-89820000D01*
X83645619Y-90099349D01*
X83727102Y-90367962D01*
X83859424Y-90615518D01*
X84037498Y-90832502D01*
X84254482Y-91010576D01*
X84403073Y-91090000D01*
X84254482Y-91169424D01*
X84037498Y-91347498D01*
X83859424Y-91564482D01*
X83727102Y-91812038D01*
X83645619Y-92080651D01*
X83618106Y-92360000D01*
X83645619Y-92639349D01*
X83727102Y-92907962D01*
X83859424Y-93155518D01*
X84037498Y-93372502D01*
X84254482Y-93550576D01*
X84403073Y-93630000D01*
X84254482Y-93709424D01*
X84037498Y-93887498D01*
X83859424Y-94104482D01*
X83727102Y-94352038D01*
X83645619Y-94620651D01*
X83618106Y-94900000D01*
X83645619Y-95179349D01*
X83727102Y-95447962D01*
X83859424Y-95695518D01*
X84037498Y-95912502D01*
X84254482Y-96090576D01*
X84403073Y-96170000D01*
X84254482Y-96249424D01*
X84037498Y-96427498D01*
X83859424Y-96644482D01*
X83727102Y-96892038D01*
X83645619Y-97160651D01*
X83618106Y-97440000D01*
X83645619Y-97719349D01*
X83727102Y-97987962D01*
X83859424Y-98235518D01*
X84037498Y-98452502D01*
X84254482Y-98630576D01*
X84403073Y-98710000D01*
X84254482Y-98789424D01*
X84037498Y-98967498D01*
X83859424Y-99184482D01*
X83727102Y-99432038D01*
X83645619Y-99700651D01*
X83618106Y-99980000D01*
X83645619Y-100259349D01*
X83727102Y-100527962D01*
X83859424Y-100775518D01*
X84037498Y-100992502D01*
X84254482Y-101170576D01*
X84403073Y-101250000D01*
X84254482Y-101329424D01*
X84037498Y-101507498D01*
X83859424Y-101724482D01*
X83727102Y-101972038D01*
X83645619Y-102240651D01*
X83618106Y-102520000D01*
X83645619Y-102799349D01*
X83727102Y-103067962D01*
X83859424Y-103315518D01*
X84037498Y-103532502D01*
X84254482Y-103710576D01*
X84403073Y-103790000D01*
X84254482Y-103869424D01*
X84037498Y-104047498D01*
X83859424Y-104264482D01*
X83727102Y-104512038D01*
X83645619Y-104780651D01*
X83618106Y-105060000D01*
X83645619Y-105339349D01*
X83727102Y-105607962D01*
X83859424Y-105855518D01*
X84037498Y-106072502D01*
X84254482Y-106250576D01*
X84403073Y-106330000D01*
X84254482Y-106409424D01*
X84037498Y-106587498D01*
X83859424Y-106804482D01*
X83727102Y-107052038D01*
X83645619Y-107320651D01*
X83618106Y-107600000D01*
X83645619Y-107879349D01*
X83727102Y-108147962D01*
X83859424Y-108395518D01*
X84037498Y-108612502D01*
X84254482Y-108790576D01*
X84403073Y-108870000D01*
X84254482Y-108949424D01*
X84037498Y-109127498D01*
X83859424Y-109344482D01*
X83727102Y-109592038D01*
X83645619Y-109860651D01*
X83618106Y-110140000D01*
X83645619Y-110419349D01*
X83727102Y-110687962D01*
X83859424Y-110935518D01*
X84037498Y-111152502D01*
X84254482Y-111330576D01*
X84403073Y-111410000D01*
X84254482Y-111489424D01*
X84037498Y-111667498D01*
X83859424Y-111884482D01*
X83727102Y-112132038D01*
X83645619Y-112400651D01*
X83618106Y-112680000D01*
X83645619Y-112959349D01*
X83727102Y-113227962D01*
X83859424Y-113475518D01*
X84037498Y-113692502D01*
X84254482Y-113870576D01*
X84403073Y-113950000D01*
X84254482Y-114029424D01*
X84037498Y-114207498D01*
X83859424Y-114424482D01*
X83727102Y-114672038D01*
X83645619Y-114940651D01*
X83618106Y-115220000D01*
X83645619Y-115499349D01*
X83727102Y-115767962D01*
X83859424Y-116015518D01*
X84037498Y-116232502D01*
X84254482Y-116410576D01*
X84403073Y-116490000D01*
X84254482Y-116569424D01*
X84037498Y-116747498D01*
X83859424Y-116964482D01*
X83727102Y-117212038D01*
X83645619Y-117480651D01*
X83618106Y-117760000D01*
X83645619Y-118039349D01*
X83727102Y-118307962D01*
X83859424Y-118555518D01*
X84037498Y-118772502D01*
X84254482Y-118950576D01*
X84403073Y-119030000D01*
X84254482Y-119109424D01*
X84037498Y-119287498D01*
X83859424Y-119504482D01*
X83727102Y-119752038D01*
X83645619Y-120020651D01*
X83618106Y-120300000D01*
X83645619Y-120579349D01*
X83727102Y-120847962D01*
X83859424Y-121095518D01*
X84037498Y-121312502D01*
X84254482Y-121490576D01*
X84403073Y-121570000D01*
X84254482Y-121649424D01*
X84037498Y-121827498D01*
X83859424Y-122044482D01*
X83727102Y-122292038D01*
X83645619Y-122560651D01*
X83618106Y-122840000D01*
X83645619Y-123119349D01*
X83727102Y-123387962D01*
X83859424Y-123635518D01*
X84037498Y-123852502D01*
X84254482Y-124030576D01*
X84403073Y-124110000D01*
X84254482Y-124189424D01*
X84037498Y-124367498D01*
X83859424Y-124584482D01*
X83727102Y-124832038D01*
X83645619Y-125100651D01*
X83618106Y-125380000D01*
X83645619Y-125659349D01*
X83727102Y-125927962D01*
X83859424Y-126175518D01*
X84037498Y-126392502D01*
X84254482Y-126570576D01*
X84403073Y-126650000D01*
X84254482Y-126729424D01*
X84037498Y-126907498D01*
X83859424Y-127124482D01*
X83727102Y-127372038D01*
X83645619Y-127640651D01*
X83618106Y-127920000D01*
X83645619Y-128199349D01*
X83727102Y-128467962D01*
X83859424Y-128715518D01*
X84037498Y-128932502D01*
X84254482Y-129110576D01*
X84403073Y-129190000D01*
X84254482Y-129269424D01*
X84037498Y-129447498D01*
X83859424Y-129664482D01*
X83727102Y-129912038D01*
X83645619Y-130180651D01*
X83618106Y-130460000D01*
X83645619Y-130739349D01*
X83727102Y-131007962D01*
X83859424Y-131255518D01*
X84037498Y-131472502D01*
X84254482Y-131650576D01*
X84403073Y-131730000D01*
X84254482Y-131809424D01*
X84037498Y-131987498D01*
X83859424Y-132204482D01*
X83727102Y-132452038D01*
X83645619Y-132720651D01*
X83618106Y-133000000D01*
X83645619Y-133279349D01*
X83727102Y-133547962D01*
X83859424Y-133795518D01*
X84037498Y-134012502D01*
X84254482Y-134190576D01*
X84502038Y-134322898D01*
X84625001Y-134360198D01*
X84625001Y-134797192D01*
X84619800Y-134850000D01*
X84640555Y-135060736D01*
X84702025Y-135263375D01*
X84801846Y-135450127D01*
X84902521Y-135572800D01*
X84902527Y-135572806D01*
X84936184Y-135613817D01*
X84977195Y-135647474D01*
X87052525Y-137722805D01*
X87086183Y-137763817D01*
X87127194Y-137797474D01*
X87127199Y-137797479D01*
X87249872Y-137898154D01*
X87436625Y-137997976D01*
X87639263Y-138059445D01*
X87797194Y-138075000D01*
X87797201Y-138075000D01*
X87849999Y-138080200D01*
X87902797Y-138075000D01*
X136447202Y-138075000D01*
X136500000Y-138080200D01*
X136552798Y-138075000D01*
X136552806Y-138075000D01*
X136710737Y-138059445D01*
X136913375Y-137997976D01*
X137100128Y-137898154D01*
X137263817Y-137763817D01*
X137297479Y-137722800D01*
X139222805Y-135797475D01*
X139263817Y-135763817D01*
X139297474Y-135722806D01*
X139297479Y-135722801D01*
X139398154Y-135600128D01*
X139478331Y-135450128D01*
X139497976Y-135413375D01*
X139559445Y-135210737D01*
X139575000Y-135052806D01*
X139575000Y-135052799D01*
X139580200Y-135000001D01*
X139575000Y-134947203D01*
X139575000Y-126800198D01*
X139697962Y-126762898D01*
X139945518Y-126630576D01*
X140162502Y-126452502D01*
X140340576Y-126235518D01*
X140472898Y-125987962D01*
X140554381Y-125719349D01*
X140581894Y-125440000D01*
X140554381Y-125160651D01*
X140472898Y-124892038D01*
X140340576Y-124644482D01*
X140162502Y-124427498D01*
X139945518Y-124249424D01*
X139697962Y-124117102D01*
X139545810Y-124070947D01*
X139560623Y-124067321D01*
X139780466Y-123964783D01*
X139976081Y-123821326D01*
X140139950Y-123642463D01*
X140265776Y-123435067D01*
X140320133Y-123262512D01*
X140267632Y-123075000D01*
X138675000Y-123075000D01*
X138675000Y-123095000D01*
X138325000Y-123095000D01*
X138325000Y-123075000D01*
X136732368Y-123075000D01*
X136679867Y-123262512D01*
X136734224Y-123435067D01*
X136860050Y-123642463D01*
X137023919Y-123821326D01*
X137219534Y-123964783D01*
X137439377Y-124067321D01*
X137454190Y-124070947D01*
X137302038Y-124117102D01*
X137054482Y-124249424D01*
X136837498Y-124427498D01*
X136659424Y-124644482D01*
X136527102Y-124892038D01*
X136445619Y-125160651D01*
X136418106Y-125440000D01*
X136445619Y-125719349D01*
X136527102Y-125987962D01*
X136659424Y-126235518D01*
X136837498Y-126452502D01*
X137054482Y-126630576D01*
X137302038Y-126762898D01*
X137425001Y-126800198D01*
X137425000Y-134554720D01*
X136054721Y-135925000D01*
X88295280Y-135925000D01*
X86775000Y-134404721D01*
X86775000Y-134360198D01*
X86897962Y-134322898D01*
X87145518Y-134190576D01*
X87362502Y-134012502D01*
X87540576Y-133795518D01*
X87672898Y-133547962D01*
X87754381Y-133279349D01*
X87781894Y-133000000D01*
X87754381Y-132720651D01*
X87672898Y-132452038D01*
X87540576Y-132204482D01*
X87362502Y-131987498D01*
X87145518Y-131809424D01*
X86996927Y-131730000D01*
X87145518Y-131650576D01*
X87286348Y-131535000D01*
X98897556Y-131535000D01*
X98947004Y-131550000D01*
X98852012Y-131578816D01*
X98660916Y-131680958D01*
X98493419Y-131818419D01*
X98355958Y-131985916D01*
X98253816Y-132177012D01*
X98190916Y-132384362D01*
X98169678Y-132600000D01*
X98190916Y-132815638D01*
X98253816Y-133022988D01*
X98355958Y-133214084D01*
X98493419Y-133381581D01*
X98660916Y-133519042D01*
X98852012Y-133621184D01*
X99059362Y-133684084D01*
X99220964Y-133700000D01*
X100779036Y-133700000D01*
X100940638Y-133684084D01*
X100970583Y-133675000D01*
X127347202Y-133675000D01*
X127400000Y-133680200D01*
X127452798Y-133675000D01*
X127452806Y-133675000D01*
X127610737Y-133659445D01*
X127813375Y-133597976D01*
X128000128Y-133498154D01*
X128163817Y-133363817D01*
X128197479Y-133322800D01*
X131722805Y-129797475D01*
X131763817Y-129763817D01*
X131797474Y-129722806D01*
X131797479Y-129722801D01*
X131898154Y-129600128D01*
X131971972Y-129462024D01*
X131997976Y-129413375D01*
X132059445Y-129210737D01*
X132075000Y-129052806D01*
X132075000Y-129052798D01*
X132080200Y-129000000D01*
X132075000Y-128947202D01*
X132075000Y-112445279D01*
X132945280Y-111575000D01*
X137023318Y-111575000D01*
X136837498Y-111727498D01*
X136659424Y-111944482D01*
X136527102Y-112192038D01*
X136445619Y-112460651D01*
X136418106Y-112740000D01*
X136445619Y-113019349D01*
X136527102Y-113287962D01*
X136659424Y-113535518D01*
X136837498Y-113752502D01*
X137054482Y-113930576D01*
X137203073Y-114010000D01*
X137054482Y-114089424D01*
X136837498Y-114267498D01*
X136659424Y-114484482D01*
X136527102Y-114732038D01*
X136445619Y-115000651D01*
X136418106Y-115280000D01*
X136445619Y-115559349D01*
X136527102Y-115827962D01*
X136659424Y-116075518D01*
X136837498Y-116292502D01*
X137054482Y-116470576D01*
X137203073Y-116550000D01*
X137054482Y-116629424D01*
X136837498Y-116807498D01*
X136659424Y-117024482D01*
X136527102Y-117272038D01*
X136445619Y-117540651D01*
X136418106Y-117820000D01*
X136445619Y-118099349D01*
X136527102Y-118367962D01*
X136659424Y-118615518D01*
X136837498Y-118832502D01*
X137054482Y-119010576D01*
X137203073Y-119090000D01*
X137054482Y-119169424D01*
X136837498Y-119347498D01*
X136659424Y-119564482D01*
X136527102Y-119812038D01*
X136445619Y-120080651D01*
X136418106Y-120360000D01*
X136445619Y-120639349D01*
X136527102Y-120907962D01*
X136659424Y-121155518D01*
X136837498Y-121372502D01*
X137054482Y-121550576D01*
X137302038Y-121682898D01*
X137454190Y-121729053D01*
X137439377Y-121732679D01*
X137219534Y-121835217D01*
X137023919Y-121978674D01*
X136860050Y-122157537D01*
X136734224Y-122364933D01*
X136679867Y-122537488D01*
X136732368Y-122725000D01*
X138325000Y-122725000D01*
X138325000Y-122705000D01*
X138675000Y-122705000D01*
X138675000Y-122725000D01*
X140267632Y-122725000D01*
X140320133Y-122537488D01*
X140265776Y-122364933D01*
X140139950Y-122157537D01*
X139976081Y-121978674D01*
X139780466Y-121835217D01*
X139560623Y-121732679D01*
X139545810Y-121729053D01*
X139697962Y-121682898D01*
X139945518Y-121550576D01*
X140162502Y-121372502D01*
X140340576Y-121155518D01*
X140472898Y-120907962D01*
X140554381Y-120639349D01*
X140581894Y-120360000D01*
X140554381Y-120080651D01*
X140472898Y-119812038D01*
X140340576Y-119564482D01*
X140162502Y-119347498D01*
X139945518Y-119169424D01*
X139796927Y-119090000D01*
X139945518Y-119010576D01*
X140162502Y-118832502D01*
X140340576Y-118615518D01*
X140472898Y-118367962D01*
X140554381Y-118099349D01*
X140581894Y-117820000D01*
X140554381Y-117540651D01*
X140472898Y-117272038D01*
X140340576Y-117024482D01*
X140162502Y-116807498D01*
X139945518Y-116629424D01*
X139796927Y-116550000D01*
X139945518Y-116470576D01*
X140162502Y-116292502D01*
X140340576Y-116075518D01*
X140472898Y-115827962D01*
X140554381Y-115559349D01*
X140581894Y-115280000D01*
X140554381Y-115000651D01*
X140472898Y-114732038D01*
X140340576Y-114484482D01*
X140162502Y-114267498D01*
X139945518Y-114089424D01*
X139796927Y-114010000D01*
X139945518Y-113930576D01*
X140162502Y-113752502D01*
X140340576Y-113535518D01*
X140472898Y-113287962D01*
X140554381Y-113019349D01*
X140581894Y-112740000D01*
X140554381Y-112460651D01*
X140472898Y-112192038D01*
X140340576Y-111944482D01*
X140162502Y-111727498D01*
X139945518Y-111549424D01*
X139796927Y-111470000D01*
X139945518Y-111390576D01*
X140162502Y-111212502D01*
X140340576Y-110995518D01*
X140472898Y-110747962D01*
X140554381Y-110479349D01*
X140581894Y-110200000D01*
X140554381Y-109920651D01*
X140472898Y-109652038D01*
X140340576Y-109404482D01*
X140162502Y-109187498D01*
X139945518Y-109009424D01*
X139796927Y-108930000D01*
X139945518Y-108850576D01*
X140162502Y-108672502D01*
X140340576Y-108455518D01*
X140472898Y-108207962D01*
X140554381Y-107939349D01*
X140581894Y-107660000D01*
X140554381Y-107380651D01*
X140472898Y-107112038D01*
X140340576Y-106864482D01*
X140162502Y-106647498D01*
X139945518Y-106469424D01*
X139796927Y-106390000D01*
X139945518Y-106310576D01*
X140162502Y-106132502D01*
X140340576Y-105915518D01*
X140472898Y-105667962D01*
X140554381Y-105399349D01*
X140581894Y-105120000D01*
X140554381Y-104840651D01*
X140472898Y-104572038D01*
X140340576Y-104324482D01*
X140162502Y-104107498D01*
X139945518Y-103929424D01*
X139796927Y-103850000D01*
X139945518Y-103770576D01*
X140162502Y-103592502D01*
X140340576Y-103375518D01*
X140472898Y-103127962D01*
X140554381Y-102859349D01*
X140581894Y-102580000D01*
X140554381Y-102300651D01*
X140472898Y-102032038D01*
X140340576Y-101784482D01*
X140162502Y-101567498D01*
X139945518Y-101389424D01*
X139796927Y-101310000D01*
X139945518Y-101230576D01*
X140162502Y-101052502D01*
X140340576Y-100835518D01*
X140472898Y-100587962D01*
X140554381Y-100319349D01*
X140581894Y-100040000D01*
X140554381Y-99760651D01*
X140472898Y-99492038D01*
X140340576Y-99244482D01*
X140162502Y-99027498D01*
X139945518Y-98849424D01*
X139796927Y-98770000D01*
X139945518Y-98690576D01*
X140162502Y-98512502D01*
X140340576Y-98295518D01*
X140472898Y-98047962D01*
X140554381Y-97779349D01*
X140581894Y-97500000D01*
X140554381Y-97220651D01*
X140472898Y-96952038D01*
X140340576Y-96704482D01*
X140162502Y-96487498D01*
X139945518Y-96309424D01*
X139697962Y-96177102D01*
X139429349Y-96095619D01*
X139219997Y-96075000D01*
X137780003Y-96075000D01*
X137570651Y-96095619D01*
X137302038Y-96177102D01*
X137054482Y-96309424D01*
X136837498Y-96487498D01*
X136659424Y-96704482D01*
X136527102Y-96952038D01*
X136445619Y-97220651D01*
X136418106Y-97500000D01*
X136445619Y-97779349D01*
X136527102Y-98047962D01*
X136659424Y-98295518D01*
X136837498Y-98512502D01*
X137054482Y-98690576D01*
X137203073Y-98770000D01*
X137054482Y-98849424D01*
X136837498Y-99027498D01*
X136659424Y-99244482D01*
X136527102Y-99492038D01*
X136445619Y-99760651D01*
X136418106Y-100040000D01*
X136445619Y-100319349D01*
X136527102Y-100587962D01*
X136659424Y-100835518D01*
X136837498Y-101052502D01*
X137054482Y-101230576D01*
X137203073Y-101310000D01*
X137054482Y-101389424D01*
X136837498Y-101567498D01*
X136659424Y-101784482D01*
X136527102Y-102032038D01*
X136445619Y-102300651D01*
X136418106Y-102580000D01*
X136445619Y-102859349D01*
X136527102Y-103127962D01*
X136659424Y-103375518D01*
X136837498Y-103592502D01*
X137054482Y-103770576D01*
X137203073Y-103850000D01*
X137054482Y-103929424D01*
X136837498Y-104107498D01*
X136659424Y-104324482D01*
X136527102Y-104572038D01*
X136445619Y-104840651D01*
X136418106Y-105120000D01*
X136445619Y-105399349D01*
X136527102Y-105667962D01*
X136659424Y-105915518D01*
X136837498Y-106132502D01*
X137054482Y-106310576D01*
X137203073Y-106390000D01*
X137054482Y-106469424D01*
X136837498Y-106647498D01*
X136659424Y-106864482D01*
X136527102Y-107112038D01*
X136445619Y-107380651D01*
X136418106Y-107660000D01*
X136445619Y-107939349D01*
X136527102Y-108207962D01*
X136659424Y-108455518D01*
X136837498Y-108672502D01*
X137054482Y-108850576D01*
X137203073Y-108930000D01*
X137054482Y-109009424D01*
X136837498Y-109187498D01*
X136659424Y-109404482D01*
X136648457Y-109425000D01*
X132552797Y-109425000D01*
X132499999Y-109419800D01*
X132447201Y-109425000D01*
X132447194Y-109425000D01*
X132289263Y-109440555D01*
X132086625Y-109502024D01*
X131928348Y-109586625D01*
X131899872Y-109601846D01*
X131777199Y-109702521D01*
X131777194Y-109702526D01*
X131736183Y-109736183D01*
X131702525Y-109777195D01*
X130277195Y-111202526D01*
X130236184Y-111236183D01*
X130202527Y-111277194D01*
X130202521Y-111277200D01*
X130101846Y-111399873D01*
X130002025Y-111586625D01*
X129940555Y-111789264D01*
X129919800Y-112000000D01*
X129925001Y-112052808D01*
X129925000Y-128554720D01*
X126954721Y-131525000D01*
X101135409Y-131525000D01*
X101147988Y-131521184D01*
X101339084Y-131419042D01*
X101506581Y-131281581D01*
X101644042Y-131114084D01*
X101746184Y-130922988D01*
X101809084Y-130715638D01*
X101830322Y-130500000D01*
X101809084Y-130284362D01*
X101746184Y-130077012D01*
X101644042Y-129885916D01*
X101506581Y-129718419D01*
X101339084Y-129580958D01*
X101147988Y-129478816D01*
X100940638Y-129415916D01*
X100779036Y-129400000D01*
X100165102Y-129400000D01*
X100012806Y-129385000D01*
X100012798Y-129385000D01*
X99960000Y-129379800D01*
X99907202Y-129385000D01*
X87286348Y-129385000D01*
X87145518Y-129269424D01*
X86996927Y-129190000D01*
X87145518Y-129110576D01*
X87362502Y-128932502D01*
X87368658Y-128925000D01*
X98373186Y-128925000D01*
X98380426Y-128998513D01*
X98401869Y-129069200D01*
X98436691Y-129134347D01*
X98483552Y-129191448D01*
X98540653Y-129238309D01*
X98605800Y-129273131D01*
X98676487Y-129294574D01*
X98750000Y-129301814D01*
X99731250Y-129300000D01*
X99825000Y-129206250D01*
X99825000Y-128575000D01*
X100175000Y-128575000D01*
X100175000Y-129206250D01*
X100268750Y-129300000D01*
X101250000Y-129301814D01*
X101323513Y-129294574D01*
X101394200Y-129273131D01*
X101459347Y-129238309D01*
X101516448Y-129191448D01*
X101563309Y-129134347D01*
X101598131Y-129069200D01*
X101619574Y-128998513D01*
X101626814Y-128925000D01*
X101625000Y-128668750D01*
X101531250Y-128575000D01*
X100175000Y-128575000D01*
X99825000Y-128575000D01*
X98468750Y-128575000D01*
X98375000Y-128668750D01*
X98373186Y-128925000D01*
X87368658Y-128925000D01*
X87540576Y-128715518D01*
X87672898Y-128467962D01*
X87754381Y-128199349D01*
X87781894Y-127920000D01*
X87777462Y-127875000D01*
X98373186Y-127875000D01*
X98375000Y-128131250D01*
X98468750Y-128225000D01*
X99825000Y-128225000D01*
X99825000Y-127593750D01*
X100175000Y-127593750D01*
X100175000Y-128225000D01*
X101531250Y-128225000D01*
X101625000Y-128131250D01*
X101626814Y-127875000D01*
X101619574Y-127801487D01*
X101598131Y-127730800D01*
X101563309Y-127665653D01*
X101516448Y-127608552D01*
X101459347Y-127561691D01*
X101394200Y-127526869D01*
X101323513Y-127505426D01*
X101250000Y-127498186D01*
X100268750Y-127500000D01*
X100175000Y-127593750D01*
X99825000Y-127593750D01*
X99731250Y-127500000D01*
X98750000Y-127498186D01*
X98676487Y-127505426D01*
X98605800Y-127526869D01*
X98540653Y-127561691D01*
X98483552Y-127608552D01*
X98436691Y-127665653D01*
X98401869Y-127730800D01*
X98380426Y-127801487D01*
X98373186Y-127875000D01*
X87777462Y-127875000D01*
X87754381Y-127640651D01*
X87672898Y-127372038D01*
X87540576Y-127124482D01*
X87362502Y-126907498D01*
X87145518Y-126729424D01*
X86996927Y-126650000D01*
X87145518Y-126570576D01*
X87362502Y-126392502D01*
X87540576Y-126175518D01*
X87672898Y-125927962D01*
X87754381Y-125659349D01*
X87781894Y-125380000D01*
X87754381Y-125100651D01*
X87672898Y-124832038D01*
X87540576Y-124584482D01*
X87362502Y-124367498D01*
X87145518Y-124189424D01*
X86996927Y-124110000D01*
X87145518Y-124030576D01*
X87362502Y-123852502D01*
X87540576Y-123635518D01*
X87672898Y-123387962D01*
X87754381Y-123119349D01*
X87781894Y-122840000D01*
X87754381Y-122560651D01*
X87672898Y-122292038D01*
X87540576Y-122044482D01*
X87362502Y-121827498D01*
X87145518Y-121649424D01*
X86996927Y-121570000D01*
X87145518Y-121490576D01*
X87286348Y-121375000D01*
X89854721Y-121375000D01*
X90702525Y-122222805D01*
X90736183Y-122263817D01*
X90777194Y-122297474D01*
X90777199Y-122297479D01*
X90859392Y-122364933D01*
X90899872Y-122398154D01*
X91086625Y-122497976D01*
X91289263Y-122559445D01*
X91447194Y-122575000D01*
X91447201Y-122575000D01*
X91499999Y-122580200D01*
X91552797Y-122575000D01*
X96468279Y-122575000D01*
X96519592Y-122670998D01*
X96591446Y-122758554D01*
X96679002Y-122830408D01*
X96778892Y-122883801D01*
X96887280Y-122916680D01*
X97000000Y-122927782D01*
X100000000Y-122927782D01*
X100112720Y-122916680D01*
X100221108Y-122883801D01*
X100320998Y-122830408D01*
X100408554Y-122758554D01*
X100480408Y-122670998D01*
X100533801Y-122571108D01*
X100566680Y-122462720D01*
X100577782Y-122350000D01*
X100577782Y-120650000D01*
X100566680Y-120537280D01*
X100533801Y-120428892D01*
X100480408Y-120329002D01*
X100408554Y-120241446D01*
X100320998Y-120169592D01*
X100221108Y-120116199D01*
X100112720Y-120083320D01*
X100036605Y-120075823D01*
X100037608Y-120075000D01*
X104947202Y-120075000D01*
X105000000Y-120080200D01*
X105052798Y-120075000D01*
X105052806Y-120075000D01*
X105210737Y-120059445D01*
X105413375Y-119997976D01*
X105600128Y-119898154D01*
X105763817Y-119763817D01*
X105797479Y-119722800D01*
X106445279Y-119075000D01*
X111175010Y-119075000D01*
X111203073Y-119090000D01*
X111054482Y-119169424D01*
X110837498Y-119347498D01*
X110659424Y-119564482D01*
X110527102Y-119812038D01*
X110445619Y-120080651D01*
X110418106Y-120360000D01*
X110445619Y-120639349D01*
X110527102Y-120907962D01*
X110659424Y-121155518D01*
X110837498Y-121372502D01*
X111054482Y-121550576D01*
X111203073Y-121630000D01*
X111054482Y-121709424D01*
X110837498Y-121887498D01*
X110659424Y-122104482D01*
X110527102Y-122352038D01*
X110445619Y-122620651D01*
X110418106Y-122900000D01*
X110445619Y-123179349D01*
X110527102Y-123447962D01*
X110659424Y-123695518D01*
X110837498Y-123912502D01*
X111054482Y-124090576D01*
X111203073Y-124170000D01*
X111054482Y-124249424D01*
X110837498Y-124427498D01*
X110659424Y-124644482D01*
X110527102Y-124892038D01*
X110445619Y-125160651D01*
X110418106Y-125440000D01*
X110445619Y-125719349D01*
X110527102Y-125987962D01*
X110659424Y-126235518D01*
X110837498Y-126452502D01*
X111054482Y-126630576D01*
X111302038Y-126762898D01*
X111570651Y-126844381D01*
X111780003Y-126865000D01*
X113219997Y-126865000D01*
X113429349Y-126844381D01*
X113697962Y-126762898D01*
X113945518Y-126630576D01*
X114162502Y-126452502D01*
X114340576Y-126235518D01*
X114472898Y-125987962D01*
X114554381Y-125719349D01*
X114581894Y-125440000D01*
X114554381Y-125160651D01*
X114472898Y-124892038D01*
X114340576Y-124644482D01*
X114162502Y-124427498D01*
X113945518Y-124249424D01*
X113796927Y-124170000D01*
X113945518Y-124090576D01*
X114162502Y-123912502D01*
X114340576Y-123695518D01*
X114472898Y-123447962D01*
X114554381Y-123179349D01*
X114581894Y-122900000D01*
X114554381Y-122620651D01*
X114472898Y-122352038D01*
X114340576Y-122104482D01*
X114162502Y-121887498D01*
X113945518Y-121709424D01*
X113796927Y-121630000D01*
X113945518Y-121550576D01*
X114162502Y-121372502D01*
X114340576Y-121155518D01*
X114472898Y-120907962D01*
X114554381Y-120639349D01*
X114581894Y-120360000D01*
X114554381Y-120080651D01*
X114472898Y-119812038D01*
X114340576Y-119564482D01*
X114162502Y-119347498D01*
X113945518Y-119169424D01*
X113796927Y-119090000D01*
X113945518Y-119010576D01*
X114162502Y-118832502D01*
X114340576Y-118615518D01*
X114472898Y-118367962D01*
X114554381Y-118099349D01*
X114581894Y-117820000D01*
X114554381Y-117540651D01*
X114472898Y-117272038D01*
X114340576Y-117024482D01*
X114162502Y-116807498D01*
X113945518Y-116629424D01*
X113796927Y-116550000D01*
X113945518Y-116470576D01*
X114162502Y-116292502D01*
X114340576Y-116075518D01*
X114472898Y-115827962D01*
X114554381Y-115559349D01*
X114581894Y-115280000D01*
X114554381Y-115000651D01*
X114472898Y-114732038D01*
X114340576Y-114484482D01*
X114162502Y-114267498D01*
X113945518Y-114089424D01*
X113796927Y-114010000D01*
X113945518Y-113930576D01*
X114162502Y-113752502D01*
X114340576Y-113535518D01*
X114472898Y-113287962D01*
X114554381Y-113019349D01*
X114581894Y-112740000D01*
X114554381Y-112460651D01*
X114472898Y-112192038D01*
X114340576Y-111944482D01*
X114162502Y-111727498D01*
X113945518Y-111549424D01*
X113796927Y-111470000D01*
X113945518Y-111390576D01*
X114162502Y-111212502D01*
X114340576Y-110995518D01*
X114472898Y-110747962D01*
X114554381Y-110479349D01*
X114581894Y-110200000D01*
X114554381Y-109920651D01*
X114472898Y-109652038D01*
X114340576Y-109404482D01*
X114162502Y-109187498D01*
X113945518Y-109009424D01*
X113796927Y-108930000D01*
X113945518Y-108850576D01*
X114162502Y-108672502D01*
X114340576Y-108455518D01*
X114472898Y-108207962D01*
X114554381Y-107939349D01*
X114581894Y-107660000D01*
X114554381Y-107380651D01*
X114472898Y-107112038D01*
X114340576Y-106864482D01*
X114162502Y-106647498D01*
X113945518Y-106469424D01*
X113796927Y-106390000D01*
X113945518Y-106310576D01*
X114162502Y-106132502D01*
X114340576Y-105915518D01*
X114472898Y-105667962D01*
X114554381Y-105399349D01*
X114581894Y-105120000D01*
X114554381Y-104840651D01*
X114472898Y-104572038D01*
X114340576Y-104324482D01*
X114162502Y-104107498D01*
X113945518Y-103929424D01*
X113796927Y-103850000D01*
X113945518Y-103770576D01*
X114162502Y-103592502D01*
X114340576Y-103375518D01*
X114472898Y-103127962D01*
X114554381Y-102859349D01*
X114581894Y-102580000D01*
X114554381Y-102300651D01*
X114472898Y-102032038D01*
X114340576Y-101784482D01*
X114162502Y-101567498D01*
X113945518Y-101389424D01*
X113697962Y-101257102D01*
X113545810Y-101210947D01*
X113560623Y-101207321D01*
X113780466Y-101104783D01*
X113976081Y-100961326D01*
X114139950Y-100782463D01*
X114265776Y-100575067D01*
X114320133Y-100402512D01*
X114267632Y-100215000D01*
X112675000Y-100215000D01*
X112675000Y-100235000D01*
X112325000Y-100235000D01*
X112325000Y-100215000D01*
X110732368Y-100215000D01*
X110679867Y-100402512D01*
X110734224Y-100575067D01*
X110860050Y-100782463D01*
X111023919Y-100961326D01*
X111219534Y-101104783D01*
X111439377Y-101207321D01*
X111454190Y-101210947D01*
X111302038Y-101257102D01*
X111054482Y-101389424D01*
X110837498Y-101567498D01*
X110659424Y-101784482D01*
X110527102Y-102032038D01*
X110445619Y-102300651D01*
X110418106Y-102580000D01*
X110445619Y-102859349D01*
X110527102Y-103127962D01*
X110659424Y-103375518D01*
X110837498Y-103592502D01*
X111054482Y-103770576D01*
X111203073Y-103850000D01*
X111054482Y-103929424D01*
X110837498Y-104107498D01*
X110659424Y-104324482D01*
X110527102Y-104572038D01*
X110445619Y-104840651D01*
X110418106Y-105120000D01*
X110445619Y-105399349D01*
X110527102Y-105667962D01*
X110659424Y-105915518D01*
X110837498Y-106132502D01*
X111054482Y-106310576D01*
X111203073Y-106390000D01*
X111054482Y-106469424D01*
X110837498Y-106647498D01*
X110659424Y-106864482D01*
X110527102Y-107112038D01*
X110445619Y-107380651D01*
X110418106Y-107660000D01*
X110445619Y-107939349D01*
X110527102Y-108207962D01*
X110659424Y-108455518D01*
X110837498Y-108672502D01*
X111054482Y-108850576D01*
X111203073Y-108930000D01*
X111054482Y-109009424D01*
X110837498Y-109187498D01*
X110659424Y-109404482D01*
X110527102Y-109652038D01*
X110445619Y-109920651D01*
X110418106Y-110200000D01*
X110445619Y-110479349D01*
X110527102Y-110747962D01*
X110659424Y-110995518D01*
X110837498Y-111212502D01*
X111054482Y-111390576D01*
X111203073Y-111470000D01*
X111054482Y-111549424D01*
X110837498Y-111727498D01*
X110659424Y-111944482D01*
X110527102Y-112192038D01*
X110445619Y-112460651D01*
X110418106Y-112740000D01*
X110445619Y-113019349D01*
X110527102Y-113287962D01*
X110659424Y-113535518D01*
X110837498Y-113752502D01*
X111047688Y-113925000D01*
X106445279Y-113925000D01*
X105797479Y-113277200D01*
X105763817Y-113236183D01*
X105600128Y-113101846D01*
X105413375Y-113002024D01*
X105210737Y-112940555D01*
X105052806Y-112925000D01*
X105052798Y-112925000D01*
X105000000Y-112919800D01*
X104947202Y-112925000D01*
X100209693Y-112925000D01*
X100162502Y-112867498D01*
X99945518Y-112689424D01*
X99796927Y-112610000D01*
X99945518Y-112530576D01*
X100162502Y-112352502D01*
X100340576Y-112135518D01*
X100472898Y-111887962D01*
X100554381Y-111619349D01*
X100581894Y-111340000D01*
X100554381Y-111060651D01*
X100472898Y-110792038D01*
X100340576Y-110544482D01*
X100162502Y-110327498D01*
X99945518Y-110149424D01*
X99697962Y-110017102D01*
X99545810Y-109970947D01*
X99560623Y-109967321D01*
X99780466Y-109864783D01*
X99976081Y-109721326D01*
X100139950Y-109542463D01*
X100265776Y-109335067D01*
X100320133Y-109162512D01*
X100267632Y-108975000D01*
X98675000Y-108975000D01*
X98675000Y-108995000D01*
X98325000Y-108995000D01*
X98325000Y-108975000D01*
X96732368Y-108975000D01*
X96679867Y-109162512D01*
X96734224Y-109335067D01*
X96860050Y-109542463D01*
X97023919Y-109721326D01*
X97219534Y-109864783D01*
X97439377Y-109967321D01*
X97454190Y-109970947D01*
X97302038Y-110017102D01*
X97054482Y-110149424D01*
X96837498Y-110327498D01*
X96757480Y-110425000D01*
X92545280Y-110425000D01*
X90557768Y-108437488D01*
X96679867Y-108437488D01*
X96732368Y-108625000D01*
X98325000Y-108625000D01*
X98325000Y-107575000D01*
X98675000Y-107575000D01*
X98675000Y-108625000D01*
X100267632Y-108625000D01*
X100320133Y-108437488D01*
X100265776Y-108264933D01*
X100139950Y-108057537D01*
X99976081Y-107878674D01*
X99780466Y-107735217D01*
X99560623Y-107632679D01*
X99325000Y-107575000D01*
X98675000Y-107575000D01*
X98325000Y-107575000D01*
X97675000Y-107575000D01*
X97439377Y-107632679D01*
X97219534Y-107735217D01*
X97023919Y-107878674D01*
X96860050Y-108057537D01*
X96734224Y-108264933D01*
X96679867Y-108437488D01*
X90557768Y-108437488D01*
X88997479Y-106877200D01*
X88963817Y-106836183D01*
X88800128Y-106701846D01*
X88613375Y-106602024D01*
X88410737Y-106540555D01*
X88252806Y-106525000D01*
X88252798Y-106525000D01*
X88200000Y-106519800D01*
X88147202Y-106525000D01*
X87286348Y-106525000D01*
X87145518Y-106409424D01*
X86996927Y-106330000D01*
X87145518Y-106250576D01*
X87362502Y-106072502D01*
X87540576Y-105855518D01*
X87672898Y-105607962D01*
X87754381Y-105339349D01*
X87781894Y-105060000D01*
X87754381Y-104780651D01*
X87672898Y-104512038D01*
X87540576Y-104264482D01*
X87362502Y-104047498D01*
X87145518Y-103869424D01*
X86996927Y-103790000D01*
X87145518Y-103710576D01*
X87362502Y-103532502D01*
X87540576Y-103315518D01*
X87672898Y-103067962D01*
X87754381Y-102799349D01*
X87781894Y-102520000D01*
X87754381Y-102240651D01*
X87672898Y-101972038D01*
X87540576Y-101724482D01*
X87362502Y-101507498D01*
X87145518Y-101329424D01*
X86996927Y-101250000D01*
X87145518Y-101170576D01*
X87362502Y-100992502D01*
X87540576Y-100775518D01*
X87672898Y-100527962D01*
X87754381Y-100259349D01*
X87781894Y-99980000D01*
X87754381Y-99700651D01*
X87672898Y-99432038D01*
X87540576Y-99184482D01*
X87362502Y-98967498D01*
X87145518Y-98789424D01*
X86996927Y-98710000D01*
X87145518Y-98630576D01*
X87362502Y-98452502D01*
X87540576Y-98235518D01*
X87672898Y-97987962D01*
X87754381Y-97719349D01*
X87781894Y-97440000D01*
X87754381Y-97160651D01*
X87672898Y-96892038D01*
X87540576Y-96644482D01*
X87362502Y-96427498D01*
X87145518Y-96249424D01*
X86996927Y-96170000D01*
X87145518Y-96090576D01*
X87362502Y-95912502D01*
X87540576Y-95695518D01*
X87672898Y-95447962D01*
X87754381Y-95179349D01*
X87781894Y-94900000D01*
X87754381Y-94620651D01*
X87672898Y-94352038D01*
X87540576Y-94104482D01*
X87362502Y-93887498D01*
X87145518Y-93709424D01*
X86996927Y-93630000D01*
X87145518Y-93550576D01*
X87362502Y-93372502D01*
X87540576Y-93155518D01*
X87672898Y-92907962D01*
X87754381Y-92639349D01*
X87781894Y-92360000D01*
X87754381Y-92080651D01*
X87672898Y-91812038D01*
X87540576Y-91564482D01*
X87362502Y-91347498D01*
X87145518Y-91169424D01*
X86996927Y-91090000D01*
X87145518Y-91010576D01*
X87286348Y-90895000D01*
X98925001Y-90895000D01*
X98925000Y-95447202D01*
X98919800Y-95500000D01*
X98925000Y-95552798D01*
X98925000Y-95552805D01*
X98940555Y-95710736D01*
X99002024Y-95913374D01*
X99101846Y-96100128D01*
X99236183Y-96263817D01*
X99277200Y-96297479D01*
X101202525Y-98222805D01*
X101236183Y-98263817D01*
X101277194Y-98297474D01*
X101277199Y-98297479D01*
X101399872Y-98398154D01*
X101586625Y-98497976D01*
X101789263Y-98559445D01*
X101947194Y-98575000D01*
X101947201Y-98575000D01*
X101999999Y-98580200D01*
X102052797Y-98575000D01*
X110468279Y-98575000D01*
X110519592Y-98670998D01*
X110591446Y-98758554D01*
X110679002Y-98830408D01*
X110778892Y-98883801D01*
X110887280Y-98916680D01*
X111000000Y-98927782D01*
X111321235Y-98927782D01*
X111219534Y-98975217D01*
X111023919Y-99118674D01*
X110860050Y-99297537D01*
X110734224Y-99504933D01*
X110679867Y-99677488D01*
X110732368Y-99865000D01*
X112325000Y-99865000D01*
X112325000Y-99845000D01*
X112675000Y-99845000D01*
X112675000Y-99865000D01*
X114267632Y-99865000D01*
X114320133Y-99677488D01*
X114265776Y-99504933D01*
X114139950Y-99297537D01*
X113976081Y-99118674D01*
X113780466Y-98975217D01*
X113678765Y-98927782D01*
X114000000Y-98927782D01*
X114112720Y-98916680D01*
X114221108Y-98883801D01*
X114320998Y-98830408D01*
X114408554Y-98758554D01*
X114480408Y-98670998D01*
X114533801Y-98571108D01*
X114566680Y-98462720D01*
X114577782Y-98350000D01*
X114577782Y-96650000D01*
X114566680Y-96537280D01*
X114533801Y-96428892D01*
X114480408Y-96329002D01*
X114408554Y-96241446D01*
X114320998Y-96169592D01*
X114221108Y-96116199D01*
X114112720Y-96083320D01*
X114000000Y-96072218D01*
X111000000Y-96072218D01*
X110887280Y-96083320D01*
X110778892Y-96116199D01*
X110679002Y-96169592D01*
X110591446Y-96241446D01*
X110519592Y-96329002D01*
X110468279Y-96425000D01*
X102445280Y-96425000D01*
X101075000Y-95054721D01*
X101075000Y-89872806D01*
X101080201Y-89820000D01*
X101064442Y-89660000D01*
X101075000Y-89552806D01*
X101075000Y-73575000D01*
X101622218Y-73575000D01*
X101622218Y-74000000D01*
X101633320Y-74112720D01*
X101666199Y-74221108D01*
X101719592Y-74320998D01*
X101791446Y-74408554D01*
X101879002Y-74480408D01*
X101978892Y-74533801D01*
X102087280Y-74566680D01*
X102200000Y-74577782D01*
X103800000Y-74577782D01*
X103912720Y-74566680D01*
X104021108Y-74533801D01*
X104120998Y-74480408D01*
X104208554Y-74408554D01*
X104280408Y-74320998D01*
X104333801Y-74221108D01*
X104366680Y-74112720D01*
X104377782Y-74000000D01*
X104377782Y-72675000D01*
X105625000Y-72675000D01*
X105625000Y-73375000D01*
X105681718Y-73600869D01*
X105781411Y-73811332D01*
X105920248Y-73998302D01*
X106092893Y-74154594D01*
X106292712Y-74274201D01*
X106445394Y-74320214D01*
X106625000Y-74266994D01*
X106625000Y-72675000D01*
X106975000Y-72675000D01*
X106975000Y-74266994D01*
X107154606Y-74320214D01*
X107307288Y-74274201D01*
X107507107Y-74154594D01*
X107679752Y-73998302D01*
X107818589Y-73811332D01*
X107918282Y-73600869D01*
X107975000Y-73375000D01*
X107975000Y-72675000D01*
X106975000Y-72675000D01*
X106625000Y-72675000D01*
X105625000Y-72675000D01*
X104377782Y-72675000D01*
X104377782Y-71625000D01*
X105625000Y-71625000D01*
X105625000Y-72325000D01*
X106625000Y-72325000D01*
X106625000Y-70733006D01*
X106975000Y-70733006D01*
X106975000Y-72325000D01*
X107975000Y-72325000D01*
X107975000Y-71625000D01*
X107918282Y-71399131D01*
X107818589Y-71188668D01*
X107679752Y-71001698D01*
X107507107Y-70845406D01*
X107307288Y-70725799D01*
X107154606Y-70679786D01*
X106975000Y-70733006D01*
X106625000Y-70733006D01*
X106445394Y-70679786D01*
X106292712Y-70725799D01*
X106092893Y-70845406D01*
X105920248Y-71001698D01*
X105781411Y-71188668D01*
X105681718Y-71399131D01*
X105625000Y-71625000D01*
X104377782Y-71625000D01*
X104377782Y-71000000D01*
X104366680Y-70887280D01*
X104333801Y-70778892D01*
X104280408Y-70679002D01*
X104208554Y-70591446D01*
X104120998Y-70519592D01*
X104021108Y-70466199D01*
X103912720Y-70433320D01*
X103800000Y-70422218D01*
X102200000Y-70422218D01*
X102087280Y-70433320D01*
X101978892Y-70466199D01*
X101879002Y-70519592D01*
X101791446Y-70591446D01*
X101719592Y-70679002D01*
X101666199Y-70778892D01*
X101633320Y-70887280D01*
X101622218Y-71000000D01*
X101622218Y-71425000D01*
X101075000Y-71425000D01*
X101075000Y-65500000D01*
X114623186Y-65500000D01*
X114630426Y-65573513D01*
X114651869Y-65644200D01*
X114686691Y-65709347D01*
X114733552Y-65766448D01*
X114790653Y-65813309D01*
X114855800Y-65848131D01*
X114926487Y-65869574D01*
X115000000Y-65876814D01*
X116231250Y-65875000D01*
X116325000Y-65781250D01*
X116325000Y-64175000D01*
X116675000Y-64175000D01*
X116675000Y-65781250D01*
X116768750Y-65875000D01*
X118000000Y-65876814D01*
X118073513Y-65869574D01*
X118144200Y-65848131D01*
X118209347Y-65813309D01*
X118266448Y-65766448D01*
X118313309Y-65709347D01*
X118348131Y-65644200D01*
X118369574Y-65573513D01*
X118376814Y-65500000D01*
X118375000Y-64268750D01*
X118281250Y-64175000D01*
X116675000Y-64175000D01*
X116325000Y-64175000D01*
X114718750Y-64175000D01*
X114625000Y-64268750D01*
X114623186Y-65500000D01*
X101075000Y-65500000D01*
X101075000Y-62500000D01*
X114623186Y-62500000D01*
X114625000Y-63731250D01*
X114718750Y-63825000D01*
X116325000Y-63825000D01*
X116325000Y-62218750D01*
X116675000Y-62218750D01*
X116675000Y-63825000D01*
X118281250Y-63825000D01*
X118375000Y-63731250D01*
X118376814Y-62500000D01*
X118369574Y-62426487D01*
X118348131Y-62355800D01*
X118313309Y-62290653D01*
X118266448Y-62233552D01*
X118209347Y-62186691D01*
X118144200Y-62151869D01*
X118073513Y-62130426D01*
X118000000Y-62123186D01*
X116768750Y-62125000D01*
X116675000Y-62218750D01*
X116325000Y-62218750D01*
X116231250Y-62125000D01*
X115000000Y-62123186D01*
X114926487Y-62130426D01*
X114855800Y-62151869D01*
X114790653Y-62186691D01*
X114733552Y-62233552D01*
X114686691Y-62290653D01*
X114651869Y-62355800D01*
X114630426Y-62426487D01*
X114623186Y-62500000D01*
X101075000Y-62500000D01*
X101075000Y-50445279D01*
X104445280Y-47075000D01*
X114422218Y-47075000D01*
X114422218Y-47500000D01*
X114433320Y-47612720D01*
X114466199Y-47721108D01*
X114519592Y-47820998D01*
X114591446Y-47908554D01*
X114679002Y-47980408D01*
X114778892Y-48033801D01*
X114887280Y-48066680D01*
X115000000Y-48077782D01*
X118000000Y-48077782D01*
X118112720Y-48066680D01*
X118221108Y-48033801D01*
X118320998Y-47980408D01*
X118408554Y-47908554D01*
X118480408Y-47820998D01*
X118533801Y-47721108D01*
X118566680Y-47612720D01*
X118577782Y-47500000D01*
X118577782Y-44500000D01*
X118566680Y-44387280D01*
X118533801Y-44278892D01*
X118480408Y-44179002D01*
X118408554Y-44091446D01*
X118320998Y-44019592D01*
X118221108Y-43966199D01*
X118112720Y-43933320D01*
X118000000Y-43922218D01*
X115000000Y-43922218D01*
X114887280Y-43933320D01*
X114778892Y-43966199D01*
X114679002Y-44019592D01*
X114591446Y-44091446D01*
X114519592Y-44179002D01*
X114466199Y-44278892D01*
X114433320Y-44387280D01*
X114422218Y-44500000D01*
X114422218Y-44925000D01*
X104052797Y-44925000D01*
X103999999Y-44919800D01*
X103947201Y-44925000D01*
X103947194Y-44925000D01*
X103789263Y-44940555D01*
X103586625Y-45002024D01*
X103399872Y-45101846D01*
X103277199Y-45202521D01*
X103277194Y-45202526D01*
X103236183Y-45236183D01*
X103202525Y-45277195D01*
X99277200Y-49202521D01*
X99236183Y-49236183D01*
X99101846Y-49399872D01*
X99002024Y-49586626D01*
X98940555Y-49789264D01*
X98925000Y-49947195D01*
X98925000Y-49947202D01*
X98919800Y-50000000D01*
X98925000Y-50052798D01*
X98925001Y-71425000D01*
X98377782Y-71425000D01*
X98377782Y-71000000D01*
X98366680Y-70887280D01*
X98333801Y-70778892D01*
X98280408Y-70679002D01*
X98208554Y-70591446D01*
X98120998Y-70519592D01*
X98021108Y-70466199D01*
X97912720Y-70433320D01*
X97800000Y-70422218D01*
X96200000Y-70422218D01*
X96087280Y-70433320D01*
X95978892Y-70466199D01*
X95879002Y-70519592D01*
X95791446Y-70591446D01*
X95719592Y-70679002D01*
X95666199Y-70778892D01*
X95633320Y-70887280D01*
X95622218Y-71000000D01*
X95622218Y-74000000D01*
X95633320Y-74112720D01*
X95666199Y-74221108D01*
X95719592Y-74320998D01*
X95791446Y-74408554D01*
X95879002Y-74480408D01*
X95978892Y-74533801D01*
X96087280Y-74566680D01*
X96200000Y-74577782D01*
X97800000Y-74577782D01*
X97912720Y-74566680D01*
X98021108Y-74533801D01*
X98120998Y-74480408D01*
X98208554Y-74408554D01*
X98280408Y-74320998D01*
X98333801Y-74221108D01*
X98366680Y-74112720D01*
X98377782Y-74000000D01*
X98377782Y-73575000D01*
X98925000Y-73575000D01*
X98925001Y-88745000D01*
X87286348Y-88745000D01*
X87145518Y-88629424D01*
X86897962Y-88497102D01*
X86745810Y-88450947D01*
X86760623Y-88447321D01*
X86980466Y-88344783D01*
X87176081Y-88201326D01*
X87339950Y-88022463D01*
X87465776Y-87815067D01*
X87520133Y-87642512D01*
X87467632Y-87455000D01*
X85875000Y-87455000D01*
X85875000Y-87475000D01*
X85525000Y-87475000D01*
X85525000Y-87455000D01*
X83932368Y-87455000D01*
X83879867Y-87642512D01*
X83934224Y-87815067D01*
X84060050Y-88022463D01*
X84223919Y-88201326D01*
X84419534Y-88344783D01*
X84639377Y-88447321D01*
X84654190Y-88450947D01*
X84502038Y-88497102D01*
X84254482Y-88629424D01*
X84037498Y-88807498D01*
X83859424Y-89024482D01*
X83727102Y-89272038D01*
X83645619Y-89540651D01*
X83618106Y-89820000D01*
X72531894Y-89820000D01*
X72504381Y-89540651D01*
X72422898Y-89272038D01*
X72290576Y-89024482D01*
X72112502Y-88807498D01*
X71895518Y-88629424D01*
X71746927Y-88550000D01*
X71895518Y-88470576D01*
X72112502Y-88292502D01*
X72290576Y-88075518D01*
X72422898Y-87827962D01*
X72504381Y-87559349D01*
X72531894Y-87280000D01*
X72504381Y-87000651D01*
X72422898Y-86732038D01*
X72290576Y-86484482D01*
X72112502Y-86267498D01*
X71986605Y-86164177D01*
X72062720Y-86156680D01*
X72171108Y-86123801D01*
X72270998Y-86070408D01*
X72358554Y-85998554D01*
X72430408Y-85910998D01*
X72483801Y-85811108D01*
X72516680Y-85702720D01*
X72527782Y-85590000D01*
X72527782Y-83890000D01*
X72516680Y-83777280D01*
X72483801Y-83668892D01*
X72430408Y-83569002D01*
X72358554Y-83481446D01*
X72270998Y-83409592D01*
X72171108Y-83356199D01*
X72062720Y-83323320D01*
X71950000Y-83312218D01*
X68950000Y-83312218D01*
X68837280Y-83323320D01*
X68728892Y-83356199D01*
X68629002Y-83409592D01*
X68541446Y-83481446D01*
X68469592Y-83569002D01*
X68416199Y-83668892D01*
X68383320Y-83777280D01*
X68372218Y-83890000D01*
X68372218Y-85590000D01*
X68383320Y-85702720D01*
X68416199Y-85811108D01*
X68469592Y-85910998D01*
X68541446Y-85998554D01*
X68629002Y-86070408D01*
X68728892Y-86123801D01*
X68837280Y-86156680D01*
X68913395Y-86164177D01*
X68787498Y-86267498D01*
X68609424Y-86484482D01*
X68477102Y-86732038D01*
X68395619Y-87000651D01*
X68368106Y-87280000D01*
X68395619Y-87559349D01*
X68477102Y-87827962D01*
X68609424Y-88075518D01*
X68787498Y-88292502D01*
X69004482Y-88470576D01*
X69153073Y-88550000D01*
X69004482Y-88629424D01*
X68787498Y-88807498D01*
X68609424Y-89024482D01*
X68477102Y-89272038D01*
X68395619Y-89540651D01*
X68368106Y-89820000D01*
X68395619Y-90099349D01*
X68477102Y-90367962D01*
X68609424Y-90615518D01*
X68787498Y-90832502D01*
X69004482Y-91010576D01*
X69153073Y-91090000D01*
X69004482Y-91169424D01*
X68787498Y-91347498D01*
X68609424Y-91564482D01*
X68477102Y-91812038D01*
X68395619Y-92080651D01*
X68368106Y-92360000D01*
X68395619Y-92639349D01*
X68477102Y-92907962D01*
X68609424Y-93155518D01*
X68787498Y-93372502D01*
X69004482Y-93550576D01*
X69153073Y-93630000D01*
X69004482Y-93709424D01*
X68787498Y-93887498D01*
X68609424Y-94104482D01*
X68477102Y-94352038D01*
X68395619Y-94620651D01*
X68368106Y-94900000D01*
X68395619Y-95179349D01*
X68477102Y-95447962D01*
X68609424Y-95695518D01*
X68787498Y-95912502D01*
X69004482Y-96090576D01*
X69153073Y-96170000D01*
X69004482Y-96249424D01*
X68787498Y-96427498D01*
X68609424Y-96644482D01*
X68477102Y-96892038D01*
X68395619Y-97160651D01*
X68368106Y-97440000D01*
X68395619Y-97719349D01*
X68477102Y-97987962D01*
X68609424Y-98235518D01*
X68787498Y-98452502D01*
X69004482Y-98630576D01*
X69153073Y-98710000D01*
X69004482Y-98789424D01*
X68787498Y-98967498D01*
X68609424Y-99184482D01*
X68477102Y-99432038D01*
X68395619Y-99700651D01*
X68368106Y-99980000D01*
X68395619Y-100259349D01*
X68477102Y-100527962D01*
X68609424Y-100775518D01*
X68787498Y-100992502D01*
X69004482Y-101170576D01*
X69153073Y-101250000D01*
X69004482Y-101329424D01*
X68787498Y-101507498D01*
X68609424Y-101724482D01*
X68477102Y-101972038D01*
X68395619Y-102240651D01*
X68368106Y-102520000D01*
X68395619Y-102799349D01*
X68477102Y-103067962D01*
X68609424Y-103315518D01*
X68787498Y-103532502D01*
X69004482Y-103710576D01*
X69153073Y-103790000D01*
X69004482Y-103869424D01*
X68787498Y-104047498D01*
X68609424Y-104264482D01*
X68477102Y-104512038D01*
X68395619Y-104780651D01*
X68368106Y-105060000D01*
X68395619Y-105339349D01*
X68477102Y-105607962D01*
X68609424Y-105855518D01*
X68787498Y-106072502D01*
X69004482Y-106250576D01*
X69153073Y-106330000D01*
X69004482Y-106409424D01*
X68787498Y-106587498D01*
X68609424Y-106804482D01*
X68477102Y-107052038D01*
X68395619Y-107320651D01*
X68368106Y-107600000D01*
X68395619Y-107879349D01*
X68477102Y-108147962D01*
X68609424Y-108395518D01*
X68787498Y-108612502D01*
X69004482Y-108790576D01*
X69153073Y-108870000D01*
X69050176Y-108925000D01*
X53031721Y-108925000D01*
X52980408Y-108829002D01*
X52908554Y-108741446D01*
X52820998Y-108669592D01*
X52721108Y-108616199D01*
X52612720Y-108583320D01*
X52500000Y-108572218D01*
X52178765Y-108572218D01*
X52280466Y-108524783D01*
X52476081Y-108381326D01*
X52639950Y-108202463D01*
X52765776Y-107995067D01*
X52794148Y-107905000D01*
X55734186Y-107905000D01*
X55741426Y-107978513D01*
X55762869Y-108049200D01*
X55797691Y-108114347D01*
X55844552Y-108171448D01*
X55901653Y-108218309D01*
X55966800Y-108253131D01*
X56037487Y-108274574D01*
X56111000Y-108281814D01*
X56731250Y-108280000D01*
X56825000Y-108186250D01*
X56825000Y-107445000D01*
X57175000Y-107445000D01*
X57175000Y-108186250D01*
X57268750Y-108280000D01*
X57889000Y-108281814D01*
X57962513Y-108274574D01*
X58033200Y-108253131D01*
X58098347Y-108218309D01*
X58155448Y-108171448D01*
X58202309Y-108114347D01*
X58237131Y-108049200D01*
X58258574Y-107978513D01*
X58265814Y-107905000D01*
X60734186Y-107905000D01*
X60741426Y-107978513D01*
X60762869Y-108049200D01*
X60797691Y-108114347D01*
X60844552Y-108171448D01*
X60901653Y-108218309D01*
X60966800Y-108253131D01*
X61037487Y-108274574D01*
X61111000Y-108281814D01*
X61731250Y-108280000D01*
X61825000Y-108186250D01*
X61825000Y-107445000D01*
X62175000Y-107445000D01*
X62175000Y-108186250D01*
X62268750Y-108280000D01*
X62889000Y-108281814D01*
X62962513Y-108274574D01*
X63033200Y-108253131D01*
X63098347Y-108218309D01*
X63155448Y-108171448D01*
X63202309Y-108114347D01*
X63237131Y-108049200D01*
X63258574Y-107978513D01*
X63265814Y-107905000D01*
X63264000Y-107538750D01*
X63170250Y-107445000D01*
X62175000Y-107445000D01*
X61825000Y-107445000D01*
X60829750Y-107445000D01*
X60736000Y-107538750D01*
X60734186Y-107905000D01*
X58265814Y-107905000D01*
X58264000Y-107538750D01*
X58170250Y-107445000D01*
X57175000Y-107445000D01*
X56825000Y-107445000D01*
X55829750Y-107445000D01*
X55736000Y-107538750D01*
X55734186Y-107905000D01*
X52794148Y-107905000D01*
X52820133Y-107822512D01*
X52767632Y-107635000D01*
X51175000Y-107635000D01*
X51175000Y-107655000D01*
X50825000Y-107655000D01*
X50825000Y-107635000D01*
X49232368Y-107635000D01*
X49179867Y-107822512D01*
X49234224Y-107995067D01*
X49360050Y-108202463D01*
X49523919Y-108381326D01*
X49719534Y-108524783D01*
X49821235Y-108572218D01*
X49500000Y-108572218D01*
X49387280Y-108583320D01*
X49278892Y-108616199D01*
X49179002Y-108669592D01*
X49091446Y-108741446D01*
X49019592Y-108829002D01*
X48966199Y-108928892D01*
X48933320Y-109037280D01*
X48922218Y-109150000D01*
X48922218Y-109975440D01*
X48919799Y-110000000D01*
X48922218Y-110024560D01*
X48922218Y-110850000D01*
X48933320Y-110962720D01*
X48966199Y-111071108D01*
X49019592Y-111170998D01*
X49091446Y-111258554D01*
X49179002Y-111330408D01*
X49278892Y-111383801D01*
X49387280Y-111416680D01*
X49500000Y-111427782D01*
X52500000Y-111427782D01*
X52612720Y-111416680D01*
X52721108Y-111383801D01*
X52820998Y-111330408D01*
X52908554Y-111258554D01*
X52980408Y-111170998D01*
X53031721Y-111075000D01*
X68723894Y-111075000D01*
X68787498Y-111152502D01*
X69004482Y-111330576D01*
X69153073Y-111410000D01*
X69004482Y-111489424D01*
X68787498Y-111667498D01*
X68609424Y-111884482D01*
X68477102Y-112132038D01*
X68395619Y-112400651D01*
X68368106Y-112680000D01*
X68395619Y-112959349D01*
X68477102Y-113227962D01*
X68609424Y-113475518D01*
X68787498Y-113692502D01*
X69004482Y-113870576D01*
X69153073Y-113950000D01*
X69004482Y-114029424D01*
X68863652Y-114145000D01*
X63247051Y-114145000D01*
X63209998Y-114114592D01*
X63110108Y-114061199D01*
X63001720Y-114028320D01*
X62889000Y-114017218D01*
X61111000Y-114017218D01*
X60998280Y-114028320D01*
X60889892Y-114061199D01*
X60790002Y-114114592D01*
X60702446Y-114186446D01*
X60630592Y-114274002D01*
X60577199Y-114373892D01*
X60544320Y-114482280D01*
X60533218Y-114595000D01*
X60533218Y-115433123D01*
X60528701Y-115430709D01*
X60514632Y-115426441D01*
X60500000Y-115425000D01*
X58190250Y-115425000D01*
X58170250Y-115405000D01*
X57175000Y-115405000D01*
X57175000Y-115425000D01*
X56825000Y-115425000D01*
X56825000Y-115405000D01*
X55829750Y-115405000D01*
X55809750Y-115425000D01*
X55000000Y-115425000D01*
X54985368Y-115426441D01*
X54971299Y-115430709D01*
X54958332Y-115437640D01*
X54946967Y-115446967D01*
X54937640Y-115458332D01*
X54930709Y-115471299D01*
X54926441Y-115485368D01*
X54925000Y-115500000D01*
X54925000Y-116500000D01*
X54926441Y-116514632D01*
X54930709Y-116528701D01*
X54937640Y-116541668D01*
X54946967Y-116553033D01*
X54958332Y-116562360D01*
X54971299Y-116569291D01*
X54985368Y-116573559D01*
X55000000Y-116575000D01*
X55976259Y-116575000D01*
X55889892Y-116601199D01*
X55790002Y-116654592D01*
X55702446Y-116726446D01*
X55630592Y-116814002D01*
X55577199Y-116913892D01*
X55544320Y-117022280D01*
X55533218Y-117135000D01*
X55533218Y-118405000D01*
X55544320Y-118517720D01*
X55577199Y-118626108D01*
X55630592Y-118725998D01*
X55702446Y-118813554D01*
X55790002Y-118885408D01*
X55889892Y-118938801D01*
X55925001Y-118949451D01*
X55925000Y-124005000D01*
X52586348Y-124005000D01*
X52445518Y-123889424D01*
X52296927Y-123810000D01*
X52445518Y-123730576D01*
X52662502Y-123552502D01*
X52840576Y-123335518D01*
X52972898Y-123087962D01*
X53054381Y-122819349D01*
X53081894Y-122540000D01*
X53054381Y-122260651D01*
X52972898Y-121992038D01*
X52840576Y-121744482D01*
X52662502Y-121527498D01*
X52445518Y-121349424D01*
X52215347Y-121226395D01*
X52500000Y-121226814D01*
X52573513Y-121219574D01*
X52644200Y-121198131D01*
X52709347Y-121163309D01*
X52766448Y-121116448D01*
X52813309Y-121059347D01*
X52848131Y-120994200D01*
X52869574Y-120923513D01*
X52876814Y-120850000D01*
X52875000Y-120268750D01*
X52781250Y-120175000D01*
X51175000Y-120175000D01*
X51175000Y-120195000D01*
X50825000Y-120195000D01*
X50825000Y-120175000D01*
X49218750Y-120175000D01*
X49125000Y-120268750D01*
X49123186Y-120850000D01*
X49130426Y-120923513D01*
X49151869Y-120994200D01*
X49186691Y-121059347D01*
X49233552Y-121116448D01*
X49290653Y-121163309D01*
X49355800Y-121198131D01*
X49426487Y-121219574D01*
X49500000Y-121226814D01*
X49784653Y-121226395D01*
X49554482Y-121349424D01*
X49337498Y-121527498D01*
X49159424Y-121744482D01*
X49027102Y-121992038D01*
X48945619Y-122260651D01*
X48918106Y-122540000D01*
X46000000Y-122540000D01*
X46000000Y-119150000D01*
X49123186Y-119150000D01*
X49125000Y-119731250D01*
X49218750Y-119825000D01*
X50825000Y-119825000D01*
X50825000Y-118868750D01*
X51175000Y-118868750D01*
X51175000Y-119825000D01*
X52781250Y-119825000D01*
X52875000Y-119731250D01*
X52876814Y-119150000D01*
X52869574Y-119076487D01*
X52848131Y-119005800D01*
X52813309Y-118940653D01*
X52766448Y-118883552D01*
X52709347Y-118836691D01*
X52644200Y-118801869D01*
X52573513Y-118780426D01*
X52500000Y-118773186D01*
X51268750Y-118775000D01*
X51175000Y-118868750D01*
X50825000Y-118868750D01*
X50731250Y-118775000D01*
X49500000Y-118773186D01*
X49426487Y-118780426D01*
X49355800Y-118801869D01*
X49290653Y-118836691D01*
X49233552Y-118883552D01*
X49186691Y-118940653D01*
X49151869Y-119005800D01*
X49130426Y-119076487D01*
X49123186Y-119150000D01*
X46000000Y-119150000D01*
X46000000Y-114595000D01*
X55734186Y-114595000D01*
X55736000Y-114961250D01*
X55829750Y-115055000D01*
X56825000Y-115055000D01*
X56825000Y-114313750D01*
X57175000Y-114313750D01*
X57175000Y-115055000D01*
X58170250Y-115055000D01*
X58264000Y-114961250D01*
X58265814Y-114595000D01*
X58258574Y-114521487D01*
X58237131Y-114450800D01*
X58202309Y-114385653D01*
X58155448Y-114328552D01*
X58098347Y-114281691D01*
X58033200Y-114246869D01*
X57962513Y-114225426D01*
X57889000Y-114218186D01*
X57268750Y-114220000D01*
X57175000Y-114313750D01*
X56825000Y-114313750D01*
X56731250Y-114220000D01*
X56111000Y-114218186D01*
X56037487Y-114225426D01*
X55966800Y-114246869D01*
X55901653Y-114281691D01*
X55844552Y-114328552D01*
X55797691Y-114385653D01*
X55762869Y-114450800D01*
X55741426Y-114521487D01*
X55734186Y-114595000D01*
X46000000Y-114595000D01*
X46000000Y-104920000D01*
X48918106Y-104920000D01*
X48945619Y-105199349D01*
X49027102Y-105467962D01*
X49159424Y-105715518D01*
X49337498Y-105932502D01*
X49554482Y-106110576D01*
X49802038Y-106242898D01*
X49954190Y-106289053D01*
X49939377Y-106292679D01*
X49719534Y-106395217D01*
X49523919Y-106538674D01*
X49360050Y-106717537D01*
X49234224Y-106924933D01*
X49179867Y-107097488D01*
X49232368Y-107285000D01*
X50825000Y-107285000D01*
X50825000Y-107265000D01*
X51175000Y-107265000D01*
X51175000Y-107285000D01*
X52767632Y-107285000D01*
X52820133Y-107097488D01*
X52765776Y-106924933D01*
X52639950Y-106717537D01*
X52564333Y-106635000D01*
X55734186Y-106635000D01*
X55736000Y-107001250D01*
X55829750Y-107095000D01*
X56825000Y-107095000D01*
X56825000Y-106353750D01*
X57175000Y-106353750D01*
X57175000Y-107095000D01*
X58170250Y-107095000D01*
X58264000Y-107001250D01*
X58265814Y-106635000D01*
X60734186Y-106635000D01*
X60736000Y-107001250D01*
X60829750Y-107095000D01*
X61825000Y-107095000D01*
X61825000Y-106353750D01*
X62175000Y-106353750D01*
X62175000Y-107095000D01*
X63170250Y-107095000D01*
X63264000Y-107001250D01*
X63265814Y-106635000D01*
X63258574Y-106561487D01*
X63237131Y-106490800D01*
X63202309Y-106425653D01*
X63155448Y-106368552D01*
X63098347Y-106321691D01*
X63033200Y-106286869D01*
X62962513Y-106265426D01*
X62889000Y-106258186D01*
X62268750Y-106260000D01*
X62175000Y-106353750D01*
X61825000Y-106353750D01*
X61731250Y-106260000D01*
X61111000Y-106258186D01*
X61037487Y-106265426D01*
X60966800Y-106286869D01*
X60901653Y-106321691D01*
X60844552Y-106368552D01*
X60797691Y-106425653D01*
X60762869Y-106490800D01*
X60741426Y-106561487D01*
X60734186Y-106635000D01*
X58265814Y-106635000D01*
X58258574Y-106561487D01*
X58237131Y-106490800D01*
X58202309Y-106425653D01*
X58155448Y-106368552D01*
X58098347Y-106321691D01*
X58033200Y-106286869D01*
X57962513Y-106265426D01*
X57889000Y-106258186D01*
X57268750Y-106260000D01*
X57175000Y-106353750D01*
X56825000Y-106353750D01*
X56731250Y-106260000D01*
X56111000Y-106258186D01*
X56037487Y-106265426D01*
X55966800Y-106286869D01*
X55901653Y-106321691D01*
X55844552Y-106368552D01*
X55797691Y-106425653D01*
X55762869Y-106490800D01*
X55741426Y-106561487D01*
X55734186Y-106635000D01*
X52564333Y-106635000D01*
X52476081Y-106538674D01*
X52280466Y-106395217D01*
X52060623Y-106292679D01*
X52045810Y-106289053D01*
X52197962Y-106242898D01*
X52445518Y-106110576D01*
X52586348Y-105995000D01*
X61527202Y-105995000D01*
X61580000Y-106000200D01*
X61632798Y-105995000D01*
X61632806Y-105995000D01*
X61790737Y-105979445D01*
X61911600Y-105942782D01*
X62889000Y-105942782D01*
X63001720Y-105931680D01*
X63110108Y-105898801D01*
X63209998Y-105845408D01*
X63297554Y-105773554D01*
X63369408Y-105685998D01*
X63422801Y-105586108D01*
X63455680Y-105477720D01*
X63466782Y-105365000D01*
X63466782Y-104471735D01*
X63497976Y-104413375D01*
X63559445Y-104210737D01*
X63575000Y-104052806D01*
X63575000Y-104052799D01*
X63580200Y-104000001D01*
X63575000Y-103947203D01*
X63575000Y-82945279D01*
X64445280Y-82075000D01*
X83554721Y-82075000D01*
X84425000Y-82945280D01*
X84425000Y-83458280D01*
X84254482Y-83549424D01*
X84037498Y-83727498D01*
X83859424Y-83944482D01*
X83727102Y-84192038D01*
X83645619Y-84460651D01*
X83618106Y-84740000D01*
X83645619Y-85019349D01*
X83727102Y-85287962D01*
X83859424Y-85535518D01*
X84037498Y-85752502D01*
X84254482Y-85930576D01*
X84502038Y-86062898D01*
X84654190Y-86109053D01*
X84639377Y-86112679D01*
X84419534Y-86215217D01*
X84223919Y-86358674D01*
X84060050Y-86537537D01*
X83934224Y-86744933D01*
X83879867Y-86917488D01*
X83932368Y-87105000D01*
X85525000Y-87105000D01*
X85525000Y-87085000D01*
X85875000Y-87085000D01*
X85875000Y-87105000D01*
X87467632Y-87105000D01*
X87520133Y-86917488D01*
X87465776Y-86744933D01*
X87339950Y-86537537D01*
X87176081Y-86358674D01*
X86980466Y-86215217D01*
X86760623Y-86112679D01*
X86745810Y-86109053D01*
X86897962Y-86062898D01*
X87145518Y-85930576D01*
X87362502Y-85752502D01*
X87540576Y-85535518D01*
X87672898Y-85287962D01*
X87754381Y-85019349D01*
X87781894Y-84740000D01*
X87754381Y-84460651D01*
X87672898Y-84192038D01*
X87540576Y-83944482D01*
X87362502Y-83727498D01*
X87145518Y-83549424D01*
X86897962Y-83417102D01*
X86629349Y-83335619D01*
X86575000Y-83330266D01*
X86575000Y-82552797D01*
X86580200Y-82499999D01*
X86575000Y-82447201D01*
X86575000Y-82447194D01*
X86559445Y-82289263D01*
X86497976Y-82086625D01*
X86398154Y-81899872D01*
X86396744Y-81898154D01*
X86297479Y-81777199D01*
X86297474Y-81777194D01*
X86263817Y-81736183D01*
X86222805Y-81702525D01*
X84797479Y-80277200D01*
X84763817Y-80236183D01*
X84600128Y-80101846D01*
X84413375Y-80002024D01*
X84210737Y-79940555D01*
X84052806Y-79925000D01*
X84052798Y-79925000D01*
X84000000Y-79919800D01*
X83947202Y-79925000D01*
X64052797Y-79925000D01*
X63999999Y-79919800D01*
X63947201Y-79925000D01*
X63947194Y-79925000D01*
X63789263Y-79940555D01*
X63586625Y-80002024D01*
X63399872Y-80101846D01*
X63277199Y-80202521D01*
X63277194Y-80202526D01*
X63236183Y-80236183D01*
X63202525Y-80277195D01*
X61777195Y-81702526D01*
X61736184Y-81736183D01*
X61702527Y-81777194D01*
X61702521Y-81777200D01*
X61601846Y-81899873D01*
X61502025Y-82086625D01*
X61440555Y-82289264D01*
X61419800Y-82500000D01*
X61425001Y-82552808D01*
X61425000Y-103517218D01*
X61111000Y-103517218D01*
X60998280Y-103528320D01*
X60889892Y-103561199D01*
X60790002Y-103614592D01*
X60702446Y-103686446D01*
X60630592Y-103774002D01*
X60592642Y-103845000D01*
X58407358Y-103845000D01*
X58369408Y-103774002D01*
X58297554Y-103686446D01*
X58209998Y-103614592D01*
X58110108Y-103561199D01*
X58001720Y-103528320D01*
X57889000Y-103517218D01*
X56111000Y-103517218D01*
X55998280Y-103528320D01*
X55889892Y-103561199D01*
X55790002Y-103614592D01*
X55702446Y-103686446D01*
X55630592Y-103774002D01*
X55592642Y-103845000D01*
X52586348Y-103845000D01*
X52445518Y-103729424D01*
X52197962Y-103597102D01*
X51929349Y-103515619D01*
X51719997Y-103495000D01*
X50280003Y-103495000D01*
X50070651Y-103515619D01*
X49802038Y-103597102D01*
X49554482Y-103729424D01*
X49337498Y-103907498D01*
X49159424Y-104124482D01*
X49027102Y-104372038D01*
X48945619Y-104640651D01*
X48918106Y-104920000D01*
X46000000Y-104920000D01*
X46000000Y-72675000D01*
X92025000Y-72675000D01*
X92025000Y-73375000D01*
X92081718Y-73600869D01*
X92181411Y-73811332D01*
X92320248Y-73998302D01*
X92492893Y-74154594D01*
X92692712Y-74274201D01*
X92845394Y-74320214D01*
X93025000Y-74266994D01*
X93025000Y-72675000D01*
X93375000Y-72675000D01*
X93375000Y-74266994D01*
X93554606Y-74320214D01*
X93707288Y-74274201D01*
X93907107Y-74154594D01*
X94079752Y-73998302D01*
X94218589Y-73811332D01*
X94318282Y-73600869D01*
X94375000Y-73375000D01*
X94375000Y-72675000D01*
X93375000Y-72675000D01*
X93025000Y-72675000D01*
X92025000Y-72675000D01*
X46000000Y-72675000D01*
X46000000Y-71625000D01*
X92025000Y-71625000D01*
X92025000Y-72325000D01*
X93025000Y-72325000D01*
X93025000Y-70733006D01*
X93375000Y-70733006D01*
X93375000Y-72325000D01*
X94375000Y-72325000D01*
X94375000Y-71625000D01*
X94318282Y-71399131D01*
X94218589Y-71188668D01*
X94079752Y-71001698D01*
X93907107Y-70845406D01*
X93707288Y-70725799D01*
X93554606Y-70679786D01*
X93375000Y-70733006D01*
X93025000Y-70733006D01*
X92845394Y-70679786D01*
X92692712Y-70725799D01*
X92492893Y-70845406D01*
X92320248Y-71001698D01*
X92181411Y-71188668D01*
X92081718Y-71399131D01*
X92025000Y-71625000D01*
X46000000Y-71625000D01*
X46000000Y-65500000D01*
X74623186Y-65500000D01*
X74630426Y-65573513D01*
X74651869Y-65644200D01*
X74686691Y-65709347D01*
X74733552Y-65766448D01*
X74790653Y-65813309D01*
X74855800Y-65848131D01*
X74926487Y-65869574D01*
X75000000Y-65876814D01*
X76231250Y-65875000D01*
X76325000Y-65781250D01*
X76325000Y-64175000D01*
X76675000Y-64175000D01*
X76675000Y-65781250D01*
X76768750Y-65875000D01*
X78000000Y-65876814D01*
X78073513Y-65869574D01*
X78144200Y-65848131D01*
X78209347Y-65813309D01*
X78266448Y-65766448D01*
X78313309Y-65709347D01*
X78348131Y-65644200D01*
X78369574Y-65573513D01*
X78376814Y-65500000D01*
X78375000Y-64268750D01*
X78281250Y-64175000D01*
X76675000Y-64175000D01*
X76325000Y-64175000D01*
X74718750Y-64175000D01*
X74625000Y-64268750D01*
X74623186Y-65500000D01*
X46000000Y-65500000D01*
X46000000Y-62500000D01*
X74623186Y-62500000D01*
X74625000Y-63731250D01*
X74718750Y-63825000D01*
X76325000Y-63825000D01*
X76325000Y-62218750D01*
X76675000Y-62218750D01*
X76675000Y-63825000D01*
X78281250Y-63825000D01*
X78375000Y-63731250D01*
X78376814Y-62500000D01*
X78369574Y-62426487D01*
X78348131Y-62355800D01*
X78313309Y-62290653D01*
X78266448Y-62233552D01*
X78209347Y-62186691D01*
X78144200Y-62151869D01*
X78073513Y-62130426D01*
X78000000Y-62123186D01*
X76768750Y-62125000D01*
X76675000Y-62218750D01*
X76325000Y-62218750D01*
X76231250Y-62125000D01*
X75000000Y-62123186D01*
X74926487Y-62130426D01*
X74855800Y-62151869D01*
X74790653Y-62186691D01*
X74733552Y-62233552D01*
X74686691Y-62290653D01*
X74651869Y-62355800D01*
X74630426Y-62426487D01*
X74623186Y-62500000D01*
X46000000Y-62500000D01*
X46000000Y-61154606D01*
X62679786Y-61154606D01*
X62725799Y-61307288D01*
X62845406Y-61507107D01*
X63001698Y-61679752D01*
X63188668Y-61818589D01*
X63399131Y-61918282D01*
X63625000Y-61975000D01*
X64325000Y-61975000D01*
X64325000Y-60975000D01*
X64675000Y-60975000D01*
X64675000Y-61975000D01*
X65375000Y-61975000D01*
X65600869Y-61918282D01*
X65811332Y-61818589D01*
X65998302Y-61679752D01*
X66154594Y-61507107D01*
X66274201Y-61307288D01*
X66320214Y-61154606D01*
X66266994Y-60975000D01*
X64675000Y-60975000D01*
X64325000Y-60975000D01*
X62733006Y-60975000D01*
X62679786Y-61154606D01*
X46000000Y-61154606D01*
X46000000Y-60445394D01*
X62679786Y-60445394D01*
X62733006Y-60625000D01*
X64325000Y-60625000D01*
X64325000Y-59625000D01*
X64675000Y-59625000D01*
X64675000Y-60625000D01*
X66266994Y-60625000D01*
X66320214Y-60445394D01*
X66274201Y-60292712D01*
X66154594Y-60092893D01*
X65998302Y-59920248D01*
X65811332Y-59781411D01*
X65600869Y-59681718D01*
X65375000Y-59625000D01*
X64675000Y-59625000D01*
X64325000Y-59625000D01*
X63625000Y-59625000D01*
X63399131Y-59681718D01*
X63188668Y-59781411D01*
X63001698Y-59920248D01*
X62845406Y-60092893D01*
X62725799Y-60292712D01*
X62679786Y-60445394D01*
X46000000Y-60445394D01*
X46000000Y-59850000D01*
X49623186Y-59850000D01*
X49630426Y-59923513D01*
X49651869Y-59994200D01*
X49686691Y-60059347D01*
X49733552Y-60116448D01*
X49790653Y-60163309D01*
X49855800Y-60198131D01*
X49926487Y-60219574D01*
X50000000Y-60226814D01*
X51231250Y-60225000D01*
X51325000Y-60131250D01*
X51325000Y-59175000D01*
X51675000Y-59175000D01*
X51675000Y-60131250D01*
X51768750Y-60225000D01*
X53000000Y-60226814D01*
X53073513Y-60219574D01*
X53144200Y-60198131D01*
X53209347Y-60163309D01*
X53266448Y-60116448D01*
X53313309Y-60059347D01*
X53348131Y-59994200D01*
X53369574Y-59923513D01*
X53376814Y-59850000D01*
X53375000Y-59268750D01*
X53281250Y-59175000D01*
X51675000Y-59175000D01*
X51325000Y-59175000D01*
X49718750Y-59175000D01*
X49625000Y-59268750D01*
X49623186Y-59850000D01*
X46000000Y-59850000D01*
X46000000Y-53920000D01*
X49418106Y-53920000D01*
X49445619Y-54199349D01*
X49527102Y-54467962D01*
X49659424Y-54715518D01*
X49837498Y-54932502D01*
X50054482Y-55110576D01*
X50203073Y-55190000D01*
X50054482Y-55269424D01*
X49837498Y-55447498D01*
X49659424Y-55664482D01*
X49527102Y-55912038D01*
X49445619Y-56180651D01*
X49418106Y-56460000D01*
X49445619Y-56739349D01*
X49527102Y-57007962D01*
X49659424Y-57255518D01*
X49837498Y-57472502D01*
X50054482Y-57650576D01*
X50284653Y-57773605D01*
X50000000Y-57773186D01*
X49926487Y-57780426D01*
X49855800Y-57801869D01*
X49790653Y-57836691D01*
X49733552Y-57883552D01*
X49686691Y-57940653D01*
X49651869Y-58005800D01*
X49630426Y-58076487D01*
X49623186Y-58150000D01*
X49625000Y-58731250D01*
X49718750Y-58825000D01*
X51325000Y-58825000D01*
X51325000Y-58805000D01*
X51675000Y-58805000D01*
X51675000Y-58825000D01*
X53281250Y-58825000D01*
X53375000Y-58731250D01*
X53376814Y-58150000D01*
X53369574Y-58076487D01*
X53348131Y-58005800D01*
X53313309Y-57940653D01*
X53266448Y-57883552D01*
X53209347Y-57836691D01*
X53144200Y-57801869D01*
X53073513Y-57780426D01*
X53000000Y-57773186D01*
X52715347Y-57773605D01*
X52945518Y-57650576D01*
X53162502Y-57472502D01*
X53340576Y-57255518D01*
X53472898Y-57007962D01*
X53554381Y-56739349D01*
X53581894Y-56460000D01*
X53554381Y-56180651D01*
X53472898Y-55912038D01*
X53340576Y-55664482D01*
X53162502Y-55447498D01*
X52945518Y-55269424D01*
X52796927Y-55190000D01*
X52945518Y-55110576D01*
X52988868Y-55075000D01*
X63425001Y-55075000D01*
X63425000Y-55622218D01*
X63000000Y-55622218D01*
X62887280Y-55633320D01*
X62778892Y-55666199D01*
X62679002Y-55719592D01*
X62591446Y-55791446D01*
X62519592Y-55879002D01*
X62466199Y-55978892D01*
X62433320Y-56087280D01*
X62422218Y-56200000D01*
X62422218Y-57800000D01*
X62433320Y-57912720D01*
X62466199Y-58021108D01*
X62519592Y-58120998D01*
X62591446Y-58208554D01*
X62679002Y-58280408D01*
X62778892Y-58333801D01*
X62887280Y-58366680D01*
X63000000Y-58377782D01*
X66000000Y-58377782D01*
X66112720Y-58366680D01*
X66221108Y-58333801D01*
X66320998Y-58280408D01*
X66408554Y-58208554D01*
X66480408Y-58120998D01*
X66533801Y-58021108D01*
X66566680Y-57912720D01*
X66577782Y-57800000D01*
X66577782Y-56200000D01*
X66566680Y-56087280D01*
X66533801Y-55978892D01*
X66480408Y-55879002D01*
X66408554Y-55791446D01*
X66320998Y-55719592D01*
X66221108Y-55666199D01*
X66112720Y-55633320D01*
X66000000Y-55622218D01*
X65575000Y-55622218D01*
X65575000Y-55075000D01*
X74947202Y-55075000D01*
X75000000Y-55080200D01*
X75052798Y-55075000D01*
X75052806Y-55075000D01*
X75210737Y-55059445D01*
X75413375Y-54997976D01*
X75600128Y-54898154D01*
X75763817Y-54763817D01*
X75797479Y-54722800D01*
X77222805Y-53297475D01*
X77263817Y-53263817D01*
X77297474Y-53222806D01*
X77297479Y-53222801D01*
X77398154Y-53100128D01*
X77497975Y-52913376D01*
X77497976Y-52913375D01*
X77559445Y-52710737D01*
X77575000Y-52552806D01*
X77575000Y-52552799D01*
X77580200Y-52500001D01*
X77575000Y-52447203D01*
X77575000Y-48077782D01*
X78000000Y-48077782D01*
X78112720Y-48066680D01*
X78221108Y-48033801D01*
X78320998Y-47980408D01*
X78408554Y-47908554D01*
X78480408Y-47820998D01*
X78533801Y-47721108D01*
X78566680Y-47612720D01*
X78577782Y-47500000D01*
X78577782Y-44500000D01*
X78566680Y-44387280D01*
X78533801Y-44278892D01*
X78480408Y-44179002D01*
X78408554Y-44091446D01*
X78320998Y-44019592D01*
X78221108Y-43966199D01*
X78112720Y-43933320D01*
X78000000Y-43922218D01*
X75000000Y-43922218D01*
X74887280Y-43933320D01*
X74778892Y-43966199D01*
X74679002Y-44019592D01*
X74591446Y-44091446D01*
X74519592Y-44179002D01*
X74466199Y-44278892D01*
X74433320Y-44387280D01*
X74422218Y-44500000D01*
X74422218Y-47500000D01*
X74433320Y-47612720D01*
X74466199Y-47721108D01*
X74519592Y-47820998D01*
X74591446Y-47908554D01*
X74679002Y-47980408D01*
X74778892Y-48033801D01*
X74887280Y-48066680D01*
X75000000Y-48077782D01*
X75425001Y-48077782D01*
X75425000Y-52054720D01*
X74554721Y-52925000D01*
X65575000Y-52925000D01*
X65575000Y-52377782D01*
X66000000Y-52377782D01*
X66112720Y-52366680D01*
X66221108Y-52333801D01*
X66320998Y-52280408D01*
X66408554Y-52208554D01*
X66480408Y-52120998D01*
X66533801Y-52021108D01*
X66566680Y-51912720D01*
X66577782Y-51800000D01*
X66577782Y-50200000D01*
X66566680Y-50087280D01*
X66533801Y-49978892D01*
X66480408Y-49879002D01*
X66408554Y-49791446D01*
X66320998Y-49719592D01*
X66221108Y-49666199D01*
X66112720Y-49633320D01*
X66000000Y-49622218D01*
X63000000Y-49622218D01*
X62887280Y-49633320D01*
X62778892Y-49666199D01*
X62679002Y-49719592D01*
X62591446Y-49791446D01*
X62519592Y-49879002D01*
X62466199Y-49978892D01*
X62433320Y-50087280D01*
X62422218Y-50200000D01*
X62422218Y-51800000D01*
X62433320Y-51912720D01*
X62466199Y-52021108D01*
X62519592Y-52120998D01*
X62591446Y-52208554D01*
X62679002Y-52280408D01*
X62778892Y-52333801D01*
X62887280Y-52366680D01*
X63000000Y-52377782D01*
X63425000Y-52377782D01*
X63425001Y-52925000D01*
X53176866Y-52925000D01*
X53162502Y-52907498D01*
X52945518Y-52729424D01*
X52697962Y-52597102D01*
X52429349Y-52515619D01*
X52219997Y-52495000D01*
X50780003Y-52495000D01*
X50570651Y-52515619D01*
X50302038Y-52597102D01*
X50054482Y-52729424D01*
X49837498Y-52907498D01*
X49659424Y-53124482D01*
X49527102Y-53372038D01*
X49445619Y-53640651D01*
X49418106Y-53920000D01*
X46000000Y-53920000D01*
X46000000Y-47554606D01*
X62679786Y-47554606D01*
X62725799Y-47707288D01*
X62845406Y-47907107D01*
X63001698Y-48079752D01*
X63188668Y-48218589D01*
X63399131Y-48318282D01*
X63625000Y-48375000D01*
X64325000Y-48375000D01*
X64325000Y-47375000D01*
X64675000Y-47375000D01*
X64675000Y-48375000D01*
X65375000Y-48375000D01*
X65600869Y-48318282D01*
X65811332Y-48218589D01*
X65998302Y-48079752D01*
X66154594Y-47907107D01*
X66274201Y-47707288D01*
X66320214Y-47554606D01*
X66266994Y-47375000D01*
X64675000Y-47375000D01*
X64325000Y-47375000D01*
X62733006Y-47375000D01*
X62679786Y-47554606D01*
X46000000Y-47554606D01*
X46000000Y-46845394D01*
X62679786Y-46845394D01*
X62733006Y-47025000D01*
X64325000Y-47025000D01*
X64325000Y-46025000D01*
X64675000Y-46025000D01*
X64675000Y-47025000D01*
X66266994Y-47025000D01*
X66320214Y-46845394D01*
X66274201Y-46692712D01*
X66154594Y-46492893D01*
X65998302Y-46320248D01*
X65811332Y-46181411D01*
X65600869Y-46081718D01*
X65375000Y-46025000D01*
X64675000Y-46025000D01*
X64325000Y-46025000D01*
X63625000Y-46025000D01*
X63399131Y-46081718D01*
X63188668Y-46181411D01*
X63001698Y-46320248D01*
X62845406Y-46492893D01*
X62725799Y-46692712D01*
X62679786Y-46845394D01*
X46000000Y-46845394D01*
X46000000Y-41250000D01*
X145500000Y-41250000D01*
X145500001Y-140750000D01*
G37*
G04 #@! TD.AperFunction*
M02*
